                                                                        S0000001
,,31HOpen CASCADE IGES processor 7.7,13HFilename.iges,                  G0000001
16HOpen CASCADE 7.7,31HOpen CASCADE IGES processor 7.7,32,308,15,308,15,G0000002
,1.,2,2HMM,1,0.01,15H20260408.145236,1E-07,1.524,6HSYSTEM,,11,0,        G0000003
15H20260408.145236,;                                                    G0000004
     402       1       0       0       0       0       0       000000000D0000001
     402       0       0       1       1                    part        D0000002
     402       2       0       0       0       0       0       000020000D0000003
     402       0       0       1       1                               0D0000004
     144       3       0       0       0       0       0       000020000D0000005
     144       0    -507       1       0                               0D0000006
     108       4       0       0       0       0       0       000010000D0000007
     108       0       0       1       0                               0D0000008
     142       5       0       0       0       0       0       000010500D0000009
     142       0       0       1       0                               0D0000010
     102       6       0       0       0       0       0       000010000D0000011
     102       0       0       1       0                               0D0000012
     110       7       0       0       0       0       0       000010000D0000013
     110       0       0       1       0                               0D0000014
     110       8       0       0       0       0       0       000010000D0000015
     110       0       0       1       0                               0D0000016
     110       9       0       0       0       0       0       000010000D0000017
     110       0       0       1       0                               0D0000018
     110      10       0       0       0       0       0       000010000D0000019
     110       0       0       1       0                               0D0000020
     144      11       0       0       0       0       0       000020000D0000021
     144       0    -507       1       0                               0D0000022
     108      12       0       0       0       0       0       000010000D0000023
     108       0       0       1       0                               0D0000024
     142      13       0       0       0       0       0       000010500D0000025
     142       0       0       1       0                               0D0000026
     102      14       0       0       0       0       0       000010000D0000027
     102       0       0       1       0                               0D0000028
     110      15       0       0       0       0       0       000010000D0000029
     110       0       0       1       0                               0D0000030
     110      16       0       0       0       0       0       000010000D0000031
     110       0       0       1       0                               0D0000032
     110      17       0       0       0       0       0       000010000D0000033
     110       0       0       1       0                               0D0000034
     110      18       0       0       0       0       0       000010000D0000035
     110       0    -507       1       0                               0D0000036
     144      19       0       0       0       0       0       000020000D0000037
     144       0    -507       1       0                               0D0000038
     108      20       0       0       0       0       0       000010000D0000039
     108       0       0       1       0                               0D0000040
     142      21       0       0       0       0       0       000010500D0000041
     142       0       0       1       0                               0D0000042
     102      22       0       0       0       0       0       000010000D0000043
     102       0       0       1       0                               0D0000044
     110      23       0       0       0       0       0       000010000D0000045
     110       0       0       1       0                               0D0000046
     110      24       0       0       0       0       0       000010000D0000047
     110       0       0       1       0                               0D0000048
     110      25       0       0       0       0       0       000010000D0000049
     110       0       0       1       0                               0D0000050
     110      26       0       0       0       0       0       000010000D0000051
     110       0    -507       1       0                               0D0000052
     144      27       0       0       0       0       0       000020000D0000053
     144       0    -507       1       0                               0D0000054
     108      28       0       0       0       0       0       000010000D0000055
     108       0       0       1       0                               0D0000056
     142      29       0       0       0       0       0       000010500D0000057
     142       0       0       1       0                               0D0000058
     102      30       0       0       0       0       0       000010000D0000059
     102       0       0       1       0                               0D0000060
     110      31       0       0       0       0       0       000010000D0000061
     110       0       0       1       0                               0D0000062
     110      32       0       0       0       0       0       000010000D0000063
     110       0    -507       1       0                               0D0000064
     110      33       0       0       0       0       0       000010000D0000065
     110       0       0       1       0                               0D0000066
     110      34       0       0       0       0       0       000010000D0000067
     110       0    -507       1       0                               0D0000068
     144      35       0       0       0       0       0       000020000D0000069
     144       0    -507       1       0                               0D0000070
     108      36       0       0       0       0       0       000010000D0000071
     108       0       0       1       0                               0D0000072
     142      37       0       0       0       0       0       000010500D0000073
     142       0       0       1       0                               0D0000074
     102      38       0       0       0       0       0       000010000D0000075
     102       0       0       1       0                               0D0000076
     110      39       0       0       0       0       0       000010000D0000077
     110       0    -507       1       0                               0D0000078
     110      40       0       0       0       0       0       000010000D0000079
     110       0    -507       1       0                               0D0000080
     110      41       0       0       0       0       0       000010000D0000081
     110       0    -507       1       0                               0D0000082
     110      42       0       0       0       0       0       000010000D0000083
     110       0    -507       1       0                               0D0000084
     144      43       0       0       0       0       0       000020000D0000085
     144       0    -507       1       0                               0D0000086
     108      44       0       0       0       0       0       000010000D0000087
     108       0       0       1       0                               0D0000088
     142      45       0       0       0       0       0       000010500D0000089
     142       0       0       1       0                               0D0000090
     102      46       0       0       0       0       0       000010000D0000091
     102       0       0       1       0                               0D0000092
     110      47       0       0       0       0       0       000010000D0000093
     110       0    -507       1       0                               0D0000094
     110      48       0       0       0       0       0       000010000D0000095
     110       0    -507       1       0                               0D0000096
     110      49       0       0       0       0       0       000010000D0000097
     110       0    -507       1       0                               0D0000098
     110      50       0       0       0       0       0       000010000D0000099
     110       0    -507       1       0                               0D0000100
     402      51       0       0       0       0       0       000020000D0000101
     402       0       0       1       1                               0D0000102
     144      52       0       0       0       0       0       000020000D0000103
     144       0    -509       1       0                               0D0000104
     108      53       0       0       0       0       0       000010000D0000105
     108       0       0       1       0                               0D0000106
     142      54       0       0       0       0       0       000010500D0000107
     142       0       0       1       0                               0D0000108
     102      55       0       0       0       0       0       000010000D0000109
     102       0       0       1       0                               0D0000110
     110      56       0       0       0       0       0       000010000D0000111
     110       0       0       1       0                               0D0000112
     110      57       0       0       0       0       0       000010000D0000113
     110       0       0       1       0                               0D0000114
     110      58       0       0       0       0       0       000010000D0000115
     110       0       0       1       0                               0D0000116
     110      59       0       0       0       0       0       000010000D0000117
     110       0       0       1       0                               0D0000118
     144      60       0       0       0       0       0       000020000D0000119
     144       0    -509       1       0                               0D0000120
     108      61       0       0       0       0       0       000010000D0000121
     108       0       0       1       0                               0D0000122
     142      62       0       0       0       0       0       000010500D0000123
     142       0       0       1       0                               0D0000124
     102      63       0       0       0       0       0       000010000D0000125
     102       0       0       1       0                               0D0000126
     110      64       0       0       0       0       0       000010000D0000127
     110       0       0       1       0                               0D0000128
     110      65       0       0       0       0       0       000010000D0000129
     110       0       0       1       0                               0D0000130
     110      66       0       0       0       0       0       000010000D0000131
     110       0       0       1       0                               0D0000132
     110      67       0       0       0       0       0       000010000D0000133
     110       0    -509       1       0                               0D0000134
     144      68       0       0       0       0       0       000020000D0000135
     144       0    -509       1       0                               0D0000136
     108      69       0       0       0       0       0       000010000D0000137
     108       0       0       1       0                               0D0000138
     142      70       0       0       0       0       0       000010500D0000139
     142       0       0       1       0                               0D0000140
     102      71       0       0       0       0       0       000010000D0000141
     102       0       0       1       0                               0D0000142
     110      72       0       0       0       0       0       000010000D0000143
     110       0       0       1       0                               0D0000144
     110      73       0       0       0       0       0       000010000D0000145
     110       0       0       1       0                               0D0000146
     110      74       0       0       0       0       0       000010000D0000147
     110       0       0       1       0                               0D0000148
     110      75       0       0       0       0       0       000010000D0000149
     110       0    -509       1       0                               0D0000150
     144      76       0       0       0       0       0       000020000D0000151
     144       0    -509       1       0                               0D0000152
     108      77       0       0       0       0       0       000010000D0000153
     108       0       0       1       0                               0D0000154
     142      78       0       0       0       0       0       000010500D0000155
     142       0       0       1       0                               0D0000156
     102      79       0       0       0       0       0       000010000D0000157
     102       0       0       1       0                               0D0000158
     110      80       0       0       0       0       0       000010000D0000159
     110       0       0       1       0                               0D0000160
     110      81       0       0       0       0       0       000010000D0000161
     110       0    -509       1       0                               0D0000162
     110      82       0       0       0       0       0       000010000D0000163
     110       0       0       1       0                               0D0000164
     110      83       0       0       0       0       0       000010000D0000165
     110       0    -509       1       0                               0D0000166
     144      84       0       0       0       0       0       000020000D0000167
     144       0    -509       1       0                               0D0000168
     108      85       0       0       0       0       0       000010000D0000169
     108       0       0       1       0                               0D0000170
     142      86       0       0       0       0       0       000010500D0000171
     142       0       0       1       0                               0D0000172
     102      87       0       0       0       0       0       000010000D0000173
     102       0       0       1       0                               0D0000174
     110      88       0       0       0       0       0       000010000D0000175
     110       0    -509       1       0                               0D0000176
     110      89       0       0       0       0       0       000010000D0000177
     110       0    -509       1       0                               0D0000178
     110      90       0       0       0       0       0       000010000D0000179
     110       0    -509       1       0                               0D0000180
     110      91       0       0       0       0       0       000010000D0000181
     110       0    -509       1       0                               0D0000182
     144      92       0       0       0       0       0       000020000D0000183
     144       0    -509       1       0                               0D0000184
     108      93       0       0       0       0       0       000010000D0000185
     108       0       0       1       0                               0D0000186
     142      94       0       0       0       0       0       000010500D0000187
     142       0       0       1       0                               0D0000188
     102      95       0       0       0       0       0       000010000D0000189
     102       0       0       1       0                               0D0000190
     110      96       0       0       0       0       0       000010000D0000191
     110       0    -509       1       0                               0D0000192
     110      97       0       0       0       0       0       000010000D0000193
     110       0    -509       1       0                               0D0000194
     110      98       0       0       0       0       0       000010000D0000195
     110       0    -509       1       0                               0D0000196
     110      99       0       0       0       0       0       000010000D0000197
     110       0    -509       1       0                               0D0000198
     402     100       0       0       0       0       0       000020000D0000199
     402       0       0       1       1                               0D0000200
     144     101       0       0       0       0       0       000020000D0000201
     144       0    -509       1       0                               0D0000202
     108     102       0       0       0       0       0       000010000D0000203
     108       0       0       1       0                               0D0000204
     142     103       0       0       0       0       0       000010500D0000205
     142       0       0       1       0                               0D0000206
     102     104       0       0       0       0       0       000010000D0000207
     102       0       0       1       0                               0D0000208
     110     105       0       0       0       0       0       000010000D0000209
     110       0       0       1       0                               0D0000210
     110     106       0       0       0       0       0       000010000D0000211
     110       0       0       1       0                               0D0000212
     110     107       0       0       0       0       0       000010000D0000213
     110       0       0       1       0                               0D0000214
     110     108       0       0       0       0       0       000010000D0000215
     110       0       0       1       0                               0D0000216
     144     109       0       0       0       0       0       000020000D0000217
     144       0    -509       1       0                               0D0000218
     108     110       0       0       0       0       0       000010000D0000219
     108       0       0       1       0                               0D0000220
     142     111       0       0       0       0       0       000010500D0000221
     142       0       0       1       0                               0D0000222
     102     112       0       0       0       0       0       000010000D0000223
     102       0       0       1       0                               0D0000224
     110     113       0       0       0       0       0       000010000D0000225
     110       0       0       1       0                               0D0000226
     110     114       0       0       0       0       0       000010000D0000227
     110       0       0       1       0                               0D0000228
     110     115       0       0       0       0       0       000010000D0000229
     110       0       0       1       0                               0D0000230
     110     116       0       0       0       0       0       000010000D0000231
     110       0    -509       1       0                               0D0000232
     144     117       0       0       0       0       0       000020000D0000233
     144       0    -509       1       0                               0D0000234
     108     118       0       0       0       0       0       000010000D0000235
     108       0       0       1       0                               0D0000236
     142     119       0       0       0       0       0       000010500D0000237
     142       0       0       1       0                               0D0000238
     102     120       0       0       0       0       0       000010000D0000239
     102       0       0       1       0                               0D0000240
     110     121       0       0       0       0       0       000010000D0000241
     110       0       0       1       0                               0D0000242
     110     122       0       0       0       0       0       000010000D0000243
     110       0       0       1       0                               0D0000244
     110     123       0       0       0       0       0       000010000D0000245
     110       0       0       1       0                               0D0000246
     110     124       0       0       0       0       0       000010000D0000247
     110       0    -509       1       0                               0D0000248
     144     125       0       0       0       0       0       000020000D0000249
     144       0    -509       1       0                               0D0000250
     108     126       0       0       0       0       0       000010000D0000251
     108       0       0       1       0                               0D0000252
     142     127       0       0       0       0       0       000010500D0000253
     142       0       0       1       0                               0D0000254
     102     128       0       0       0       0       0       000010000D0000255
     102       0       0       1       0                               0D0000256
     110     129       0       0       0       0       0       000010000D0000257
     110       0       0       1       0                               0D0000258
     110     130       0       0       0       0       0       000010000D0000259
     110       0    -509       1       0                               0D0000260
     110     131       0       0       0       0       0       000010000D0000261
     110       0       0       1       0                               0D0000262
     110     132       0       0       0       0       0       000010000D0000263
     110       0    -509       1       0                               0D0000264
     144     133       0       0       0       0       0       000020000D0000265
     144       0    -509       1       0                               0D0000266
     108     134       0       0       0       0       0       000010000D0000267
     108       0       0       1       0                               0D0000268
     142     135       0       0       0       0       0       000010500D0000269
     142       0       0       1       0                               0D0000270
     102     136       0       0       0       0       0       000010000D0000271
     102       0       0       1       0                               0D0000272
     110     137       0       0       0       0       0       000010000D0000273
     110       0    -509       1       0                               0D0000274
     110     138       0       0       0       0       0       000010000D0000275
     110       0    -509       1       0                               0D0000276
     110     139       0       0       0       0       0       000010000D0000277
     110       0    -509       1       0                               0D0000278
     110     140       0       0       0       0       0       000010000D0000279
     110       0    -509       1       0                               0D0000280
     144     141       0       0       0       0       0       000020000D0000281
     144       0    -509       1       0                               0D0000282
     108     142       0       0       0       0       0       000010000D0000283
     108       0       0       1       0                               0D0000284
     142     143       0       0       0       0       0       000010500D0000285
     142       0       0       1       0                               0D0000286
     102     144       0       0       0       0       0       000010000D0000287
     102       0       0       1       0                               0D0000288
     110     145       0       0       0       0       0       000010000D0000289
     110       0    -509       1       0                               0D0000290
     110     146       0       0       0       0       0       000010000D0000291
     110       0    -509       1       0                               0D0000292
     110     147       0       0       0       0       0       000010000D0000293
     110       0    -509       1       0                               0D0000294
     110     148       0       0       0       0       0       000010000D0000295
     110       0    -509       1       0                               0D0000296
     402     149       0       0       0       0       0       000020000D0000297
     402       0       0       1       1                               0D0000298
     144     150       0       0       0       0       0       000020000D0000299
     144       0    -511       1       0                               0D0000300
     108     151       0       0       0       0       0       000010000D0000301
     108       0       0       1       0                               0D0000302
     142     152       0       0       0       0       0       000010500D0000303
     142       0       0       1       0                               0D0000304
     102     153       0       0       0       0       0       000010000D0000305
     102       0       0       1       0                               0D0000306
     110     154       0       0       0       0       0       000010000D0000307
     110       0       0       1       0                               0D0000308
     110     155       0       0       0       0       0       000010000D0000309
     110       0       0       1       0                               0D0000310
     110     156       0       0       0       0       0       000010000D0000311
     110       0       0       1       0                               0D0000312
     110     157       0       0       0       0       0       000010000D0000313
     110       0       0       1       0                               0D0000314
     144     158       0       0       0       0       0       000020000D0000315
     144       0    -511       1       0                               0D0000316
     108     159       0       0       0       0       0       000010000D0000317
     108       0       0       1       0                               0D0000318
     142     160       0       0       0       0       0       000010500D0000319
     142       0       0       1       0                               0D0000320
     102     161       0       0       0       0       0       000010000D0000321
     102       0       0       1       0                               0D0000322
     110     162       0       0       0       0       0       000010000D0000323
     110       0    -511       1       0                               0D0000324
     110     163       0       0       0       0       0       000010000D0000325
     110       0       0       1       0                               0D0000326
     110     164       0       0       0       0       0       000010000D0000327
     110       0       0       1       0                               0D0000328
     110     165       0       0       0       0       0       000010000D0000329
     110       0       0       1       0                               0D0000330
     144     166       0       0       0       0       0       000020000D0000331
     144       0    -511       1       0                               0D0000332
     108     167       0       0       0       0       0       000010000D0000333
     108       0       0       1       0                               0D0000334
     142     168       0       0       0       0       0       000010500D0000335
     142       0       0       1       0                               0D0000336
     102     169       0       0       0       0       0       000010000D0000337
     102       0       0       1       0                               0D0000338
     110     170       0       0       0       0       0       000010000D0000339
     110       0    -511       1       0                               0D0000340
     110     171       0       0       0       0       0       000010000D0000341
     110       0       0       1       0                               0D0000342
     110     172       0       0       0       0       0       000010000D0000343
     110       0       0       1       0                               0D0000344
     110     173       0       0       0       0       0       000010000D0000345
     110       0       0       1       0                               0D0000346
     144     174       0       0       0       0       0       000020000D0000347
     144       0    -511       1       0                               0D0000348
     108     175       0       0       0       0       0       000010000D0000349
     108       0       0       1       0                               0D0000350
     142     176       0       0       0       0       0       000010500D0000351
     142       0       0       1       0                               0D0000352
     102     177       0       0       0       0       0       000010000D0000353
     102       0       0       1       0                               0D0000354
     110     178       0       0       0       0       0       000010000D0000355
     110       0    -511       1       0                               0D0000356
     110     179       0       0       0       0       0       000010000D0000357
     110       0       0       1       0                               0D0000358
     110     180       0       0       0       0       0       000010000D0000359
     110       0    -511       1       0                               0D0000360
     110     181       0       0       0       0       0       000010000D0000361
     110       0       0       1       0                               0D0000362
     144     182       0       0       0       0       0       000020000D0000363
     144       0    -511       1       0                               0D0000364
     108     183       0       0       0       0       0       000010000D0000365
     108       0       0       1       0                               0D0000366
     142     184       0       0       0       0       0       000010500D0000367
     142       0       0       1       0                               0D0000368
     102     185       0       0       0       0       0       000010000D0000369
     102       0       0       1       0                               0D0000370
     110     186       0       0       0       0       0       000010000D0000371
     110       0    -511       1       0                               0D0000372
     110     187       0       0       0       0       0       000010000D0000373
     110       0    -511       1       0                               0D0000374
     110     188       0       0       0       0       0       000010000D0000375
     110       0       0       1       0                               0D0000376
     110     189       0       0       0       0       0       000010000D0000377
     110       0       0       1       0                               0D0000378
     110     190       0       0       0       0       0       000010000D0000379
     110       0       0       1       0                               0D0000380
     110     191       0       0       0       0       0       000010000D0000381
     110       0       0       1       0                               0D0000382
     144     192       0       0       0       0       0       000020000D0000383
     144       0    -511       1       0                               0D0000384
     108     193       0       0       0       0       0       000010000D0000385
     108       0       0       1       0                               0D0000386
     142     194       0       0       0       0       0       000010500D0000387
     142       0       0       1       0                               0D0000388
     102     195       0       0       0       0       0       000010000D0000389
     102       0       0       1       0                               0D0000390
     110     196       0       0       0       0       0       000010000D0000391
     110       0    -511       1       0                               0D0000392
     110     197       0       0       0       0       0       000010000D0000393
     110       0       0       1       0                               0D0000394
     110     198       0       0       0       0       0       000010000D0000395
     110       0       0       1       0                               0D0000396
     110     199       0       0       0       0       0       000010000D0000397
     110       0    -511       1       0                               0D0000398
     110     200       0       0       0       0       0       000010000D0000399
     110       0    -511       1       0                               0D0000400
     110     201       0       0       0       0       0       000010000D0000401
     110       0    -511       1       0                               0D0000402
     144     202       0       0       0       0       0       000020000D0000403
     144       0    -511       1       0                               0D0000404
     108     203       0       0       0       0       0       000010000D0000405
     108       0       0       1       0                               0D0000406
     142     204       0       0       0       0       0       000010500D0000407
     142       0       0       1       0                               0D0000408
     102     205       0       0       0       0       0       000010000D0000409
     102       0       0       1       0                               0D0000410
     110     206       0       0       0       0       0       000010000D0000411
     110       0    -511       1       0                               0D0000412
     110     207       0       0       0       0       0       000010000D0000413
     110       0       0       1       0                               0D0000414
     110     208       0       0       0       0       0       000010000D0000415
     110       0       0       1       0                               0D0000416
     110     209       0       0       0       0       0       000010000D0000417
     110       0       0       1       0                               0D0000418
     110     210       0       0       0       0       0       000010000D0000419
     110       0       0       1       0                               0D0000420
     110     211       0       0       0       0       0       000010000D0000421
     110       0    -511       1       0                               0D0000422
     144     212       0       0       0       0       0       000020000D0000423
     144       0    -511       1       0                               0D0000424
     108     213       0       0       0       0       0       000010000D0000425
     108       0       0       1       0                               0D0000426
     142     214       0       0       0       0       0       000010500D0000427
     142       0       0       1       0                               0D0000428
     102     215       0       0       0       0       0       000010000D0000429
     102       0       0       1       0                               0D0000430
     110     216       0       0       0       0       0       000010000D0000431
     110       0    -511       1       0                               0D0000432
     110     217       0       0       0       0       0       000010000D0000433
     110       0    -511       1       0                               0D0000434
     110     218       0       0       0       0       0       000010000D0000435
     110       0    -511       1       0                               0D0000436
     110     219       0       0       0       0       0       000010000D0000437
     110       0    -511       1       0                               0D0000438
     110     220       0       0       0       0       0       000010000D0000439
     110       0       0       1       0                               0D0000440
     110     221       0       0       0       0       0       000010000D0000441
     110       0       0       1       0                               0D0000442
     144     222       0       0       0       0       0       000020000D0000443
     144       0    -511       1       0                               0D0000444
     108     223       0       0       0       0       0       000010000D0000445
     108       0       0       1       0                               0D0000446
     142     224       0       0       0       0       0       000010500D0000447
     142       0       0       1       0                               0D0000448
     102     225       0       0       0       0       0       000010000D0000449
     102       0       0       1       0                               0D0000450
     110     226       0       0       0       0       0       000010000D0000451
     110       0       0       1       0                               0D0000452
     110     227       0       0       0       0       0       000010000D0000453
     110       0    -511       1       0                               0D0000454
     110     228       0       0       0       0       0       000010000D0000455
     110       0       0       1       0                               0D0000456
     110     229       0       0       0       0       0       000010000D0000457
     110       0    -511       1       0                               0D0000458
     144     230       0       0       0       0       0       000020000D0000459
     144       0    -511       1       0                               0D0000460
     108     231       0       0       0       0       0       000010000D0000461
     108       0       0       1       0                               0D0000462
     142     232       0       0       0       0       0       000010500D0000463
     142       0       0       1       0                               0D0000464
     102     233       0       0       0       0       0       000010000D0000465
     102       0       0       1       0                               0D0000466
     110     234       0       0       0       0       0       000010000D0000467
     110       0       0       1       0                               0D0000468
     110     235       0       0       0       0       0       000010000D0000469
     110       0    -511       1       0                               0D0000470
     110     236       0       0       0       0       0       000010000D0000471
     110       0       0       1       0                               0D0000472
     110     237       0       0       0       0       0       000010000D0000473
     110       0    -511       1       0                               0D0000474
     144     238       0       0       0       0       0       000020000D0000475
     144       0    -511       1       0                               0D0000476
     108     239       0       0       0       0       0       000010000D0000477
     108       0       0       1       0                               0D0000478
     142     240       0       0       0       0       0       000010500D0000479
     142       0       0       1       0                               0D0000480
     102     241       0       0       0       0       0       000010000D0000481
     102       0       0       1       0                               0D0000482
     110     242       0       0       0       0       0       000010000D0000483
     110       0    -511       1       0                               0D0000484
     110     243       0       0       0       0       0       000010000D0000485
     110       0    -511       1       0                               0D0000486
     110     244       0       0       0       0       0       000010000D0000487
     110       0    -511       1       0                               0D0000488
     110     245       0       0       0       0       0       000010000D0000489
     110       0    -511       1       0                               0D0000490
     144     246       0       0       0       0       0       000020000D0000491
     144       0    -511       1       0                               0D0000492
     108     247       0       0       0       0       0       000010000D0000493
     108       0       0       1       0                               0D0000494
     142     248       0       0       0       0       0       000010500D0000495
     142       0       0       1       0                               0D0000496
     102     249       0       0       0       0       0       000010000D0000497
     102       0       0       1       0                               0D0000498
     110     250       0       0       0       0       0       000010000D0000499
     110       0    -511       1       0                               0D0000500
     110     251       0       0       0       0       0       000010000D0000501
     110       0    -511       1       0                               0D0000502
     110     252       0       0       0       0       0       000010000D0000503
     110       0    -511       1       0                               0D0000504
     110     253       0       0       0       0       0       000010000D0000505
     110       0    -511       1       0                               0D0000506
     314     254       0       0       0       0       0       000000200D0000507
     314       0       0       1       0                               0D0000508
     314     255       0       0       0       0       0       000000200D0000509
     314       0       0       1       0                               0D0000510
     314     256       0       0       0       0       0       000000200D0000511
     314       0       0       1       0                               0D0000512
     406     257       0       0       0       0       0       000000000D0000513
     406       0       0       1      15                               0D0000514
402,4,3,101,199,297,0,1,513;                                     0000001P0000001
402,6,5,21,37,53,69,85;                                          0000003P0000002
144,7,1,0,9;                                                     0000005P0000003
108,0.,-1.,0.,0.703,0,-0.343,-0.703,2.1E-02,0.;                  0000007P0000004
142,0,7,0,11,2;                                                  0000009P0000005
102,4,13,15,17,19;                                               0000011P0000006
110,-0.343,-0.703,2.1E-02,0.343,-0.703,2.1E-02;                  0000013P0000007
110,0.343,-0.703,2.1E-02,0.343,-0.703,1.503;                     0000015P0000008
110,0.343,-0.703,1.503,-0.343,-0.703,1.503;                      0000017P0000009
110,-0.343,-0.703,1.503,-0.343,-0.703,2.1E-02;                   0000019P0000010
144,23,1,0,25;                                                   0000021P0000011
108,1.,0.,0.,0.343,0,0.343,-0.703,2.1E-02,0.;                    0000023P0000012
142,0,23,0,27,2;                                                 0000025P0000013
102,4,29,31,33,35;                                               0000027P0000014
110,0.343,-0.703,2.1E-02,0.343,0.703,2.1E-02;                    0000029P0000015
110,0.343,0.703,2.1E-02,0.343,0.703,1.503;                       0000031P0000016
110,0.343,0.703,1.503,0.343,-0.703,1.503;                        0000033P0000017
110,0.343,-0.703,1.503,0.343,-0.703,2.1E-02;                     0000035P0000018
144,39,1,0,41;                                                   0000037P0000019
108,0.,1.,0.,0.703,0,0.343,0.703,2.1E-02,0.;                     0000039P0000020
142,0,39,0,43,2;                                                 0000041P0000021
102,4,45,47,49,51;                                               0000043P0000022
110,0.343,0.703,2.1E-02,-0.343,0.703,2.1E-02;                    0000045P0000023
110,-0.343,0.703,2.1E-02,-0.343,0.703,1.503;                     0000047P0000024
110,-0.343,0.703,1.503,0.343,0.703,1.503;                        0000049P0000025
110,0.343,0.703,1.503,0.343,0.703,2.1E-02;                       0000051P0000026
144,55,1,0,57;                                                   0000053P0000027
108,-1.,0.,0.,0.343,0,-0.343,0.703,2.1E-02,0.;                   0000055P0000028
142,0,55,0,59,2;                                                 0000057P0000029
102,4,61,63,65,67;                                               0000059P0000030
110,-0.343,0.703,2.1E-02,-0.343,-0.703,2.1E-02;                  0000061P0000031
110,-0.343,-0.703,2.1E-02,-0.343,-0.703,1.503;                   0000063P0000032
110,-0.343,-0.703,1.503,-0.343,0.703,1.503;                      0000065P0000033
110,-0.343,0.703,1.503,-0.343,0.703,2.1E-02;                     0000067P0000034
144,71,1,0,73;                                                   0000069P0000035
108,0.,0.,-1.,-2.1E-02,0,-0.343,0.703,2.1E-02,0.;                0000071P0000036
142,0,71,0,75,2;                                                 0000073P0000037
102,4,77,79,81,83;                                               0000075P0000038
110,-0.343,0.703,2.1E-02,0.343,0.703,2.1E-02;                    0000077P0000039
110,0.343,0.703,2.1E-02,0.343,-0.703,2.1E-02;                    0000079P0000040
110,0.343,-0.703,2.1E-02,-0.343,-0.703,2.1E-02;                  0000081P0000041
110,-0.343,-0.703,2.1E-02,-0.343,0.703,2.1E-02;                  0000083P0000042
144,87,1,0,89;                                                   0000085P0000043
108,0.,0.,1.,1.503,0,-0.343,-0.703,1.503,0.;                     0000087P0000044
142,0,87,0,91,2;                                                 0000089P0000045
102,4,93,95,97,99;                                               0000091P0000046
110,-0.343,-0.703,1.503,0.343,-0.703,1.503;                      0000093P0000047
110,0.343,-0.703,1.503,0.343,0.703,1.503;                        0000095P0000048
110,0.343,0.703,1.503,-0.343,0.703,1.503;                        0000097P0000049
110,-0.343,0.703,1.503,-0.343,-0.703,1.503;                      0000099P0000050
402,6,103,119,135,151,167,183;                                   0000101P0000051
144,105,1,0,107;                                                 0000103P0000052
108,0.,-1.,0.,0.724,0,0.343,-0.724,0.,0.;                        0000105P0000053
142,0,105,0,109,2;                                               0000107P0000054
102,4,111,113,115,117;                                           0000109P0000055
110,0.343,-0.724,0.,1.105,-0.724,0.;                             0000111P0000056
110,1.105,-0.724,0.,1.105,-0.724,1.524;                          0000113P0000057
110,1.105,-0.724,1.524,0.343,-0.724,1.524;                       0000115P0000058
110,0.343,-0.724,1.524,0.343,-0.724,0.;                          0000117P0000059
144,121,1,0,123;                                                 0000119P0000060
108,1.,0.,0.,1.105,0,1.105,-0.724,0.,0.;                         0000121P0000061
142,0,121,0,125,2;                                               0000123P0000062
102,4,127,129,131,133;                                           0000125P0000063
110,1.105,-0.724,0.,1.105,0.724,0.;                              0000127P0000064
110,1.105,0.724,0.,1.105,0.724,1.524;                            0000129P0000065
110,1.105,0.724,1.524,1.105,-0.724,1.524;                        0000131P0000066
110,1.105,-0.724,1.524,1.105,-0.724,0.;                          0000133P0000067
144,137,1,0,139;                                                 0000135P0000068
108,0.,1.,0.,0.724,0,1.105,0.724,0.,0.;                          0000137P0000069
142,0,137,0,141,2;                                               0000139P0000070
102,4,143,145,147,149;                                           0000141P0000071
110,1.105,0.724,0.,0.343,0.724,0.;                               0000143P0000072
110,0.343,0.724,0.,0.343,0.724,1.524;                            0000145P0000073
110,0.343,0.724,1.524,1.105,0.724,1.524;                         0000147P0000074
110,1.105,0.724,1.524,1.105,0.724,0.;                            0000149P0000075
144,153,1,0,155;                                                 0000151P0000076
108,-1.,0.,0.,-0.343,0,0.343,0.724,0.,0.;                        0000153P0000077
142,0,153,0,157,2;                                               0000155P0000078
102,4,159,161,163,165;                                           0000157P0000079
110,0.343,0.724,0.,0.343,-0.724,0.;                              0000159P0000080
110,0.343,-0.724,0.,0.343,-0.724,1.524;                          0000161P0000081
110,0.343,-0.724,1.524,0.343,0.724,1.524;                        0000163P0000082
110,0.343,0.724,1.524,0.343,0.724,0.;                            0000165P0000083
144,169,1,0,171;                                                 0000167P0000084
108,0.,0.,-1.,0.,0,0.343,0.724,0.,0.;                            0000169P0000085
142,0,169,0,173,2;                                               0000171P0000086
102,4,175,177,179,181;                                           0000173P0000087
110,0.343,0.724,0.,1.105,0.724,0.;                               0000175P0000088
110,1.105,0.724,0.,1.105,-0.724,0.;                              0000177P0000089
110,1.105,-0.724,0.,0.343,-0.724,0.;                             0000179P0000090
110,0.343,-0.724,0.,0.343,0.724,0.;                              0000181P0000091
144,185,1,0,187;                                                 0000183P0000092
108,0.,0.,1.,1.524,0,0.343,-0.724,1.524,0.;                      0000185P0000093
142,0,185,0,189,2;                                               0000187P0000094
102,4,191,193,195,197;                                           0000189P0000095
110,0.343,-0.724,1.524,1.105,-0.724,1.524;                       0000191P0000096
110,1.105,-0.724,1.524,1.105,0.724,1.524;                        0000193P0000097
110,1.105,0.724,1.524,0.343,0.724,1.524;                         0000195P0000098
110,0.343,0.724,1.524,0.343,-0.724,1.524;                        0000197P0000099
402,6,201,217,233,249,265,281;                                   0000199P0000100
144,203,1,0,205;                                                 0000201P0000101
108,0.,-1.,0.,0.724,0,-1.105,-0.724,0.,0.;                       0000203P0000102
142,0,203,0,207,2;                                               0000205P0000103
102,4,209,211,213,215;                                           0000207P0000104
110,-1.105,-0.724,0.,-0.343,-0.724,0.;                           0000209P0000105
110,-0.343,-0.724,0.,-0.343,-0.724,1.524;                        0000211P0000106
110,-0.343,-0.724,1.524,-1.105,-0.724,1.524;                     0000213P0000107
110,-1.105,-0.724,1.524,-1.105,-0.724,0.;                        0000215P0000108
144,219,1,0,221;                                                 0000217P0000109
108,1.,0.,0.,-0.343,0,-0.343,-0.724,0.,0.;                       0000219P0000110
142,0,219,0,223,2;                                               0000221P0000111
102,4,225,227,229,231;                                           0000223P0000112
110,-0.343,-0.724,0.,-0.343,0.724,0.;                            0000225P0000113
110,-0.343,0.724,0.,-0.343,0.724,1.524;                          0000227P0000114
110,-0.343,0.724,1.524,-0.343,-0.724,1.524;                      0000229P0000115
110,-0.343,-0.724,1.524,-0.343,-0.724,0.;                        0000231P0000116
144,235,1,0,237;                                                 0000233P0000117
108,0.,1.,0.,0.724,0,-0.343,0.724,0.,0.;                         0000235P0000118
142,0,235,0,239,2;                                               0000237P0000119
102,4,241,243,245,247;                                           0000239P0000120
110,-0.343,0.724,0.,-1.105,0.724,0.;                             0000241P0000121
110,-1.105,0.724,0.,-1.105,0.724,1.524;                          0000243P0000122
110,-1.105,0.724,1.524,-0.343,0.724,1.524;                       0000245P0000123
110,-0.343,0.724,1.524,-0.343,0.724,0.;                          0000247P0000124
144,251,1,0,253;                                                 0000249P0000125
108,-1.,0.,0.,1.105,0,-1.105,0.724,0.,0.;                        0000251P0000126
142,0,251,0,255,2;                                               0000253P0000127
102,4,257,259,261,263;                                           0000255P0000128
110,-1.105,0.724,0.,-1.105,-0.724,0.;                            0000257P0000129
110,-1.105,-0.724,0.,-1.105,-0.724,1.524;                        0000259P0000130
110,-1.105,-0.724,1.524,-1.105,0.724,1.524;                      0000261P0000131
110,-1.105,0.724,1.524,-1.105,0.724,0.;                          0000263P0000132
144,267,1,0,269;                                                 0000265P0000133
108,0.,0.,-1.,0.,0,-1.105,0.724,0.,0.;                           0000267P0000134
142,0,267,0,271,2;                                               0000269P0000135
102,4,273,275,277,279;                                           0000271P0000136
110,-1.105,0.724,0.,-0.343,0.724,0.;                             0000273P0000137
110,-0.343,0.724,0.,-0.343,-0.724,0.;                            0000275P0000138
110,-0.343,-0.724,0.,-1.105,-0.724,0.;                           0000277P0000139
110,-1.105,-0.724,0.,-1.105,0.724,0.;                            0000279P0000140
144,283,1,0,285;                                                 0000281P0000141
108,0.,0.,1.,1.524,0,-1.105,-0.724,1.524,0.;                     0000283P0000142
142,0,283,0,287,2;                                               0000285P0000143
102,4,289,291,293,295;                                           0000287P0000144
110,-1.105,-0.724,1.524,-0.343,-0.724,1.524;                     0000289P0000145
110,-0.343,-0.724,1.524,-0.343,0.724,1.524;                      0000291P0000146
110,-0.343,0.724,1.524,-1.105,0.724,1.524;                       0000293P0000147
110,-1.105,0.724,1.524,-1.105,-0.724,1.524;                      0000295P0000148
402,12,299,315,331,347,363,383,403,423,443,459,475,491;          0000297P0000149
144,301,1,0,303;                                                 0000299P0000150
108,0.,0.,-1.,-1.8E-02,0,-0.274,0.706,1.8E-02,0.;                0000301P0000151
142,0,301,0,305,2;                                               0000303P0000152
102,4,307,309,311,313;                                           0000305P0000153
110,-0.274,0.706,1.8E-02,-0.206,0.706,1.8E-02;                   0000307P0000154
110,-0.206,0.706,1.8E-02,-0.206,-0.706,1.8E-02;                  0000309P0000155
110,-0.206,-0.706,1.8E-02,-0.274,-0.706,1.8E-02;                 0000311P0000156
110,-0.274,-0.706,1.8E-02,-0.274,0.706,1.8E-02;                  0000313P0000157
144,317,1,0,319;                                                 0000315P0000158
108,0.,-1.,0.,0.706,0,-0.274,-0.706,1.8E-02,0.;                  0000317P0000159
142,0,317,0,321,2;                                               0000319P0000160
102,4,323,325,327,329;                                           0000321P0000161
110,-0.274,-0.706,1.8E-02,-0.206,-0.706,1.8E-02;                 0000323P0000162
110,-0.206,-0.706,1.8E-02,-0.206,-0.706,1.506;                   0000325P0000163
110,-0.206,-0.706,1.506,-0.274,-0.706,1.506;                     0000327P0000164
110,-0.274,-0.706,1.506,-0.274,-0.706,1.8E-02;                   0000329P0000165
144,333,1,0,335;                                                 0000331P0000166
108,0.,1.,0.,0.706,0,-0.206,0.706,1.8E-02,0.;                    0000333P0000167
142,0,333,0,337,2;                                               0000335P0000168
102,4,339,341,343,345;                                           0000337P0000169
110,-0.206,0.706,1.8E-02,-0.274,0.706,1.8E-02;                   0000339P0000170
110,-0.274,0.706,1.8E-02,-0.274,0.706,1.506;                     0000341P0000171
110,-0.274,0.706,1.506,-0.206,0.706,1.506;                       0000343P0000172
110,-0.206,0.706,1.506,-0.206,0.706,1.8E-02;                     0000345P0000173
144,349,1,0,351;                                                 0000347P0000174
108,0.,0.,1.,1.506,0,-0.274,-0.706,1.506,0.;                     0000349P0000175
142,0,349,0,353,2;                                               0000351P0000176
102,4,355,357,359,361;                                           0000353P0000177
110,-0.274,-0.706,1.506,-0.206,-0.706,1.506;                     0000355P0000178
110,-0.206,-0.706,1.506,-0.206,0.706,1.506;                      0000357P0000179
110,-0.206,0.706,1.506,-0.274,0.706,1.506;                       0000359P0000180
110,-0.274,0.706,1.506,-0.274,-0.706,1.506;                      0000361P0000181
144,365,1,0,367;                                                 0000363P0000182
108,1.,0.,0.,-0.206,0,-0.206,-0.706,1.8E-02,0.;                  0000365P0000183
142,0,365,0,369,2;                                               0000367P0000184
102,6,371,373,375,377,379,381;                                   0000369P0000185
110,-0.206,-0.706,1.8E-02,-0.206,0.706,1.8E-02;                  0000371P0000186
110,-0.206,0.706,1.8E-02,-0.206,0.706,1.506;                     0000373P0000187
110,-0.206,0.706,1.506,-0.206,0.703,1.503;                       0000375P0000188
110,-0.206,0.703,1.503,-0.206,0.703,2.1E-02;                     0000377P0000189
110,-0.206,0.703,2.1E-02,-0.206,-0.703,2.1E-02;                  0000379P0000190
110,-0.206,-0.703,2.1E-02,-0.206,-0.706,1.8E-02;                 0000381P0000191
144,385,1,0,387;                                                 0000383P0000192
108,1.,0.,0.,-0.206,0,-0.206,-0.706,1.8E-02,0.;                  0000385P0000193
142,0,385,0,389,2;                                               0000387P0000194
102,6,391,393,395,397,399,401;                                   0000389P0000195
110,-0.206,-0.706,1.8E-02,-0.206,-0.703,2.1E-02;                 0000391P0000196
110,-0.206,-0.703,2.1E-02,-0.206,-0.703,1.503;                   0000393P0000197
110,-0.206,-0.703,1.503,-0.206,0.703,1.503;                      0000395P0000198
110,-0.206,0.703,1.503,-0.206,0.706,1.506;                       0000397P0000199
110,-0.206,0.706,1.506,-0.206,-0.706,1.506;                      0000399P0000200
110,-0.206,-0.706,1.506,-0.206,-0.706,1.8E-02;                   0000401P0000201
144,405,1,0,407;                                                 0000403P0000202
108,-1.,0.,0.,0.274,0,-0.274,0.706,1.8E-02,0.;                   0000405P0000203
142,0,405,0,409,2;                                               0000407P0000204
102,6,411,413,415,417,419,421;                                   0000409P0000205
110,-0.274,0.706,1.8E-02,-0.274,-0.706,1.8E-02;                  0000411P0000206
110,-0.274,-0.706,1.8E-02,-0.274,-0.703,2.1E-02;                 0000413P0000207
110,-0.274,-0.703,2.1E-02,-0.274,0.703,2.1E-02;                  0000415P0000208
110,-0.274,0.703,2.1E-02,-0.274,0.703,1.503;                     0000417P0000209
110,-0.274,0.703,1.503,-0.274,0.706,1.506;                       0000419P0000210
110,-0.274,0.706,1.506,-0.274,0.706,1.8E-02;                     0000421P0000211
144,425,1,0,427;                                                 0000423P0000212
108,-1.,0.,0.,0.274,0,-0.274,-0.703,2.1E-02,0.;                  0000425P0000213
142,0,425,0,429,2;                                               0000427P0000214
102,6,431,433,435,437,439,441;                                   0000429P0000215
110,-0.274,-0.703,2.1E-02,-0.274,-0.706,1.8E-02;                 0000431P0000216
110,-0.274,-0.706,1.8E-02,-0.274,-0.706,1.506;                   0000433P0000217
110,-0.274,-0.706,1.506,-0.274,0.706,1.506;                      0000435P0000218
110,-0.274,0.706,1.506,-0.274,0.703,1.503;                       0000437P0000219
110,-0.274,0.703,1.503,-0.274,-0.703,1.503;                      0000439P0000220
110,-0.274,-0.703,1.503,-0.274,-0.703,2.1E-02;                   0000441P0000221
144,445,1,0,447;                                                 0000443P0000222
108,0.,-1.,0.,-0.703,0,-0.274,0.703,2.1E-02,0.;                  0000445P0000223
142,0,445,0,449,2;                                               0000447P0000224
102,4,451,453,455,457;                                           0000449P0000225
110,-0.274,0.703,2.1E-02,-0.206,0.703,2.1E-02;                   0000451P0000226
110,-0.206,0.703,2.1E-02,-0.206,0.703,1.503;                     0000453P0000227
110,-0.206,0.703,1.503,-0.274,0.703,1.503;                       0000455P0000228
110,-0.274,0.703,1.503,-0.274,0.703,2.1E-02;                     0000457P0000229
144,461,1,0,463;                                                 0000459P0000230
108,0.,1.,0.,-0.703,0,-0.206,-0.703,2.1E-02,0.;                  0000461P0000231
142,0,461,0,465,2;                                               0000463P0000232
102,4,467,469,471,473;                                           0000465P0000233
110,-0.206,-0.703,2.1E-02,-0.274,-0.703,2.1E-02;                 0000467P0000234
110,-0.274,-0.703,2.1E-02,-0.274,-0.703,1.503;                   0000469P0000235
110,-0.274,-0.703,1.503,-0.206,-0.703,1.503;                     0000471P0000236
110,-0.206,-0.703,1.503,-0.206,-0.703,2.1E-02;                   0000473P0000237
144,477,1,0,479;                                                 0000475P0000238
108,0.,0.,1.,2.1E-02,0,-0.274,-0.703,2.1E-02,0.;                 0000477P0000239
142,0,477,0,481,2;                                               0000479P0000240
102,4,483,485,487,489;                                           0000481P0000241
110,-0.274,-0.703,2.1E-02,-0.206,-0.703,2.1E-02;                 0000483P0000242
110,-0.206,-0.703,2.1E-02,-0.206,0.703,2.1E-02;                  0000485P0000243
110,-0.206,0.703,2.1E-02,-0.274,0.703,2.1E-02;                   0000487P0000244
110,-0.274,0.703,2.1E-02,-0.274,-0.703,2.1E-02;                  0000489P0000245
144,493,1,0,495;                                                 0000491P0000246
108,0.,0.,-1.,-1.503,0,-0.206,-0.703,1.503,0.;                   0000493P0000247
142,0,493,0,497,2;                                               0000495P0000248
102,4,499,501,503,505;                                           0000497P0000249
110,-0.206,-0.703,1.503,-0.274,-0.703,1.503;                     0000499P0000250
110,-0.274,-0.703,1.503,-0.274,0.703,1.503;                      0000501P0000251
110,-0.274,0.703,1.503,-0.206,0.703,1.503;                       0000503P0000252
110,-0.206,0.703,1.503,-0.206,-0.703,1.503;                      0000505P0000253
314,45.90000013,34.500000578,17.599999733,4HTAN4;                0000507P0000254
314,72.499999117,72.499999117,72.499999117,6HGRAY72;             0000509P0000255
314,97.999999559,70.599999383,17.599999733,10HGOLDENROD1;        0000511P0000256
406,1,4Hpart;                                                    0000513P0000257
S      1G      4D    514P    257                                        T0000001
