                                                                        S0000001
,,31HOpen CASCADE IGES processor 7.7,13HFilename.iges,                  G0000001
16HOpen CASCADE 7.7,31HOpen CASCADE IGES processor 7.7,32,308,15,308,15,G0000002
,1.,2,2HMM,1,0.01,15H20260406.134122,1.33333E-05,0.749,6HSYSTEM,,11,0,  G0000003
15H20260406.134122,;                                                    G0000004
     402       1       0       0       0       0       0       000000000D0000001
     402       0       0       1       1                    part        D0000002
     144       2       0       0       0       0       0       000020000D0000003
     144       0    -231       1       0                               0D0000004
     120       3       0       0       0       0       7       000010000D0000005
     120       0       0       1       0                               0D0000006
     124       4       0       0       0       0       0       000000000D0000007
     124       0       0       1       0                               0D0000008
     110       5       0       0       0       0       0       000010000D0000009
     110       0       0       1       0                               0D0000010
     100       6       0       0       0       0      13       000010000D0000011
     100       0       0       1       0                               0D0000012
     124       7       0       0       0       0       0       000000000D0000013
     124       0       0       1       0                               0D0000014
     144       8       0       0       0       0       0       000020000D0000015
     144       0    -231       1       0                               0D0000016
     120       9       0       0       0       0      19       000010000D0000017
     120       0       0       1       0                               0D0000018
     124      10       0       0       0       0       0       000000000D0000019
     124       0       0       1       0                               0D0000020
     110      11       0       0       0       0       0       000010000D0000021
     110       0       0       1       0                               0D0000022
     100      12       0       0       0       0      25       000010000D0000023
     100       0       0       1       0                               0D0000024
     124      13       0       0       0       0       0       000000000D0000025
     124       0       0       1       0                               0D0000026
     144      14       0       0       0       0       0       000020000D0000027
     144       0    -231       1       0                               0D0000028
     120      15       0       0       0       0      31       000010000D0000029
     120       0       0       1       0                               0D0000030
     124      16       0       0       0       0       0       000000000D0000031
     124       0       0       1       0                               0D0000032
     110      17       0       0       0       0       0       000010000D0000033
     110       0       0       1       0                               0D0000034
     100      18       0       0       0       0      37       000010000D0000035
     100       0       0       1       0                               0D0000036
     124      19       0       0       0       0       0       000000000D0000037
     124       0       0       1       0                               0D0000038
     144      20       0       0       0       0       0       000020000D0000039
     144       0    -231       1       0                               0D0000040
     120      21       0       0       0       0      43       000010000D0000041
     120       0       0       1       0                               0D0000042
     124      22       0       0       0       0       0       000000000D0000043
     124       0       0       1       0                               0D0000044
     110      23       0       0       0       0       0       000010000D0000045
     110       0       0       1       0                               0D0000046
     100      24       0       0       0       0      49       000010000D0000047
     100       0       0       1       0                               0D0000048
     124      25       0       0       0       0       0       000000000D0000049
     124       0       0       1       0                               0D0000050
     144      26       0       0       0       0       0       000020000D0000051
     144       0    -231       1       0                               0D0000052
     120      27       0       0       0       0      55       000010000D0000053
     120       0       0       1       0                               0D0000054
     124      28       0       0       0       0       0       000000000D0000055
     124       0       0       1       0                               0D0000056
     110      29       0       0       0       0       0       000010000D0000057
     110       0       0       1       0                               0D0000058
     100      30       0       0       0       0      61       000010000D0000059
     100       0       0       1       0                               0D0000060
     124      31       0       0       0       0       0       000000000D0000061
     124       0       0       1       0                               0D0000062
     144      32       0       0       0       0       0       000020000D0000063
     144       0    -231       1       0                               0D0000064
     120      33       0       0       0       0      67       000010000D0000065
     120       0       0       1       0                               0D0000066
     124      34       0       0       0       0       0       000000000D0000067
     124       0       0       1       0                               0D0000068
     110      35       0       0       0       0       0       000010000D0000069
     110       0       0       1       0                               0D0000070
     100      36       0       0       0       0      73       000010000D0000071
     100       0       0       1       0                               0D0000072
     124      37       0       0       0       0       0       000000000D0000073
     124       0       0       1       0                               0D0000074
     402      38       0       0       0       0       0       000020000D0000075
     402       0       0       1       1                               0D0000076
     144      39       0       0       0       0       0       000020000D0000077
     144       0    -233       1       0                               0D0000078
     120      40       0       0       0       0      81       000010000D0000079
     120       0       0       1       0                               0D0000080
     124      41       0       0       0       0       0       000000000D0000081
     124       0       0       1       0                               0D0000082
     110      42       0       0       0       0       0       000010000D0000083
     110       0       0       1       0                               0D0000084
     110      43       0       0       0       0       0       000010000D0000085
     110       0       0       1       0                               0D0000086
     142      44       0       0       0       0       0       000010500D0000087
     142       0       0       1       0                               0D0000088
     102      45       0       0       0       0       0       000010000D0000089
     102       0       0       1       0                               0D0000090
     110      46       0       0       0       0       0       000010000D0000091
     110       0       0       1       0                               0D0000092
     110      47       0       0       0       0       0       000010000D0000093
     110       0       0       1       0                               0D0000094
     110      48       0       0       0       0       0       000010000D0000095
     110       0       0       2       0                               0D0000096
     110      50       0       0       0       0       0       000010000D0000097
     110       0    -233       1       0                               0D0000098
     102      51       0       0       0       0       0       000010000D0000099
     102       0       0       1       0                               0D0000100
     100      52       0       0       0       0     103       000010000D0000101
     100       0       0       1       0                               0D0000102
     124      53       0       0       0       0       0       000000000D0000103
     124       0       0       1       0                               0D0000104
     126      54       0       0       0       0       0       000010000D0000105
     126       0       0       2       0                               0D0000106
     100      56       0       0       0       0     109       000010000D0000107
     100       0       0       1       0                               0D0000108
     124      57       0       0       0       0       0       000000000D0000109
     124       0       0       1       0                               0D0000110
     126      58       0       0       0       0       0       000010000D0000111
     126       0       0       2       0                               0D0000112
     144      60       0       0       0       0       0       000020000D0000113
     144       0    -233       1       0                               0D0000114
     108      61       0       0       0       0       0       000010000D0000115
     108       0       0       1       0                               0D0000116
     142      62       0       0       0       0       0       000010500D0000117
     142       0       0       1       0                               0D0000118
     100      63       0       0       0       0     121       000010000D0000119
     100       0    -233       1       0                               0D0000120
     124      64       0       0       0       0       0       000000000D0000121
     124       0       0       1       0                               0D0000122
     144      65       0       0       0       0       0       000020000D0000123
     144       0    -233       1       0                               0D0000124
     108      66       0       0       0       0       0       000010000D0000125
     108       0       0       1       0                               0D0000126
     142      67       0       0       0       0       0       000010500D0000127
     142       0       0       1       0                               0D0000128
     100      68       0       0       0       0     131       000010000D0000129
     100       0    -233       1       0                               0D0000130
     124      69       0       0       0       0       0       000000000D0000131
     124       0       0       1       0                               0D0000132
     402      70       0       0       0       0       0       000020000D0000133
     402       0       0       1       1                               0D0000134
     144      71       0       0       0       0       0       000020000D0000135
     144       0    -235       1       0                               0D0000136
     108      72       0       0       0       0       0       000010000D0000137
     108       0       0       1       0                               0D0000138
     142      73       0       0       0       0       0       000010500D0000139
     142       0       0       1       0                               0D0000140
     102      74       0       0       0       0       0       000010000D0000141
     102       0       0       1       0                               0D0000142
     110      75       0       0       0       0       0       000010000D0000143
     110       0       0       1       0                               0D0000144
     110      76       0       0       0       0       0       000010000D0000145
     110       0       0       1       0                               0D0000146
     110      77       0       0       0       0       0       000010000D0000147
     110       0       0       1       0                               0D0000148
     110      78       0       0       0       0       0       000010000D0000149
     110       0       0       1       0                               0D0000150
     144      79       0       0       0       0       0       000020000D0000151
     144       0    -235       1       0                               0D0000152
     108      80       0       0       0       0       0       000010000D0000153
     108       0       0       1       0                               0D0000154
     142      81       0       0       0       0       0       000010500D0000155
     142       0       0       1       0                               0D0000156
     102      82       0       0       0       0       0       000010000D0000157
     102       0       0       1       0                               0D0000158
     110      83       0       0       0       0       0       000010000D0000159
     110       0       0       1       0                               0D0000160
     110      84       0       0       0       0       0       000010000D0000161
     110       0       0       1       0                               0D0000162
     110      85       0       0       0       0       0       000010000D0000163
     110       0       0       1       0                               0D0000164
     110      86       0       0       0       0       0       000010000D0000165
     110       0    -235       1       0                               0D0000166
     144      87       0       0       0       0       0       000020000D0000167
     144       0    -235       1       0                               0D0000168
     108      88       0       0       0       0       0       000010000D0000169
     108       0       0       1       0                               0D0000170
     142      89       0       0       0       0       0       000010500D0000171
     142       0       0       1       0                               0D0000172
     102      90       0       0       0       0       0       000010000D0000173
     102       0       0       1       0                               0D0000174
     110      91       0       0       0       0       0       000010000D0000175
     110       0       0       1       0                               0D0000176
     110      92       0       0       0       0       0       000010000D0000177
     110       0       0       1       0                               0D0000178
     110      93       0       0       0       0       0       000010000D0000179
     110       0       0       1       0                               0D0000180
     110      94       0       0       0       0       0       000010000D0000181
     110       0    -235       1       0                               0D0000182
     144      95       0       0       0       0       0       000020000D0000183
     144       0    -235       1       0                               0D0000184
     108      96       0       0       0       0       0       000010000D0000185
     108       0       0       1       0                               0D0000186
     142      97       0       0       0       0       0       000010500D0000187
     142       0       0       1       0                               0D0000188
     102      98       0       0       0       0       0       000010000D0000189
     102       0       0       1       0                               0D0000190
     110      99       0       0       0       0       0       000010000D0000191
     110       0       0       1       0                               0D0000192
     110     100       0       0       0       0       0       000010000D0000193
     110       0    -235       1       0                               0D0000194
     110     101       0       0       0       0       0       000010000D0000195
     110       0       0       1       0                               0D0000196
     110     102       0       0       0       0       0       000010000D0000197
     110       0    -235       1       0                               0D0000198
     144     103       0       0       0       0       0       000020000D0000199
     144       0    -235       1       0                               0D0000200
     108     104       0       0       0       0       0       000010000D0000201
     108       0       0       1       0                               0D0000202
     142     105       0       0       0       0       0       000010500D0000203
     142       0       0       1       0                               0D0000204
     102     106       0       0       0       0       0       000010000D0000205
     102       0       0       1       0                               0D0000206
     110     107       0       0       0       0       0       000010000D0000207
     110       0    -235       1       0                               0D0000208
     110     108       0       0       0       0       0       000010000D0000209
     110       0    -235       1       0                               0D0000210
     110     109       0       0       0       0       0       000010000D0000211
     110       0    -235       1       0                               0D0000212
     110     110       0       0       0       0       0       000010000D0000213
     110       0    -235       1       0                               0D0000214
     144     111       0       0       0       0       0       000020000D0000215
     144       0    -235       1       0                               0D0000216
     108     112       0       0       0       0       0       000010000D0000217
     108       0       0       1       0                               0D0000218
     142     113       0       0       0       0       0       000010500D0000219
     142       0       0       1       0                               0D0000220
     102     114       0       0       0       0       0       000010000D0000221
     102       0       0       1       0                               0D0000222
     110     115       0       0       0       0       0       000010000D0000223
     110       0    -235       1       0                               0D0000224
     110     116       0       0       0       0       0       000010000D0000225
     110       0    -235       1       0                               0D0000226
     110     117       0       0       0       0       0       000010000D0000227
     110       0    -235       1       0                               0D0000228
     110     118       0       0       0       0       0       000010000D0000229
     110       0    -235       1       0                               0D0000230
     314     119       0       0       0       0       0       000000200D0000231
     314       0       0       1       0                               0D0000232
     314     120       0       0       0       0       0       000000200D0000233
     314       0       0       1       0                               0D0000234
     314     121       0       0       0       0       0       000000200D0000235
     314       0       0       1       0                               0D0000236
     406     122       0       0       0       0       0       000000000D0000237
     406       0       0       1      15                               0D0000238
402,8,3,15,27,39,51,63,75,133,0,1,237;                           0000001P0000001
144,5,0,0,0;                                                     0000003P0000002
120,9,11,0.,6.283185307;                                         0000005P0000003
124,-1.,0.,0.,-0.2,0.,1.,0.,0.4,0.,0.,-1.,0.127;                 0000007P0000004
110,0.,0.,1.,0.,0.,0.;                                           0000009P0000005
100,0.,0.,0.,7.776507175E-18,-0.127,7.776507175E-18,0.127;       0000011P0000006
124,1.,0.,0.,0.,0.,0.,-1.,0.,0.,1.,-0.,0.;                       0000013P0000007
144,17,0,0,0;                                                    0000015P0000008
120,21,23,0.,6.283185307;                                        0000017P0000009
124,-1.,0.,0.,0.2,0.,1.,0.,0.4,0.,0.,-1.,0.127;                  0000019P0000010
110,0.,0.,1.,0.,0.,0.;                                           0000021P0000011
100,0.,0.,0.,7.776507175E-18,-0.127,7.776507175E-18,0.127;       0000023P0000012
124,1.,0.,0.,0.,0.,0.,-1.,0.,0.,1.,-0.,0.;                       0000025P0000013
144,29,0,0,0;                                                    0000027P0000014
120,33,35,0.,6.283185307;                                        0000029P0000015
124,-1.,0.,0.,-0.2,0.,1.,0.,0.,0.,0.,-1.,0.127;                  0000031P0000016
110,0.,0.,1.,0.,0.,0.;                                           0000033P0000017
100,0.,0.,0.,7.776507175E-18,-0.127,7.776507175E-18,0.127;       0000035P0000018
124,1.,0.,0.,0.,0.,0.,-1.,0.,0.,1.,-0.,0.;                       0000037P0000019
144,41,0,0,0;                                                    0000039P0000020
120,45,47,0.,6.283185307;                                        0000041P0000021
124,-1.,0.,0.,0.2,0.,1.,0.,0.,0.,0.,-1.,0.127;                   0000043P0000022
110,0.,0.,1.,0.,0.,0.;                                           0000045P0000023
100,0.,0.,0.,7.776507175E-18,-0.127,7.776507175E-18,0.127;       0000047P0000024
124,1.,0.,0.,0.,0.,0.,-1.,0.,0.,1.,-0.,0.;                       0000049P0000025
144,53,0,0,0;                                                    0000051P0000026
120,57,59,0.,6.283185307;                                        0000053P0000027
124,-1.,0.,0.,-0.2,0.,1.,0.,-0.4,0.,0.,-1.,0.127;                0000055P0000028
110,0.,0.,1.,0.,0.,0.;                                           0000057P0000029
100,0.,0.,0.,7.776507175E-18,-0.127,7.776507175E-18,0.127;       0000059P0000030
124,1.,0.,0.,0.,0.,0.,-1.,0.,0.,1.,-0.,0.;                       0000061P0000031
144,65,0,0,0;                                                    0000063P0000032
120,69,71,0.,6.283185307;                                        0000065P0000033
124,-1.,0.,0.,0.2,0.,1.,0.,-0.4,0.,0.,-1.,0.127;                 0000067P0000034
110,0.,0.,1.,0.,0.,0.;                                           0000069P0000035
100,0.,0.,0.,7.776507175E-18,-0.127,7.776507175E-18,0.127;       0000071P0000036
124,1.,0.,0.,0.,0.,0.,-1.,0.,0.,1.,-0.,0.;                       0000073P0000037
402,3,77,113,123;                                                0000075P0000038
144,79,1,0,87;                                                   0000077P0000039
120,83,85,-3.141592654,3.141592654;                              0000079P0000040
124,1.,0.,0.,-0.396,0.,1.,0.,0.65,0.,0.,1.,0.508;                0000081P0000041
110,0.,0.,1.,0.,0.,0.;                                           0000083P0000042
110,2.4765E-02,0.,0.,2.4765E-02,0.,3.E-03;                       0000085P0000043
142,0,79,89,99,3;                                                0000087P0000044
102,4,91,93,95,97;                                               0000089P0000045
110,1.,-3.141592654,0.,1.,3.141592654,0.;                        0000091P0000046
110,1.,3.141592654,0.,-2.325245665E-13,3.141592654,0.;           0000093P0000047
110,-2.325245665E-13,3.141592654,0.,-6.975736996E-13,            0000095P0000048
-3.141592654,0.;                                                 0000095P0000049
110,-6.975736996E-13,-3.141592654,0.,1.,-3.141592654,0.;         0000097P0000050
102,4,101,105,107,111;                                           0000099P0000051
100,0.,0.,0.,-2.4765E-02,0.,-2.4765E-02,0.;                      0000101P0000052
124,1.,0.,0.,-0.396,0.,-1.,0.,0.65,0.,0.,-1.,0.511;              0000103P0000053
126,1,1,1,0,1,0,0.,0.,3.E-03,3.E-03,1.,1.,-0.420765,0.65,0.511,  0000105P0000054
-0.420765,0.65,0.508,0.,3.E-03,1.,0.,-0.;                        0000105P0000055
100,0.,0.,0.,-2.4765E-02,0.,-2.4765E-02,0.;                      0000107P0000056
124,1.,0.,-0.,-0.396,0.,1.,0.,0.65,0.,0.,1.,0.508;               0000109P0000057
126,1,1,1,0,1,0,0.,0.,3.E-03,3.E-03,1.,1.,-0.420765,0.65,0.508,  0000111P0000058
-0.420765,0.65,0.511,0.,3.E-03,-1.,0.,-0.;                       0000111P0000059
144,115,1,0,117;                                                 0000113P0000060
108,-0.,-0.,-1.,-0.508,0,-0.396,0.65,0.508,0.;                   0000115P0000061
142,0,115,0,119,2;                                               0000117P0000062
100,0.,0.,0.,-2.4765E-02,0.,-2.4765E-02,0.;                      0000119P0000063
124,1.,0.,0.,-0.396,0.,-1.,0.,0.65,0.,0.,-1.,0.508;              0000121P0000064
144,125,1,0,127;                                                 0000123P0000065
108,0.,0.,1.,0.511,0,-0.396,0.65,0.511,0.;                       0000125P0000066
142,0,125,0,129,2;                                               0000127P0000067
100,0.,0.,0.,-2.4765E-02,0.,-2.4765E-02,0.;                      0000129P0000068
124,1.,0.,0.,-0.396,0.,1.,0.,0.65,0.,0.,1.,0.511;                0000131P0000069
402,6,135,151,167,183,199,215;                                   0000133P0000070
144,137,1,0,139;                                                 0000135P0000071
108,0.,-1.,0.,0.749,0,-0.495,-0.749,0.253,0.;                    0000137P0000072
142,0,137,0,141,2;                                               0000139P0000073
102,4,143,145,147,149;                                           0000141P0000074
110,-0.495,-0.749,0.253,0.495,-0.749,0.253;                      0000143P0000075
110,0.495,-0.749,0.253,0.495,-0.749,0.508;                       0000145P0000076
110,0.495,-0.749,0.508,-0.495,-0.749,0.508;                      0000147P0000077
110,-0.495,-0.749,0.508,-0.495,-0.749,0.253;                     0000149P0000078
144,153,1,0,155;                                                 0000151P0000079
108,1.,0.,0.,0.495,0,0.495,-0.749,0.253,0.;                      0000153P0000080
142,0,153,0,157,2;                                               0000155P0000081
102,4,159,161,163,165;                                           0000157P0000082
110,0.495,-0.749,0.253,0.495,0.749,0.253;                        0000159P0000083
110,0.495,0.749,0.253,0.495,0.749,0.508;                         0000161P0000084
110,0.495,0.749,0.508,0.495,-0.749,0.508;                        0000163P0000085
110,0.495,-0.749,0.508,0.495,-0.749,0.253;                       0000165P0000086
144,169,1,0,171;                                                 0000167P0000087
108,0.,1.,0.,0.749,0,0.495,0.749,0.253,0.;                       0000169P0000088
142,0,169,0,173,2;                                               0000171P0000089
102,4,175,177,179,181;                                           0000173P0000090
110,0.495,0.749,0.253,-0.495,0.749,0.253;                        0000175P0000091
110,-0.495,0.749,0.253,-0.495,0.749,0.508;                       0000177P0000092
110,-0.495,0.749,0.508,0.495,0.749,0.508;                        0000179P0000093
110,0.495,0.749,0.508,0.495,0.749,0.253;                         0000181P0000094
144,185,1,0,187;                                                 0000183P0000095
108,-1.,0.,0.,0.495,0,-0.495,0.749,0.253,0.;                     0000185P0000096
142,0,185,0,189,2;                                               0000187P0000097
102,4,191,193,195,197;                                           0000189P0000098
110,-0.495,0.749,0.253,-0.495,-0.749,0.253;                      0000191P0000099
110,-0.495,-0.749,0.253,-0.495,-0.749,0.508;                     0000193P0000100
110,-0.495,-0.749,0.508,-0.495,0.749,0.508;                      0000195P0000101
110,-0.495,0.749,0.508,-0.495,0.749,0.253;                       0000197P0000102
144,201,1,0,203;                                                 0000199P0000103
108,0.,0.,-1.,-0.253,0,-0.495,0.749,0.253,0.;                    0000201P0000104
142,0,201,0,205,2;                                               0000203P0000105
102,4,207,209,211,213;                                           0000205P0000106
110,-0.495,0.749,0.253,0.495,0.749,0.253;                        0000207P0000107
110,0.495,0.749,0.253,0.495,-0.749,0.253;                        0000209P0000108
110,0.495,-0.749,0.253,-0.495,-0.749,0.253;                      0000211P0000109
110,-0.495,-0.749,0.253,-0.495,0.749,0.253;                      0000213P0000110
144,217,1,0,219;                                                 0000215P0000111
108,0.,0.,1.,0.508,0,-0.495,-0.749,0.508,0.;                     0000217P0000112
142,0,217,0,221,2;                                               0000219P0000113
102,4,223,225,227,229;                                           0000221P0000114
110,-0.495,-0.749,0.508,0.495,-0.749,0.508;                      0000223P0000115
110,0.495,-0.749,0.508,0.495,0.749,0.508;                        0000225P0000116
110,0.495,0.749,0.508,-0.495,0.749,0.508;                        0000227P0000117
110,-0.495,0.749,0.508,-0.495,-0.749,0.508;                      0000229P0000118
314,72.499999117,72.499999117,72.499999117,6HGRAY72;             0000231P0000119
314,58.799999754,58.799999754,58.799999754,6HGRAY59;             0000233P0000120
314,19.600000521,19.600000521,19.600000521,6HGRAY20;             0000235P0000121
406,1,4Hpart;                                                    0000237P0000122
S      1G      4D    238P    122                                        T0000001
