                                                                        S0000001
,,31HOpen CASCADE IGES processor 7.7,13HFilename.iges,                  G0000001
16HOpen CASCADE 7.7,31HOpen CASCADE IGES processor 7.7,32,308,15,308,15,G0000002
,1.,2,2HMM,1,0.01,15H20260408.235908,1E-07,8.799953,6HSYSTEM,,11,0,     G0000003
15H20260408.235908,;                                                    G0000004
     402       1       0       0       0       0       0       000000000D0000001
     402       0       0       1       1                   ST1.5        D0000002
     402       2       0       0       0       0       0       000020000D0000003
     402       0       0       1       1                 ST1.5:1        D0000004
     144       3       0       0       0       0       0       000020000D0000005
     144       0    -537       1       0                               0D0000006
     108       4       0       0       0       0       0       000010000D0000007
     108       0       0       1       0                               0D0000008
     142       5       0       0       0       0       0       000010500D0000009
     142       0       0       1       0                               0D0000010
     102       6       0       0       0       0       0       000010000D0000011
     102       0       0       1       0                               0D0000012
     110       7       0       0       0       0       0       000010000D0000013
     110       0       0       1       0                               0D0000014
     110       8       0       0       0       0       0       000010000D0000015
     110       0       0       1       0                               0D0000016
     110       9       0       0       0       0       0       000010000D0000017
     110       0       0       1       0                               0D0000018
     110      10       0       0       0       0       0       000010000D0000019
     110       0       0       1       0                               0D0000020
     144      11       0       0       0       0       0       000020000D0000021
     144       0    -537       1       0                               0D0000022
     108      12       0       0       0       0       0       000010000D0000023
     108       0       0       1       0                               0D0000024
     142      13       0       0       0       0       0       000010500D0000025
     142       0       0       1       0                               0D0000026
     102      14       0       0       0       0       0       000010000D0000027
     102       0       0       1       0                               0D0000028
     110      15       0       0       0       0       0       000010000D0000029
     110       0       0       1       0                               0D0000030
     110      16       0       0       0       0       0       000010000D0000031
     110       0       0       1       0                               0D0000032
     110      17       0       0       0       0       0       000010000D0000033
     110       0       0       1       0                               0D0000034
     110      18       0       0       0       0       0       000010000D0000035
     110       0       0       1       0                               0D0000036
     144      19       0       0       0       0       0       000020000D0000037
     144       0    -537       1       0                               0D0000038
     108      20       0       0       0       0       0       000010000D0000039
     108       0       0       1       0                               0D0000040
     142      21       0       0       0       0       0       000010500D0000041
     142       0       0       1       0                               0D0000042
     102      22       0       0       0       0       0       000010000D0000043
     102       0       0       1       0                               0D0000044
     110      23       0       0       0       0       0       000010000D0000045
     110       0       0       1       0                               0D0000046
     110      24       0       0       0       0       0       000010000D0000047
     110       0       0       1       0                               0D0000048
     110      25       0       0       0       0       0       000010000D0000049
     110       0       0       1       0                               0D0000050
     110      26       0       0       0       0       0       000010000D0000051
     110       0       0       1       0                               0D0000052
     144      27       0       0       0       0       0       000020000D0000053
     144       0    -537       1       0                               0D0000054
     108      28       0       0       0       0       0       000010000D0000055
     108       0       0       1       0                               0D0000056
     142      29       0       0       0       0       0       000010500D0000057
     142       0       0       1       0                               0D0000058
     102      30       0       0       0       0       0       000010000D0000059
     102       0       0       1       0                               0D0000060
     110      31       0       0       0       0       0       000010000D0000061
     110       0       0       1       0                               0D0000062
     110      32       0       0       0       0       0       000010000D0000063
     110       0       0       1       0                               0D0000064
     110      33       0       0       0       0       0       000010000D0000065
     110       0       0       1       0                               0D0000066
     110      34       0       0       0       0       0       000010000D0000067
     110       0       0       1       0                               0D0000068
     144      35       0       0       0       0       0       000020000D0000069
     144       0    -537       1       0                               0D0000070
     108      36       0       0       0       0       0       000010000D0000071
     108       0       0       1       0                               0D0000072
     142      37       0       0       0       0       0       000010500D0000073
     142       0       0       1       0                               0D0000074
     102      38       0       0       0       0       0       000010000D0000075
     102       0       0       1       0                               0D0000076
     110      39       0       0       0       0       0       000010000D0000077
     110       0       0       1       0                               0D0000078
     110      40       0       0       0       0       0       000010000D0000079
     110       0       0       1       0                               0D0000080
     110      41       0       0       0       0       0       000010000D0000081
     110       0       0       1       0                               0D0000082
     110      42       0       0       0       0       0       000010000D0000083
     110       0       0       1       0                               0D0000084
     144      43       0       0       0       0       0       000020000D0000085
     144       0    -537       1       0                               0D0000086
     108      44       0       0       0       0       0       000010000D0000087
     108       0       0       1       0                               0D0000088
     142      45       0       0       0       0       0       000010500D0000089
     142       0       0       1       0                               0D0000090
     102      46       0       0       0       0       0       000010000D0000091
     102       0       0       1       0                               0D0000092
     110      47       0       0       0       0       0       000010000D0000093
     110       0       0       1       0                               0D0000094
     110      48       0       0       0       0       0       000010000D0000095
     110       0       0       1       0                               0D0000096
     110      49       0       0       0       0       0       000010000D0000097
     110       0       0       1       0                               0D0000098
     110      50       0       0       0       0       0       000010000D0000099
     110       0       0       1       0                               0D0000100
     144      51       0       0       0       0       0       000020000D0000101
     144       0    -537       1       0                               0D0000102
     108      52       0       0       0       0       0       000010000D0000103
     108       0       0       1       0                               0D0000104
     142      53       0       0       0       0       0       000010500D0000105
     142       0       0       1       0                               0D0000106
     102      54       0       0       0       0       0       000010000D0000107
     102       0       0       1       0                               0D0000108
     110      55       0       0       0       0       0       000010000D0000109
     110       0       0       1       0                               0D0000110
     110      56       0       0       0       0       0       000010000D0000111
     110       0       0       1       0                               0D0000112
     110      57       0       0       0       0       0       000010000D0000113
     110       0       0       1       0                               0D0000114
     110      58       0       0       0       0       0       000010000D0000115
     110       0       0       1       0                               0D0000116
     144      59       0       0       0       0       0       000020000D0000117
     144       0    -537       1       0                               0D0000118
     108      60       0       0       0       0       0       000010000D0000119
     108       0       0       1       0                               0D0000120
     142      61       0       0       0       0       0       000010500D0000121
     142       0       0       1       0                               0D0000122
     102      62       0       0       0       0       0       000010000D0000123
     102       0       0       1       0                               0D0000124
     110      63       0       0       0       0       0       000010000D0000125
     110       0       0       1       0                               0D0000126
     110      64       0       0       0       0       0       000010000D0000127
     110       0       0       1       0                               0D0000128
     110      65       0       0       0       0       0       000010000D0000129
     110       0       0       1       0                               0D0000130
     110      66       0       0       0       0       0       000010000D0000131
     110       0       0       1       0                               0D0000132
     144      67       0       0       0       0       0       000020000D0000133
     144       0    -537       1       0                               0D0000134
     108      68       0       0       0       0       0       000010000D0000135
     108       0       0       1       0                               0D0000136
     142      69       0       0       0       0       0       000010500D0000137
     142       0       0       1       0                               0D0000138
     102      70       0       0       0       0       0       000010000D0000139
     102       0       0       1       0                               0D0000140
     110      71       0       0       0       0       0       000010000D0000141
     110       0       0       1       0                               0D0000142
     110      72       0       0       0       0       0       000010000D0000143
     110       0       0       1       0                               0D0000144
     110      73       0       0       0       0       0       000010000D0000145
     110       0       0       1       0                               0D0000146
     110      74       0       0       0       0       0       000010000D0000147
     110       0       0       1       0                               0D0000148
     110      75       0       0       0       0       0       000010000D0000149
     110       0       0       1       0                               0D0000150
     110      76       0       0       0       0       0       000010000D0000151
     110       0       0       1       0                               0D0000152
     110      77       0       0       0       0       0       000010000D0000153
     110       0       0       1       0                               0D0000154
     110      78       0       0       0       0       0       000010000D0000155
     110       0       0       1       0                               0D0000156
     144      79       0       0       0       0       0       000020000D0000157
     144       0    -537       1       0                               0D0000158
     108      80       0       0       0       0       0       000010000D0000159
     108       0       0       1       0                               0D0000160
     142      81       0       0       0       0       0       000010500D0000161
     142       0       0       1       0                               0D0000162
     102      82       0       0       0       0       0       000010000D0000163
     102       0       0       1       0                               0D0000164
     110      83       0       0       0       0       0       000010000D0000165
     110       0       0       1       0                               0D0000166
     110      84       0       0       0       0       0       000010000D0000167
     110       0       0       1       0                               0D0000168
     110      85       0       0       0       0       0       000010000D0000169
     110       0       0       1       0                               0D0000170
     110      86       0       0       0       0       0       000010000D0000171
     110       0       0       1       0                               0D0000172
     110      87       0       0       0       0       0       000010000D0000173
     110       0       0       1       0                               0D0000174
     110      88       0       0       0       0       0       000010000D0000175
     110       0       0       1       0                               0D0000176
     110      89       0       0       0       0       0       000010000D0000177
     110       0       0       1       0                               0D0000178
     110      90       0       0       0       0       0       000010000D0000179
     110       0       0       1       0                               0D0000180
     144      91       0       0       0       0       0       000020000D0000181
     144       0    -537       1       0                               0D0000182
     108      92       0       0       0       0       0       000010000D0000183
     108       0       0       1       0                               0D0000184
     142      93       0       0       0       0       0       000010500D0000185
     142       0       0       1       0                               0D0000186
     102      94       0       0       0       0       0       000010000D0000187
     102       0       0       1       0                               0D0000188
     110      95       0       0       0       0       0       000010000D0000189
     110       0       0       1       0                               0D0000190
     110      96       0       0       0       0       0       000010000D0000191
     110       0       0       1       0                               0D0000192
     110      97       0       0       0       0       0       000010000D0000193
     110       0       0       1       0                               0D0000194
     110      98       0       0       0       0       0       000010000D0000195
     110       0       0       1       0                               0D0000196
     144      99       0       0       0       0       0       000020000D0000197
     144       0    -537       1       0                               0D0000198
     108     100       0       0       0       0       0       000010000D0000199
     108       0       0       1       0                               0D0000200
     142     101       0       0       0       0       0       000010500D0000201
     142       0       0       1       0                               0D0000202
     102     102       0       0       0       0       0       000010000D0000203
     102       0       0       1       0                               0D0000204
     110     103       0       0       0       0       0       000010000D0000205
     110       0       0       1       0                               0D0000206
     110     104       0       0       0       0       0       000010000D0000207
     110       0       0       1       0                               0D0000208
     110     105       0       0       0       0       0       000010000D0000209
     110       0       0       1       0                               0D0000210
     110     106       0       0       0       0       0       000010000D0000211
     110       0       0       1       0                               0D0000212
     144     107       0       0       0       0       0       000020000D0000213
     144       0    -537       1       0                               0D0000214
     108     108       0       0       0       0       0       000010000D0000215
     108       0       0       1       0                               0D0000216
     142     109       0       0       0       0       0       000010500D0000217
     142       0       0       1       0                               0D0000218
     102     110       0       0       0       0       0       000010000D0000219
     102       0       0       1       0                               0D0000220
     110     111       0       0       0       0       0       000010000D0000221
     110       0       0       1       0                               0D0000222
     110     112       0       0       0       0       0       000010000D0000223
     110       0       0       1       0                               0D0000224
     110     113       0       0       0       0       0       000010000D0000225
     110       0       0       1       0                               0D0000226
     110     114       0       0       0       0       0       000010000D0000227
     110       0       0       1       0                               0D0000228
     110     115       0       0       0       0       0       000010000D0000229
     110       0       0       1       0                               0D0000230
     110     116       0       0       0       0       0       000010000D0000231
     110       0       0       1       0                               0D0000232
     110     117       0       0       0       0       0       000010000D0000233
     110       0       0       1       0                               0D0000234
     110     118       0       0       0       0       0       000010000D0000235
     110       0       0       1       0                               0D0000236
     110     119       0       0       0       0       0       000010000D0000237
     110       0       0       1       0                               0D0000238
     110     120       0       0       0       0       0       000010000D0000239
     110       0       0       1       0                               0D0000240
     110     121       0       0       0       0       0       000010000D0000241
     110       0       0       1       0                               0D0000242
     110     122       0       0       0       0       0       000010000D0000243
     110       0       0       1       0                               0D0000244
     144     123       0       0       0       0       0       000020000D0000245
     144       0    -537       1       0                               0D0000246
     108     124       0       0       0       0       0       000010000D0000247
     108       0       0       1       0                               0D0000248
     142     125       0       0       0       0       0       000010500D0000249
     142       0       0       1       0                               0D0000250
     102     126       0       0       0       0       0       000010000D0000251
     102       0       0       1       0                               0D0000252
     110     127       0       0       0       0       0       000010000D0000253
     110       0       0       1       0                               0D0000254
     110     128       0       0       0       0       0       000010000D0000255
     110       0       0       1       0                               0D0000256
     110     129       0       0       0       0       0       000010000D0000257
     110       0       0       1       0                               0D0000258
     110     130       0       0       0       0       0       000010000D0000259
     110       0       0       1       0                               0D0000260
     402     131       0       0       0       0       0       000020000D0000261
     402       0       0       1       1                   ??1:1        D0000262
     144     132       0       0       0       0       0       000020000D0000263
     144       0    -539       1       0                               0D0000264
     108     133       0       0       0       0       0       000010000D0000265
     108       0       0       2       0                               0D0000266
     142     135       0       0       0       0       0       000010500D0000267
     142       0       0       1       0                               0D0000268
     102     136       0       0       0       0       0       000010000D0000269
     102       0       0       1       0                               0D0000270
     110     137       0       0       0       0       0       000010000D0000271
     110       0       0       1       0                               0D0000272
     110     138       0       0       0       0       0       000010000D0000273
     110       0       0       1       0                               0D0000274
     110     139       0       0       0       0       0       000010000D0000275
     110       0       0       2       0                               0D0000276
     110     141       0       0       0       0       0       000010000D0000277
     110       0       0       1       0                               0D0000278
     144     142       0       0       0       0       0       000020000D0000279
     144       0    -539       1       0                               0D0000280
     108     143       0       0       0       0       0       000010000D0000281
     108       0       0       2       0                               0D0000282
     142     145       0       0       0       0       0       000010500D0000283
     142       0       0       1       0                               0D0000284
     102     146       0       0       0       0       0       000010000D0000285
     102       0       0       1       0                               0D0000286
     110     147       0       0       0       0       0       000010000D0000287
     110       0       0       1       0                               0D0000288
     110     148       0       0       0       0       0       000010000D0000289
     110       0       0       1       0                               0D0000290
     110     149       0       0       0       0       0       000010000D0000291
     110       0       0       1       0                               0D0000292
     110     150       0       0       0       0       0       000010000D0000293
     110       0       0       1       0                               0D0000294
     144     151       0       0       0       0       0       000020000D0000295
     144       0    -539       1       0                               0D0000296
     108     152       0       0       0       0       0       000010000D0000297
     108       0       0       2       0                               0D0000298
     142     154       0       0       0       0       0       000010500D0000299
     142       0       0       1       0                               0D0000300
     102     155       0       0       0       0       0       000010000D0000301
     102       0       0       1       0                               0D0000302
     110     156       0       0       0       0       0       000010000D0000303
     110       0       0       2       0                               0D0000304
     110     158       0       0       0       0       0       000010000D0000305
     110       0       0       2       0                               0D0000306
     110     160       0       0       0       0       0       000010000D0000307
     110       0       0       2       0                               0D0000308
     110     162       0       0       0       0       0       000010000D0000309
     110       0       0       2       0                               0D0000310
     144     164       0       0       0       0       0       000020000D0000311
     144       0    -539       1       0                               0D0000312
     108     165       0       0       0       0       0       000010000D0000313
     108       0       0       2       0                               0D0000314
     142     167       0       0       0       0       0       000010500D0000315
     142       0       0       1       0                               0D0000316
     102     168       0       0       0       0       0       000010000D0000317
     102       0       0       1       0                               0D0000318
     110     169       0       0       0       0       0       000010000D0000319
     110       0       0       2       0                               0D0000320
     110     171       0       0       0       0       0       000010000D0000321
     110       0       0       2       0                               0D0000322
     110     173       0       0       0       0       0       000010000D0000323
     110       0       0       2       0                               0D0000324
     110     175       0       0       0       0       0       000010000D0000325
     110       0       0       2       0                               0D0000326
     144     177       0       0       0       0       0       000020000D0000327
     144       0    -539       1       0                               0D0000328
     108     178       0       0       0       0       0       000010000D0000329
     108       0       0       2       0                               0D0000330
     142     180       0       0       0       0       0       000010500D0000331
     142       0       0       1       0                               0D0000332
     102     181       0       0       0       0       0       000010000D0000333
     102       0       0       1       0                               0D0000334
     110     182       0       0       0       0       0       000010000D0000335
     110       0       0       2       0                               0D0000336
     110     184       0       0       0       0       0       000010000D0000337
     110       0       0       1       0                               0D0000338
     110     185       0       0       0       0       0       000010000D0000339
     110       0       0       1       0                               0D0000340
     110     186       0       0       0       0       0       000010000D0000341
     110       0       0       2       0                               0D0000342
     110     188       0       0       0       0       0       000010000D0000343
     110       0       0       2       0                               0D0000344
     110     190       0       0       0       0       0       000010000D0000345
     110       0       0       2       0                               0D0000346
     144     192       0       0       0       0       0       000020000D0000347
     144       0    -539       1       0                               0D0000348
     108     193       0       0       0       0       0       000010000D0000349
     108       0       0       2       0                               0D0000350
     142     195       0       0       0       0       0       000010500D0000351
     142       0       0       1       0                               0D0000352
     102     196       0       0       0       0       0       000010000D0000353
     102       0       0       1       0                               0D0000354
     110     197       0       0       0       0       0       000010000D0000355
     110       0       0       2       0                               0D0000356
     110     199       0       0       0       0       0       000010000D0000357
     110       0       0       2       0                               0D0000358
     110     201       0       0       0       0       0       000010000D0000359
     110       0       0       2       0                               0D0000360
     110     203       0       0       0       0       0       000010000D0000361
     110       0       0       1       0                               0D0000362
     144     204       0       0       0       0       0       000020000D0000363
     144       0    -539       1       0                               0D0000364
     108     205       0       0       0       0       0       000010000D0000365
     108       0       0       2       0                               0D0000366
     142     207       0       0       0       0       0       000010500D0000367
     142       0       0       1       0                               0D0000368
     102     208       0       0       0       0       0       000010000D0000369
     102       0       0       1       0                               0D0000370
     110     209       0       0       0       0       0       000010000D0000371
     110       0       0       2       0                               0D0000372
     110     211       0       0       0       0       0       000010000D0000373
     110       0       0       2       0                               0D0000374
     110     213       0       0       0       0       0       000010000D0000375
     110       0       0       2       0                               0D0000376
     110     215       0       0       0       0       0       000010000D0000377
     110       0       0       2       0                               0D0000378
     110     217       0       0       0       0       0       000010000D0000379
     110       0       0       1       0                               0D0000380
     110     218       0       0       0       0       0       000010000D0000381
     110       0       0       1       0                               0D0000382
     144     219       0       0       0       0       0       000020000D0000383
     144       0    -539       1       0                               0D0000384
     108     220       0       0       0       0       0       000010000D0000385
     108       0       0       2       0                               0D0000386
     142     222       0       0       0       0       0       000010500D0000387
     142       0       0       1       0                               0D0000388
     102     223       0       0       0       0       0       000010000D0000389
     102       0       0       1       0                               0D0000390
     110     224       0       0       0       0       0       000010000D0000391
     110       0       0       2       0                               0D0000392
     110     226       0       0       0       0       0       000010000D0000393
     110       0       0       2       0                               0D0000394
     110     228       0       0       0       0       0       000010000D0000395
     110       0       0       2       0                               0D0000396
     110     230       0       0       0       0       0       000010000D0000397
     110       0       0       2       0                               0D0000398
     402     232       0       0       0       0       0       000020000D0000399
     402       0       0       1       1                   ??2:1        D0000400
     144     233       0       0       0       0       0       000020000D0000401
     144       0    -539       1       0                               0D0000402
     108     234       0       0       0       0       0       000010000D0000403
     108       0       0       2       0                               0D0000404
     142     236       0       0       0       0       0       000010500D0000405
     142       0       0       1       0                               0D0000406
     102     237       0       0       0       0       0       000010000D0000407
     102       0       0       1       0                               0D0000408
     110     238       0       0       0       0       0       000010000D0000409
     110       0       0       1       0                               0D0000410
     110     239       0       0       0       0       0       000010000D0000411
     110       0       0       1       0                               0D0000412
     110     240       0       0       0       0       0       000010000D0000413
     110       0       0       1       0                               0D0000414
     110     241       0       0       0       0       0       000010000D0000415
     110       0       0       1       0                               0D0000416
     144     242       0       0       0       0       0       000020000D0000417
     144       0    -539       1       0                               0D0000418
     108     243       0       0       0       0       0       000010000D0000419
     108       0       0       2       0                               0D0000420
     142     245       0       0       0       0       0       000010500D0000421
     142       0       0       1       0                               0D0000422
     102     246       0       0       0       0       0       000010000D0000423
     102       0       0       1       0                               0D0000424
     110     247       0       0       0       0       0       000010000D0000425
     110       0       0       1       0                               0D0000426
     110     248       0       0       0       0       0       000010000D0000427
     110       0       0       1       0                               0D0000428
     110     249       0       0       0       0       0       000010000D0000429
     110       0       0       1       0                               0D0000430
     110     250       0       0       0       0       0       000010000D0000431
     110       0       0       1       0                               0D0000432
     144     251       0       0       0       0       0       000020000D0000433
     144       0    -539       1       0                               0D0000434
     108     252       0       0       0       0       0       000010000D0000435
     108       0       0       2       0                               0D0000436
     142     254       0       0       0       0       0       000010500D0000437
     142       0       0       1       0                               0D0000438
     102     255       0       0       0       0       0       000010000D0000439
     102       0       0       1       0                               0D0000440
     110     256       0       0       0       0       0       000010000D0000441
     110       0       0       2       0                               0D0000442
     110     258       0       0       0       0       0       000010000D0000443
     110       0       0       2       0                               0D0000444
     110     260       0       0       0       0       0       000010000D0000445
     110       0       0       2       0                               0D0000446
     110     262       0       0       0       0       0       000010000D0000447
     110       0       0       1       0                               0D0000448
     144     263       0       0       0       0       0       000020000D0000449
     144       0    -539       1       0                               0D0000450
     108     264       0       0       0       0       0       000010000D0000451
     108       0       0       2       0                               0D0000452
     142     266       0       0       0       0       0       000010500D0000453
     142       0       0       1       0                               0D0000454
     102     267       0       0       0       0       0       000010000D0000455
     102       0       0       1       0                               0D0000456
     110     268       0       0       0       0       0       000010000D0000457
     110       0       0       1       0                               0D0000458
     110     269       0       0       0       0       0       000010000D0000459
     110       0       0       2       0                               0D0000460
     110     271       0       0       0       0       0       000010000D0000461
     110       0       0       2       0                               0D0000462
     110     273       0       0       0       0       0       000010000D0000463
     110       0       0       2       0                               0D0000464
     110     275       0       0       0       0       0       000010000D0000465
     110       0       0       1       0                               0D0000466
     110     276       0       0       0       0       0       000010000D0000467
     110       0       0       1       0                               0D0000468
     144     277       0       0       0       0       0       000020000D0000469
     144       0    -539       1       0                               0D0000470
     108     278       0       0       0       0       0       000010000D0000471
     108       0       0       2       0                               0D0000472
     142     280       0       0       0       0       0       000010500D0000473
     142       0       0       1       0                               0D0000474
     102     281       0       0       0       0       0       000010000D0000475
     102       0       0       1       0                               0D0000476
     110     282       0       0       0       0       0       000010000D0000477
     110       0       0       2       0                               0D0000478
     110     284       0       0       0       0       0       000010000D0000479
     110       0       0       2       0                               0D0000480
     110     286       0       0       0       0       0       000010000D0000481
     110       0       0       2       0                               0D0000482
     110     288       0       0       0       0       0       000010000D0000483
     110       0       0       2       0                               0D0000484
     144     290       0       0       0       0       0       000020000D0000485
     144       0    -539       1       0                               0D0000486
     108     291       0       0       0       0       0       000010000D0000487
     108       0       0       2       0                               0D0000488
     142     293       0       0       0       0       0       000010500D0000489
     142       0       0       1       0                               0D0000490
     102     294       0       0       0       0       0       000010000D0000491
     102       0       0       1       0                               0D0000492
     110     295       0       0       0       0       0       000010000D0000493
     110       0       0       2       0                               0D0000494
     110     297       0       0       0       0       0       000010000D0000495
     110       0       0       1       0                               0D0000496
     110     298       0       0       0       0       0       000010000D0000497
     110       0       0       1       0                               0D0000498
     110     299       0       0       0       0       0       000010000D0000499
     110       0       0       2       0                               0D0000500
     110     301       0       0       0       0       0       000010000D0000501
     110       0       0       2       0                               0D0000502
     110     303       0       0       0       0       0       000010000D0000503
     110       0       0       2       0                               0D0000504
     144     305       0       0       0       0       0       000020000D0000505
     144       0    -539       1       0                               0D0000506
     108     306       0       0       0       0       0       000010000D0000507
     108       0       0       2       0                               0D0000508
     142     308       0       0       0       0       0       000010500D0000509
     142       0       0       1       0                               0D0000510
     102     309       0       0       0       0       0       000010000D0000511
     102       0       0       1       0                               0D0000512
     110     310       0       0       0       0       0       000010000D0000513
     110       0       0       2       0                               0D0000514
     110     312       0       0       0       0       0       000010000D0000515
     110       0       0       2       0                               0D0000516
     110     314       0       0       0       0       0       000010000D0000517
     110       0       0       2       0                               0D0000518
     110     316       0       0       0       0       0       000010000D0000519
     110       0       0       2       0                               0D0000520
     144     318       0       0       0       0       0       000020000D0000521
     144       0    -539       1       0                               0D0000522
     108     319       0       0       0       0       0       000010000D0000523
     108       0       0       2       0                               0D0000524
     142     321       0       0       0       0       0       000010500D0000525
     142       0       0       1       0                               0D0000526
     102     322       0       0       0       0       0       000010000D0000527
     102       0       0       1       0                               0D0000528
     110     323       0       0       0       0       0       000010000D0000529
     110       0       0       1       0                               0D0000530
     110     324       0       0       0       0       0       000010000D0000531
     110       0       0       2       0                               0D0000532
     110     326       0       0       0       0       0       000010000D0000533
     110       0       0       2       0                               0D0000534
     110     328       0       0       0       0       0       000010000D0000535
     110       0       0       1       0                               0D0000536
     314     329       0       0       0       0       0       000000200D0000537
     314       0       0       1       0                               0D0000538
     314     330       0       0       0       0       0       000000200D0000539
     314       0       0       1       0                               0D0000540
     406     331       0       0       0       0       0       000000000D0000541
     406       0       0       1      15                               0D0000542
     406     332       0       0       0       0       0       000000000D0000543
     406       0       0       1      15                               0D0000544
     406     333       0       0       0       0       0       000000000D0000545
     406       0       0       1      15                               0D0000546
     406     334       0       0       0       0       0       000000000D0000547
     406       0       0       1      15                               0D0000548
402,3,3,261,399,0,1,543;                                         0000001P0000001
402,14,5,21,37,53,69,85,101,117,133,157,181,197,213,245,0,1,547; 0000003P0000002
144,7,1,0,9;                                                     0000005P0000003
108,-0.,1.,-0.,1.370954161,0,8.799953206,1.370954161,0.,0.;      0000007P0000004
142,0,7,0,11,2;                                                  0000009P0000005
102,4,13,15,17,19;                                               0000011P0000006
110,8.749953206,1.370954161,0.1,8.749953206,1.370954161,0.;      0000013P0000007
110,8.749953206,1.370954161,0.,7.540953206,1.370954161,0.;       0000015P0000008
110,7.540953206,1.370954161,0.,7.540953206,1.370954161,0.1;      0000017P0000009
110,7.540953206,1.370954161,0.1,8.749953206,1.370954161,0.1;     0000019P0000010
144,23,1,0,25;                                                   0000021P0000011
108,-0.,-0.,-1.,-0.1,0,8.170453206,2.570954161,0.1,0.;           0000023P0000012
142,0,23,0,27,2;                                                 0000025P0000013
102,4,29,31,33,35;                                               0000027P0000014
110,8.749953206,3.770954161,0.1,8.749953206,1.370954161,0.1;     0000029P0000015
110,8.749953206,1.370954161,0.1,7.540953206,1.370954161,0.1;     0000031P0000016
110,7.540953206,1.370954161,0.1,7.540953206,3.770954161,0.1;     0000033P0000017
110,7.540953206,3.770954161,0.1,8.749953206,3.770954161,0.1;     0000035P0000018
144,39,1,0,41;                                                   0000037P0000019
108,1.,-0.,-0.,7.540953206,0,7.540953206,1.370954161,0.,0.;      0000039P0000020
142,0,39,0,43,2;                                                 0000041P0000021
102,4,45,47,49,51;                                               0000043P0000022
110,7.540953206,3.770954161,0.1,7.540953206,1.370954161,0.1;     0000045P0000023
110,7.540953206,1.370954161,0.1,7.540953206,1.370954161,0.;      0000047P0000024
110,7.540953206,1.370954161,0.,7.540953206,3.770954161,0.;       0000049P0000025
110,7.540953206,3.770954161,0.,7.540953206,3.770954161,0.1;      0000051P0000026
144,55,1,0,57;                                                   0000053P0000027
108,-0.,-1.,-0.,-3.770954161,0,7.540953206,3.770954161,0.,0.;    0000055P0000028
142,0,55,0,59,2;                                                 0000057P0000029
102,4,61,63,65,67;                                               0000059P0000030
110,8.749953206,3.770954161,0.,8.749953206,3.770954161,0.1;      0000061P0000031
110,8.749953206,3.770954161,0.1,7.540953206,3.770954161,0.1;     0000063P0000032
110,7.540953206,3.770954161,0.1,7.540953206,3.770954161,0.;      0000065P0000033
110,7.540953206,3.770954161,0.,8.749953206,3.770954161,0.;       0000067P0000034
144,71,1,0,73;                                                   0000069P0000035
108,-1.,-0.,-0.,-2.699953206,0,2.699953206,3.770954161,0.,0.;    0000071P0000036
142,0,71,0,75,2;                                                 0000073P0000037
102,4,77,79,81,83;                                               0000075P0000038
110,2.699953206,1.370954161,0.1,2.699953206,3.770954161,0.1;     0000077P0000039
110,2.699953206,3.770954161,0.1,2.699953206,3.770954161,0.;      0000079P0000040
110,2.699953206,3.770954161,0.,2.699953206,1.370954161,0.;       0000081P0000041
110,2.699953206,1.370954161,0.,2.699953206,1.370954161,0.1;      0000083P0000042
144,87,1,0,89;                                                   0000085P0000043
108,-0.,1.,-0.,1.370954161,0,2.699953206,1.370954161,0.,0.;      0000087P0000044
142,0,87,0,91,2;                                                 0000089P0000045
102,4,93,95,97,99;                                               0000091P0000046
110,1.449953206,1.370954161,0.,1.449953206,1.370954161,0.1;      0000093P0000047
110,1.449953206,1.370954161,0.1,2.699953206,1.370954161,0.1;     0000095P0000048
110,2.699953206,1.370954161,0.1,2.699953206,1.370954161,0.;      0000097P0000049
110,2.699953206,1.370954161,0.,1.449953206,1.370954161,0.;       0000099P0000050
144,103,1,0,105;                                                 0000101P0000051
108,-0.,-1.,-0.,-3.770954161,0,1.399953206,3.770954161,0.,0.;    0000103P0000052
142,0,103,0,107,2;                                               0000105P0000053
102,4,109,111,113,115;                                           0000107P0000054
110,1.449953206,3.770954161,0.1,1.449953206,3.770954161,0.;      0000109P0000055
110,1.449953206,3.770954161,0.,2.699953206,3.770954161,0.;       0000111P0000056
110,2.699953206,3.770954161,0.,2.699953206,3.770954161,0.1;      0000113P0000057
110,2.699953206,3.770954161,0.1,1.449953206,3.770954161,0.1;     0000115P0000058
144,119,1,0,121;                                                 0000117P0000059
108,-0.,-0.,-1.,-0.1,0,2.049953206,2.570954161,0.1,0.;           0000119P0000060
142,0,119,0,123,2;                                               0000121P0000061
102,4,125,127,129,131;                                           0000123P0000062
110,1.449953206,1.370954161,0.1,1.449953206,3.770954161,0.1;     0000125P0000063
110,1.449953206,3.770954161,0.1,2.699953206,3.770954161,0.1;     0000127P0000064
110,2.699953206,3.770954161,0.1,2.699953206,1.370954161,0.1;     0000129P0000065
110,2.699953206,1.370954161,0.1,1.449953206,1.370954161,0.1;     0000131P0000066
144,135,1,0,137;                                                 0000133P0000067
108,1.,0.,0.,8.749953206,0,8.749953206,4.720954161,0.,0.;        0000135P0000068
142,0,135,0,139,2;                                               0000137P0000069
102,8,141,143,145,147,149,151,153,155;                           0000139P0000070
110,8.749953206,1.370954161,0.,8.749953206,1.370954161,0.1;      0000141P0000071
110,8.749953206,1.370954161,0.1,8.749953206,3.770954161,0.1;     0000143P0000072
110,8.749953206,3.770954161,0.1,8.749953206,3.770954161,0.;      0000145P0000073
110,8.749953206,3.770954161,0.,8.749953206,4.720954161,0.;       0000147P0000074
110,8.749953206,4.720954161,0.,8.749953206,4.720954161,1.4;      0000149P0000075
110,8.749953206,4.720954161,1.4,8.749953206,0.420954161,1.4;     0000151P0000076
110,8.749953206,0.420954161,1.4,8.749953206,0.420954161,0.;      0000153P0000077
110,8.749953206,0.420954161,0.,8.749953206,1.370954161,0.;       0000155P0000078
144,159,1,0,161;                                                 0000157P0000079
108,-1.,0.,0.,-1.449953206,0,1.449953206,0.420954161,0.,0.;      0000159P0000080
142,0,159,0,163,2;                                               0000161P0000081
102,8,165,167,169,171,173,175,177,179;                           0000163P0000082
110,1.449953206,1.370954161,0.1,1.449953206,1.370954161,0.;      0000165P0000083
110,1.449953206,1.370954161,0.,1.449953206,0.420954161,0.;       0000167P0000084
110,1.449953206,0.420954161,0.,1.449953206,0.420954161,1.4;      0000169P0000085
110,1.449953206,0.420954161,1.4,1.449953206,4.720954161,1.4;     0000171P0000086
110,1.449953206,4.720954161,1.4,1.449953206,4.720954161,0.;      0000173P0000087
110,1.449953206,4.720954161,0.,1.449953206,3.770954161,0.;       0000175P0000088
110,1.449953206,3.770954161,0.,1.449953206,3.770954161,0.1;      0000177P0000089
110,1.449953206,3.770954161,0.1,1.449953206,1.370954161,0.1;     0000179P0000090
144,183,1,0,185;                                                 0000181P0000091
108,0.,1.,0.,4.720954161,0,1.449953206,4.720954161,0.,0.;        0000183P0000092
142,0,183,0,187,2;                                               0000185P0000093
102,4,189,191,193,195;                                           0000187P0000094
110,1.449953206,4.720954161,1.4,8.749953206,4.720954161,1.4;     0000189P0000095
110,8.749953206,4.720954161,1.4,8.749953206,4.720954161,0.;      0000191P0000096
110,8.749953206,4.720954161,0.,1.449953206,4.720954161,0.;       0000193P0000097
110,1.449953206,4.720954161,0.,1.449953206,4.720954161,1.4;      0000195P0000098
144,199,1,0,201;                                                 0000197P0000099
108,0.,-1.,0.,-0.420954161,0,8.749953206,0.420954161,0.,0.;      0000199P0000100
142,0,199,0,203,2;                                               0000201P0000101
102,4,205,207,209,211;                                           0000203P0000102
110,8.749953206,0.420954161,1.4,1.449953206,0.420954161,1.4;     0000205P0000103
110,1.449953206,0.420954161,1.4,1.449953206,0.420954161,0.;      0000207P0000104
110,1.449953206,0.420954161,0.,8.749953206,0.420954161,0.;       0000209P0000105
110,8.749953206,0.420954161,0.,8.749953206,0.420954161,1.4;      0000211P0000106
144,215,1,0,217;                                                 0000213P0000107
108,-0.,-0.,-1.,-0.,0,5.099953206,2.570954161,0.,0.;             0000215P0000108
142,0,215,0,219,2;                                               0000217P0000109
102,12,221,223,225,227,229,231,233,235,237,239,241,243;          0000219P0000110
110,7.540953206,1.370954161,0.,8.749953206,1.370954161,0.;       0000221P0000111
110,8.749953206,1.370954161,0.,8.749953206,0.420954161,0.;       0000223P0000112
110,8.749953206,0.420954161,0.,1.449953206,0.420954161,0.;       0000225P0000113
110,1.449953206,0.420954161,0.,1.449953206,1.370954161,0.;       0000227P0000114
110,1.449953206,1.370954161,0.,2.699953206,1.370954161,0.;       0000229P0000115
110,2.699953206,1.370954161,0.,2.699953206,3.770954161,0.;       0000231P0000116
110,2.699953206,3.770954161,0.,1.449953206,3.770954161,0.;       0000233P0000117
110,1.449953206,3.770954161,0.,1.449953206,4.720954161,0.;       0000235P0000118
110,1.449953206,4.720954161,0.,8.749953206,4.720954161,0.;       0000237P0000119
110,8.749953206,4.720954161,0.,8.749953206,3.770954161,0.;       0000239P0000120
110,8.749953206,3.770954161,0.,7.540953206,3.770954161,0.;       0000241P0000121
110,7.540953206,3.770954161,0.,7.540953206,1.370954161,0.;       0000243P0000122
144,247,1,0,249;                                                 0000245P0000123
108,0.,0.,1.,1.4,0,5.099953206,2.570954161,1.4,0.;               0000247P0000124
142,0,247,0,251,2;                                               0000249P0000125
102,4,253,255,257,259;                                           0000251P0000126
110,1.449953206,4.720954161,1.4,1.449953206,0.420954161,1.4;     0000253P0000127
110,1.449953206,0.420954161,1.4,8.749953206,0.420954161,1.4;     0000255P0000128
110,8.749953206,0.420954161,1.4,8.749953206,4.720954161,1.4;     0000257P0000129
110,8.749953206,4.720954161,1.4,1.449953206,4.720954161,1.4;     0000259P0000130
402,8,263,279,295,311,327,347,363,383,0,1,545;                   0000261P0000131
144,265,1,0,267;                                                 0000263P0000132
108,-1.,4.409146E-16,5.941418E-16,-8.699953206,0,8.699953206,    0000265P0000133
1.370954161,1.E-01,0.;                                           0000265P0000134
142,0,265,0,269,2;                                               0000267P0000135
102,4,271,273,275,277;                                           0000269P0000136
110,8.699953206,1.370954161,0.9,8.699953206,3.770954161,0.9;     0000271P0000137
110,8.699953206,3.770954161,0.9,8.699953206,3.770954161,1.E-01;  0000273P0000138
110,8.699953206,3.770954161,1.E-01,8.699953206,1.370954161,      0000275P0000139
1.E-01;                                                          0000275P0000140
110,8.699953206,1.370954161,1.E-01,8.699953206,1.370954161,0.9;  0000277P0000141
144,281,1,0,283;                                                 0000279P0000142
108,5.941418E-16,1.685191E-16,1.,0.9,0,8.749953206,2.570954161,  0000281P0000143
0.9,0.;                                                          0000281P0000144
142,0,281,0,285,2;                                               0000283P0000145
102,4,287,289,291,293;                                           0000285P0000146
110,8.799953206,1.370954161,0.9,8.799953206,3.770954161,0.9;     0000287P0000147
110,8.799953206,3.770954161,0.9,8.699953206,3.770954161,0.9;     0000289P0000148
110,8.699953206,3.770954161,0.9,8.699953206,1.370954161,0.9;     0000291P0000149
110,8.699953206,1.370954161,0.9,8.799953206,1.370954161,0.9;     0000293P0000150
144,297,1,0,299;                                                 0000295P0000151
108,5.941418E-16,1.685191E-16,1.,1.E-01,0,8.170453206,           0000297P0000152
2.570954161,1.E-01,0.;                                           0000297P0000153
142,0,297,0,301,2;                                               0000299P0000154
102,4,303,305,307,309;                                           0000301P0000155
110,8.699953206,1.370954161,1.E-01,8.699953206,3.770954161,      0000303P0000156
1.E-01;                                                          0000303P0000157
110,8.699953206,3.770954161,1.E-01,7.540953206,3.770954161,      0000305P0000158
1.E-01;                                                          0000305P0000159
110,7.540953206,3.770954161,1.E-01,7.540953206,1.370954161,      0000307P0000160
1.E-01;                                                          0000307P0000161
110,7.540953206,1.370954161,1.E-01,8.699953206,1.370954161,      0000309P0000162
1.E-01;                                                          0000309P0000163
144,313,1,0,315;                                                 0000311P0000164
108,-1.,4.409146E-16,5.941418E-16,-7.540953206,0,7.540953206,    0000313P0000165
1.370954161,-4.749032567E-15,0.;                                 0000313P0000166
142,0,313,0,317,2;                                               0000315P0000167
102,4,319,321,323,325;                                           0000317P0000168
110,7.540953206,1.370954161,1.E-01,7.540953206,3.770954161,      0000319P0000169
1.E-01;                                                          0000319P0000170
110,7.540953206,3.770954161,1.E-01,7.540953206,3.770954161,      0000321P0000171
-5.153478407E-15;                                                0000321P0000172
110,7.540953206,3.770954161,-5.153478407E-15,7.540953206,        0000323P0000173
1.370954161,-4.749032567E-15;                                    0000323P0000174
110,7.540953206,1.370954161,-4.749032567E-15,7.540953206,        0000325P0000175
1.370954161,1.E-01;                                              0000325P0000176
144,329,1,0,331;                                                 0000327P0000177
108,4.409146E-16,1.,-1.685191E-16,3.770954161,0,7.540953206,     0000329P0000178
3.770954161,-5.153478407E-15,0.;                                 0000329P0000179
142,0,329,0,333,2;                                               0000331P0000180
102,6,335,337,339,341,343,345;                                   0000333P0000181
110,7.540953206,3.770954161,1.E-01,8.699953206,3.770954161,      0000335P0000182
1.E-01;                                                          0000335P0000183
110,8.699953206,3.770954161,1.E-01,8.699953206,3.770954161,0.9;  0000337P0000184
110,8.699953206,3.770954161,0.9,8.799953206,3.770954161,0.9;     0000339P0000185
110,8.799953206,3.770954161,0.9,8.799953206,3.770954161,         0000341P0000186
-5.901502933E-15;                                                0000341P0000187
110,8.799953206,3.770954161,-5.901502933E-15,7.540953206,        0000343P0000188
3.770954161,-5.153478407E-15;                                    0000343P0000189
110,7.540953206,3.770954161,-5.153478407E-15,7.540953206,        0000345P0000190
3.770954161,1.E-01;                                              0000345P0000191
144,349,1,0,351;                                                 0000347P0000192
108,1.,-4.409146E-16,-5.941418E-16,8.799953206,0,8.799953206,    0000349P0000193
3.770954161,-5.901502933E-15,0.;                                 0000349P0000194
142,0,349,0,353,2;                                               0000351P0000195
102,4,355,357,359,361;                                           0000353P0000196
110,8.799953206,1.370954161,0.9,8.799953206,1.370954161,         0000355P0000197
-5.497057093E-15;                                                0000355P0000198
110,8.799953206,1.370954161,-5.497057093E-15,8.799953206,        0000357P0000199
3.770954161,-5.901502933E-15;                                    0000357P0000200
110,8.799953206,3.770954161,-5.901502933E-15,8.799953206,        0000359P0000201
3.770954161,0.9;                                                 0000359P0000202
110,8.799953206,3.770954161,0.9,8.799953206,1.370954161,0.9;     0000361P0000203
144,365,1,0,367;                                                 0000363P0000204
108,-4.409146E-16,-1.,1.685191E-16,-1.370954161,0,8.799953206,   0000365P0000205
1.370954161,-5.497057093E-15,0.;                                 0000365P0000206
142,0,365,0,369,2;                                               0000367P0000207
102,6,371,373,375,377,379,381;                                   0000369P0000208
110,8.699953206,1.370954161,1.E-01,7.540953206,1.370954161,      0000371P0000209
1.E-01;                                                          0000371P0000210
110,7.540953206,1.370954161,1.E-01,7.540953206,1.370954161,      0000373P0000211
-4.749032567E-15;                                                0000373P0000212
110,7.540953206,1.370954161,-4.749032567E-15,8.799953206,        0000375P0000213
1.370954161,-5.497057093E-15;                                    0000375P0000214
110,8.799953206,1.370954161,-5.497057093E-15,8.799953206,        0000377P0000215
1.370954161,0.9;                                                 0000377P0000216
110,8.799953206,1.370954161,0.9,8.699953206,1.370954161,0.9;     0000379P0000217
110,8.699953206,1.370954161,0.9,8.699953206,1.370954161,1.E-01;  0000381P0000218
144,385,1,0,387;                                                 0000383P0000219
108,-5.941418E-16,-1.685191E-16,-1.,3.760509422E-17,0,           0000385P0000220
8.170453206,2.570954161,-5.32526775E-15,0.;                      0000385P0000221
142,0,385,0,389,2;                                               0000387P0000222
102,4,391,393,395,397;                                           0000389P0000223
110,8.799953206,1.370954161,-5.497057093E-15,7.540953206,        0000391P0000224
1.370954161,-4.749032567E-15;                                    0000391P0000225
110,7.540953206,1.370954161,-4.749032567E-15,7.540953206,        0000393P0000226
3.770954161,-5.153478407E-15;                                    0000393P0000227
110,7.540953206,3.770954161,-5.153478407E-15,8.799953206,        0000395P0000228
3.770954161,-5.901502933E-15;                                    0000395P0000229
110,8.799953206,3.770954161,-5.901502933E-15,8.799953206,        0000397P0000230
1.370954161,-5.497057093E-15;                                    0000397P0000231
402,8,401,417,433,449,469,485,505,521,0,1,541;                   0000399P0000232
144,403,1,0,405;                                                 0000401P0000233
108,1.,-6.013708E-16,-1.684074E-15,1.499953206,0,1.499953206,    0000403P0000234
3.770954161,0.1,0.;                                              0000403P0000235
142,0,403,0,407,2;                                               0000405P0000236
102,4,409,411,413,415;                                           0000407P0000237
110,1.499953206,3.770954161,0.9,1.499953206,1.370954161,0.9;     0000409P0000238
110,1.499953206,1.370954161,0.9,1.499953206,1.370954161,1.E-01;  0000411P0000239
110,1.499953206,1.370954161,1.E-01,1.499953206,3.770954161,0.1;  0000413P0000240
110,1.499953206,3.770954161,0.1,1.499953206,3.770954161,0.9;     0000415P0000241
144,419,1,0,421;                                                 0000417P0000242
108,1.684074E-15,-2.967519E-16,1.,0.9,0,1.449953206,2.570954161, 0000419P0000243
0.9,0.;                                                          0000419P0000244
142,0,419,0,423,2;                                               0000421P0000245
102,4,425,427,429,431;                                           0000423P0000246
110,1.499953206,3.770954161,0.9,1.399953206,3.770954161,0.9;     0000425P0000247
110,1.399953206,3.770954161,0.9,1.399953206,1.370954161,0.9;     0000427P0000248
110,1.399953206,1.370954161,0.9,1.499953206,1.370954161,0.9;     0000429P0000249
110,1.499953206,1.370954161,0.9,1.499953206,3.770954161,0.9;     0000431P0000250
144,435,1,0,437;                                                 0000433P0000251
108,-1.,6.013708E-16,1.684074E-15,-1.399953206,0,1.399953206,    0000435P0000252
1.370954161,5.20417E-17,0.;                                      0000435P0000253
142,0,435,0,439,2;                                               0000437P0000254
102,4,441,443,445,447;                                           0000439P0000255
110,1.399953206,3.770954161,0.9,1.399953206,3.770954161,         0000441P0000256
7.6424626E-16;                                                   0000441P0000257
110,1.399953206,3.770954161,7.6424626E-16,1.399953206,           0000443P0000258
1.370954161,5.20417E-17;                                         0000443P0000259
110,1.399953206,1.370954161,5.20417E-17,1.399953206,1.370954161, 0000445P0000260
0.9;                                                             0000445P0000261
110,1.399953206,1.370954161,0.9,1.399953206,3.770954161,0.9;     0000447P0000262
144,451,1,0,453;                                                 0000449P0000263
108,6.013708E-16,1.,2.967519E-16,3.770954161,0,1.399953206,      0000451P0000264
3.770954161,7.6424626E-16,0.;                                    0000451P0000265
142,0,451,0,455,2;                                               0000453P0000266
102,6,457,459,461,463,465,467;                                   0000455P0000267
110,1.499953206,3.770954161,0.1,2.699953206,3.770954161,1.E-01;  0000457P0000268
110,2.699953206,3.770954161,1.E-01,2.699953206,3.770954161,      0000459P0000269
-1.42504994E-15;                                                 0000459P0000270
110,2.699953206,3.770954161,-1.42504994E-15,1.399953206,         0000461P0000271
3.770954161,7.6424626E-16;                                       0000461P0000272
110,1.399953206,3.770954161,7.6424626E-16,1.399953206,           0000463P0000273
3.770954161,0.9;                                                 0000463P0000274
110,1.399953206,3.770954161,0.9,1.499953206,3.770954161,0.9;     0000465P0000275
110,1.499953206,3.770954161,0.9,1.499953206,3.770954161,0.1;     0000467P0000276
144,471,1,0,473;                                                 0000469P0000277
108,1.,-6.013708E-16,-1.684074E-15,2.699953206,0,2.699953206,    0000471P0000278
3.770954161,-1.42504994E-15,0.;                                  0000471P0000279
142,0,471,0,475,2;                                               0000473P0000280
102,4,477,479,481,483;                                           0000475P0000281
110,2.699953206,3.770954161,1.E-01,2.699953206,1.370954161,      0000477P0000282
1.E-01;                                                          0000477P0000283
110,2.699953206,1.370954161,1.E-01,2.699953206,1.370954161,      0000479P0000284
-2.1372545E-15;                                                  0000479P0000285
110,2.699953206,1.370954161,-2.1372545E-15,2.699953206,          0000481P0000286
3.770954161,-1.42504994E-15;                                     0000481P0000287
110,2.699953206,3.770954161,-1.42504994E-15,2.699953206,         0000483P0000288
3.770954161,1.E-01;                                              0000483P0000289
144,487,1,0,489;                                                 0000485P0000290
108,-6.013708E-16,-1.,-2.967519E-16,-1.370954161,0,2.699953206,  0000487P0000291
1.370954161,-2.1372545E-15,0.;                                   0000487P0000292
142,0,487,0,491,2;                                               0000489P0000293
102,6,493,495,497,499,501,503;                                   0000491P0000294
110,2.699953206,1.370954161,1.E-01,1.499953206,1.370954161,      0000493P0000295
1.E-01;                                                          0000493P0000296
110,1.499953206,1.370954161,1.E-01,1.499953206,1.370954161,0.9;  0000495P0000297
110,1.499953206,1.370954161,0.9,1.399953206,1.370954161,0.9;     0000497P0000298
110,1.399953206,1.370954161,0.9,1.399953206,1.370954161,         0000499P0000299
5.20417E-17;                                                     0000499P0000300
110,1.399953206,1.370954161,5.20417E-17,2.699953206,1.370954161, 0000501P0000301
-2.1372545E-15;                                                  0000501P0000302
110,2.699953206,1.370954161,-2.1372545E-15,2.699953206,          0000503P0000303
1.370954161,1.E-01;                                              0000503P0000304
144,507,1,0,509;                                                 0000505P0000305
108,-1.684074E-15,2.967519E-16,-1.,-2.002833243E-15,0,           0000507P0000306
2.049953206,2.570954161,-6.8650412E-16,0.;                       0000507P0000307
142,0,507,0,511,2;                                               0000509P0000308
102,4,513,515,517,519;                                           0000511P0000309
110,2.699953206,1.370954161,-2.1372545E-15,1.399953206,          0000513P0000310
1.370954161,5.20417E-17;                                         0000513P0000311
110,1.399953206,1.370954161,5.20417E-17,1.399953206,3.770954161, 0000515P0000312
7.6424626E-16;                                                   0000515P0000313
110,1.399953206,3.770954161,7.6424626E-16,2.699953206,           0000517P0000314
3.770954161,-1.42504994E-15;                                     0000517P0000315
110,2.699953206,3.770954161,-1.42504994E-15,2.699953206,         0000519P0000316
1.370954161,-2.1372545E-15;                                      0000519P0000317
144,523,1,0,525;                                                 0000521P0000318
108,1.684074E-15,-2.967519E-16,1.,0.1,0,2.049953206,2.570954161, 0000523P0000319
1.E-01,0.;                                                       0000523P0000320
142,0,523,0,527,2;                                               0000525P0000321
102,4,529,531,533,535;                                           0000527P0000322
110,1.499953206,3.770954161,0.1,1.499953206,1.370954161,1.E-01;  0000529P0000323
110,1.499953206,1.370954161,1.E-01,2.699953206,1.370954161,      0000531P0000324
1.E-01;                                                          0000531P0000325
110,2.699953206,1.370954161,1.E-01,2.699953206,3.770954161,      0000533P0000326
1.E-01;                                                          0000533P0000327
110,2.699953206,3.770954161,1.E-01,1.499953206,3.770954161,0.1;  0000535P0000328
314,50.196099345,50.196099345,50.196099345,6HGRAY50;             0000537P0000329
314,63.921599664,63.921599664,68.627500113,6HGRAY66;             0000539P0000330
406,1,5H__2:1;                                                   0000541P0000331
406,1,5HST1.5;                                                   0000543P0000332
406,1,5H__1:1;                                                   0000545P0000333
406,1,7HST1.5:1;                                                 0000547P0000334
S      1G      4D    548P    334                                        T0000001
