# Created by FreeCAD <https://www.freecad.org>
v 0.769704 -1.100000 0.714181
v 0.906900 -1.100000 0.785833
v 0.785833 -1.100000 0.906900
v 0.654664 -1.100000 0.820923
v 0.648769 -1.100000 1.009504
v 0.867551 -1.100000 0.591486
v 1.009504 -1.100000 0.648769
v 0.525000 -1.100000 0.909327
v 0.498498 -1.100000 1.091558
v 0.946017 -1.100000 0.455578
v 1.091558 -1.100000 0.498498
v 0.383608 -1.100000 0.977417
v 0.338079 -1.100000 1.151392
v 1.003351 -1.100000 0.309493
v 1.151392 -1.100000 0.338079
v 0.233647 -1.100000 1.023674
v 0.170778 -1.100000 1.187786
v 1.038272 -1.100000 0.156494
v 1.187786 -1.100000 0.170778
v 0.078467 -1.100000 1.047064
v -0.000000 -1.100000 1.200000
v 1.050000 -1.100000 0.000000
v 1.200000 -1.100000 0.000000
v 1.187786 -1.100000 -0.170778
v -0.078467 -1.100000 1.047064
v -0.170778 -1.100000 1.187786
v 1.038272 -1.100000 -0.156494
v 1.151392 -1.100000 -0.338079
v -0.233647 -1.100000 1.023674
v -0.338079 -1.100000 1.151392
v 1.003351 -1.100000 -0.309493
v -0.383608 -1.100000 0.977417
v 1.091558 -1.100000 -0.498498
v -0.498498 -1.100000 1.091558
v 0.946017 -1.100000 -0.455578
v -0.525000 -1.100000 0.909327
v -0.648769 -1.100000 1.009504
v 1.009504 -1.100000 -0.648769
v 0.867551 -1.100000 -0.591486
v -0.654664 -1.100000 0.820923
v -0.785833 -1.100000 0.906900
v 0.906900 -1.100000 -0.785833
v 0.769704 -1.100000 -0.714181
v -0.769704 -1.100000 0.714181
v -0.906900 -1.100000 0.785833
v 0.785833 -1.100000 -0.906900
v 0.654664 -1.100000 -0.820923
v -0.867551 -1.100000 0.591486
v -1.009504 -1.100000 0.648769
v 0.648769 -1.100000 -1.009504
v 0.525000 -1.100000 -0.909327
v -0.946017 -1.100000 0.455578
v 0.498498 -1.100000 -1.091558
v -1.091558 -1.100000 0.498498
v 0.383608 -1.100000 -0.977417
v -1.003351 -1.100000 0.309493
v 0.338079 -1.100000 -1.151392
v 0.233647 -1.100000 -1.023674
v -1.151392 -1.100000 0.338079
v -1.038272 -1.100000 0.156494
v 0.170778 -1.100000 -1.187786
v 0.078467 -1.100000 -1.047064
v -1.187786 -1.100000 0.170778
v -1.050000 -1.100000 0.000000
v 0.000000 -1.100000 -1.200000
v -0.078467 -1.100000 -1.047064
v -1.200000 -1.100000 0.000000
v -0.170778 -1.100000 -1.187786
v -0.233647 -1.100000 -1.023674
v -1.187786 -1.100000 -0.170778
v -1.038272 -1.100000 -0.156494
v -0.338079 -1.100000 -1.151392
v -0.383608 -1.100000 -0.977417
v -1.151392 -1.100000 -0.338079
v -1.003351 -1.100000 -0.309493
v -0.498498 -1.100000 -1.091558
v -0.525000 -1.100000 -0.909327
v -1.091558 -1.100000 -0.498498
v -0.946017 -1.100000 -0.455578
v -0.648769 -1.100000 -1.009504
v -0.654664 -1.100000 -0.820923
v -1.009504 -1.100000 -0.648769
v -0.867551 -1.100000 -0.591486
v -0.785833 -1.100000 -0.906900
v -0.769704 -1.100000 -0.714181
v -0.906900 -1.100000 -0.785833
v 1.237277 -1.050000 -0.177894
v 1.250000 -1.050000 0.000000
v 1.199366 -1.050000 -0.352166
v 1.137040 -1.050000 -0.519269
v 1.051567 -1.050000 -0.675801
v 0.944687 -1.050000 -0.818576
v 0.818576 -1.050000 -0.944687
v 0.675801 -1.050000 -1.051567
v 0.519269 -1.050000 -1.137040
v 0.352166 -1.050000 -1.199366
v 0.177894 -1.050000 -1.237277
v 0.000000 -1.050000 -1.250000
v -0.177894 -1.050000 -1.237277
v -0.352166 -1.050000 -1.199366
v -0.519269 -1.050000 -1.137040
v -0.675801 -1.050000 -1.051567
v -0.818576 -1.050000 -0.944687
v -0.944687 -1.050000 -0.818576
v -1.051567 -1.050000 -0.675801
v -1.137040 -1.050000 -0.519269
v -1.199366 -1.050000 -0.352166
v -1.237277 -1.050000 -0.177894
v -1.250000 -1.050000 0.000000
v -1.250000 0.000000 0.000000
v -1.237277 0.000000 -0.177894
v -1.199366 0.000000 -0.352166
v -1.137040 0.000000 -0.519269
v -1.051567 0.000000 -0.675801
v -0.944687 0.000000 -0.818576
v -0.818576 0.000000 -0.944687
v -0.675801 0.000000 -1.051567
v -0.519269 0.000000 -1.137040
v -0.352166 0.000000 -1.199366
v -0.177894 0.000000 -1.237277
v 0.000000 0.000000 -1.250000
v 0.177894 0.000000 -1.237277
v 0.352166 0.000000 -1.199366
v 0.519269 0.000000 -1.137040
v 0.675801 0.000000 -1.051567
v 0.818576 0.000000 -0.944687
v 0.944687 0.000000 -0.818576
v 1.051567 0.000000 -0.675801
v 1.137040 0.000000 -0.519269
v 1.199366 0.000000 -0.352166
v 1.237277 0.000000 -0.177894
v 1.250000 0.000000 0.000000
v 1.237277 0.000000 0.177894
v 1.237277 -1.050000 0.177894
v 1.199366 0.000000 0.352166
v 1.199366 -1.050000 0.352166
v 1.137040 0.000000 0.519269
v 1.137040 -1.050000 0.519269
v 1.051567 0.000000 0.675801
v 1.051567 -1.050000 0.675801
v 0.944687 0.000000 0.818576
v 0.944687 -1.050000 0.818576
v 0.818576 0.000000 0.944687
v 0.818576 -1.050000 0.944687
v 0.675801 0.000000 1.051567
v 0.675801 -1.050000 1.051567
v 0.519269 -1.050000 1.137040
v 0.519269 0.000000 1.137040
v 0.352166 -1.050000 1.199366
v 0.352166 0.000000 1.199366
v 0.177894 -1.050000 1.237277
v 0.177894 0.000000 1.237277
v -0.000000 -1.050000 1.250000
v 0.000000 0.000000 1.250000
v -0.177894 -1.050000 1.237277
v -0.177894 0.000000 1.237277
v -0.352166 -1.050000 1.199366
v -0.352166 0.000000 1.199366
v -0.519269 0.000000 1.137040
v -0.519269 -1.050000 1.137040
v -0.675801 -1.050000 1.051567
v -0.675801 0.000000 1.051567
v -0.818576 0.000000 0.944687
v -0.818576 -1.050000 0.944687
v -0.944687 -1.050000 0.818576
v -0.944687 0.000000 0.818576
v -1.051567 0.000000 0.675801
v -1.051567 -1.050000 0.675801
v -1.137040 -1.050000 0.519269
v -1.137040 0.000000 0.519269
v -1.199366 0.000000 0.352166
v -1.199366 -1.050000 0.352166
v -1.237277 0.000000 0.177894
v -1.237277 -1.050000 0.177894
v 1.414214 0.000000 1.414214
v 1.246980 0.000000 1.563663
v 1.563663 0.000000 1.246980
v 1.801938 0.000000 0.867767
v 1.693448 0.000000 1.064064
v 1.064064 0.000000 1.693448
v 0.867767 0.000000 1.801938
v 0.660558 0.000000 1.887767
v 1.887767 0.000000 0.660558
v 1.949856 0.000000 0.445042
v 0.445042 0.000000 1.949856
v 0.223929 0.000000 1.987424
v 1.987424 0.000000 0.223929
v 0.000000 0.000000 2.000000
v -0.223929 0.000000 1.987424
v 2.000000 0.000000 0.000000
v 1.987424 0.000000 -0.223929
v -0.445042 0.000000 1.949856
v 1.949856 0.000000 -0.445042
v -0.660558 0.000000 1.887767
v 1.887767 0.000000 -0.660558
v -0.867767 0.000000 1.801938
v 1.801938 0.000000 -0.867767
v -1.064064 0.000000 1.693448
v 1.693448 0.000000 -1.064064
v 1.563663 0.000000 -1.246980
v -1.246980 0.000000 1.563663
v 1.414214 0.000000 -1.414214
v -1.414214 0.000000 1.414214
v 1.246980 0.000000 -1.563663
v -1.563663 0.000000 1.246980
v 1.064064 0.000000 -1.693448
v -1.693448 0.000000 1.064064
v 0.867767 0.000000 -1.801938
v -1.801938 0.000000 0.867767
v 0.660558 0.000000 -1.887767
v -1.887767 0.000000 0.660558
v 0.445042 0.000000 -1.949856
v -1.949856 0.000000 0.445042
v 0.223929 0.000000 -1.987424
v -1.987424 0.000000 0.223929
v 0.000000 0.000000 -2.000000
v -2.000000 0.000000 0.000000
v -0.223929 0.000000 -1.987424
v -1.987424 0.000000 -0.223929
v -0.445042 0.000000 -1.949856
v -1.949856 0.000000 -0.445042
v -0.660558 0.000000 -1.887767
v -1.887767 0.000000 -0.660558
v -0.867767 0.000000 -1.801938
v -1.801938 0.000000 -0.867767
v -1.064064 0.000000 -1.693448
v -1.693448 0.000000 -1.064064
v -1.246980 0.000000 -1.563663
v -1.563663 0.000000 -1.246980
v -1.414214 0.000000 -1.414214
v -2.000000 0.400000 0.000000
v -1.987424 0.400000 -0.223929
v -1.949856 0.400000 -0.445042
v -1.887767 0.400000 -0.660558
v -1.801938 0.400000 -0.867767
v -1.693448 0.400000 -1.064064
v -1.563663 0.400000 -1.246980
v -1.414214 0.400000 -1.414214
v -1.246980 0.400000 -1.563663
v -1.064064 0.400000 -1.693448
v -0.867767 0.400000 -1.801938
v -0.660558 0.400000 -1.887767
v -0.445042 0.400000 -1.949856
v -0.223929 0.400000 -1.987424
v 0.000000 0.400000 -2.000000
v 0.223929 0.400000 -1.987424
v 0.445042 0.400000 -1.949856
v 0.660558 0.400000 -1.887767
v 0.867767 0.400000 -1.801938
v 1.064064 0.400000 -1.693448
v 1.246980 0.400000 -1.563663
v 1.414214 0.400000 -1.414214
v 1.563663 0.400000 -1.246980
v 1.693448 0.400000 -1.064064
v 1.801938 0.400000 -0.867767
v 1.887767 0.400000 -0.660558
v 1.949856 0.400000 -0.445042
v 1.987424 0.400000 -0.223929
v 2.000000 0.400000 0.000000
v -1.800000 0.600000 0.000000
v -1.787829 0.600000 -0.208967
v -1.751481 0.600000 -0.415109
v -1.691447 0.600000 -0.615636
v -1.608539 0.600000 -0.807838
v -1.503878 0.600000 -0.989116
v -1.378880 0.600000 -1.157018
v -1.235235 0.600000 -1.309273
v -1.074885 0.600000 -1.443822
v -0.900000 0.600000 -1.558846
v -0.712944 0.600000 -1.652789
v -0.516246 0.600000 -1.724381
v -0.312567 0.600000 -1.772654
v -0.104661 0.600000 -1.796955
v 0.104661 0.600000 -1.796955
v 0.312567 0.600000 -1.772654
v 0.516246 0.600000 -1.724381
v 0.712944 0.600000 -1.652789
v 0.900000 0.600000 -1.558846
v 1.074885 0.600000 -1.443822
v 1.235235 0.600000 -1.309273
v 1.378880 0.600000 -1.157018
v 1.503878 0.600000 -0.989116
v 1.608539 0.600000 -0.807838
v 1.691447 0.600000 -0.615636
v 1.751481 0.600000 -0.415109
v 1.787829 0.600000 -0.208967
v 1.800000 0.600000 0.000000
v 1.235235 0.600000 1.309273
v 0.575689 0.600000 0.625365
v 1.074885 0.600000 1.443822
v 1.378880 0.600000 1.157018
v 0.670769 0.600000 0.522081
v 1.503878 0.600000 0.989116
v 0.464906 0.600000 0.711591
v 0.900000 0.600000 1.558846
v 0.747553 0.600000 0.404555
v 1.608539 0.600000 0.807838
v 0.341441 0.600000 0.778407
v 0.712944 0.600000 1.652789
v 0.516246 0.600000 1.724381
v 0.803945 0.600000 0.275995
v 1.691447 0.600000 0.615636
v 1.751481 0.600000 0.415109
v 0.208663 0.600000 0.823990
v 0.312567 0.600000 1.772654
v 0.838407 0.600000 0.139905
v 1.787829 0.600000 0.208967
v 0.070192 0.600000 0.847097
v 0.104661 0.600000 1.796955
v 0.850000 0.600000 0.000000
v -0.104661 0.600000 1.796955
v -0.070192 0.600000 0.847097
v -0.312567 0.600000 1.772654
v 0.838407 0.600000 -0.139905
v -0.208663 0.600000 0.823990
v -0.516246 0.600000 1.724381
v 0.803945 0.600000 -0.275995
v -0.712944 0.600000 1.652789
v -0.341441 0.600000 0.778407
v -0.900000 0.600000 1.558846
v 0.747553 0.600000 -0.404555
v -0.464906 0.600000 0.711591
v -1.074885 0.600000 1.443822
v 0.670769 0.600000 -0.522081
v -0.575689 0.600000 0.625365
v -1.235235 0.600000 1.309273
v 0.575689 0.600000 -0.625365
v -0.670769 0.600000 0.522081
v -1.378880 0.600000 1.157018
v 0.464906 0.600000 -0.711591
v -1.503878 0.600000 0.989116
v -0.747553 0.600000 0.404555
v 0.341441 0.600000 -0.778407
v -0.803945 0.600000 0.275995
v -1.608539 0.600000 0.807838
v -1.691447 0.600000 0.615636
v 0.208663 0.600000 -0.823990
v -1.751481 0.600000 0.415109
v -0.838407 0.600000 0.139905
v 0.070192 0.600000 -0.847097
v -1.787829 0.600000 0.208967
v -0.850000 0.600000 0.000000
v -0.070192 0.600000 -0.847097
v -0.838407 0.600000 -0.139905
v -0.208663 0.600000 -0.823990
v -0.803945 0.600000 -0.275995
v -0.341441 0.600000 -0.778407
v -0.747553 0.600000 -0.404555
v -0.464906 0.600000 -0.711591
v -0.670769 0.600000 -0.522081
v -0.575689 0.600000 -0.625365
v 0.850000 -0.900000 0.000000
v 0.838407 -0.900000 -0.139905
v 0.803945 -0.900000 -0.275995
v 0.747553 -0.900000 -0.404555
v 0.670769 -0.900000 -0.522081
v 0.575689 -0.900000 -0.625365
v 0.464906 -0.900000 -0.711591
v 0.341441 -0.900000 -0.778407
v 0.208663 -0.900000 -0.823990
v 0.070192 -0.900000 -0.847097
v -0.070192 -0.900000 -0.847097
v -0.208663 -0.900000 -0.823990
v -0.341441 -0.900000 -0.778407
v -0.464906 -0.900000 -0.711591
v -0.575689 -0.900000 -0.625365
v -0.670769 -0.900000 -0.522081
v -0.747553 -0.900000 -0.404555
v -0.803945 -0.900000 -0.275995
v -0.838407 -0.900000 -0.139905
v -0.850000 -0.900000 0.000000
v -0.929240 -1.000000 -0.197516
v -0.867868 -1.000000 -0.386400
v -0.768566 -1.000000 -0.558396
v -0.635674 -1.000000 -0.705988
v -0.475000 -1.000000 -0.822724
v -0.293566 -1.000000 -0.903504
v -0.099302 -1.000000 -0.944796
v 0.099302 -1.000000 -0.944796
v 0.293566 -1.000000 -0.903504
v 0.475000 -1.000000 -0.822724
v 0.635674 -1.000000 -0.705988
v 0.768566 -1.000000 -0.558396
v 0.867868 -1.000000 -0.386400
v 0.929240 -1.000000 -0.197516
v 0.929240 -1.000000 0.197516
v 0.838407 -0.900000 0.139905
v 0.803945 -0.900000 0.275995
v 0.867868 -1.000000 0.386400
v 0.747553 -0.900000 0.404555
v 0.768566 -1.000000 0.558396
v 0.670769 -0.900000 0.522081
v 0.635674 -1.000000 0.705988
v 0.575689 -0.900000 0.625365
v 0.464906 -0.900000 0.711591
v 0.475000 -1.000000 0.822724
v 0.341441 -0.900000 0.778407
v 0.293566 -1.000000 0.903504
v 0.208663 -0.900000 0.823990
v 0.099302 -1.000000 0.944796
v 0.070192 -0.900000 0.847097
v -0.099302 -1.000000 0.944796
v -0.070192 -0.900000 0.847097
v -0.208663 -0.900000 0.823990
v -0.293566 -1.000000 0.903504
v -0.341441 -0.900000 0.778407
v -0.475000 -1.000000 0.822724
v -0.464906 -0.900000 0.711591
v -0.635674 -1.000000 0.705988
v -0.575689 -0.900000 0.625365
v -0.670769 -0.900000 0.522081
v -0.768566 -1.000000 0.558396
v -0.747553 -0.900000 0.404555
v -0.867868 -1.000000 0.386400
v -0.803945 -0.900000 0.275995
v -0.929240 -1.000000 0.197516
v -0.838407 -0.900000 0.139905
v 1.987424 0.400000 0.223929
v 1.949856 0.400000 0.445042
v 1.887767 0.400000 0.660558
v 1.801938 0.400000 0.867767
v 1.693448 0.400000 1.064064
v 1.563663 0.400000 1.246980
v 1.414214 0.400000 1.414214
v 1.246980 0.400000 1.563663
v 1.064064 0.400000 1.693448
v 0.867767 0.400000 1.801938
v 0.660558 0.400000 1.887767
v 0.445042 0.400000 1.949856
v 0.223929 0.400000 1.987424
v -0.000000 0.400000 2.000000
v -0.223929 0.400000 1.987424
v -0.445042 0.400000 1.949856
v -0.660558 0.400000 1.887767
v -0.867767 0.400000 1.801938
v -1.064064 0.400000 1.693448
v -1.246980 0.400000 1.563663
v -1.414214 0.400000 1.414214
v -1.563663 0.400000 1.246980
v -1.693448 0.400000 1.064064
v -1.801938 0.400000 0.867767
v -1.887767 0.400000 0.660558
v -1.949856 0.400000 0.445042
v -1.987424 0.400000 0.223929
vn 0.000000 -1.000000 0.000000
vn 0.000000 -1.000000 0.000000
vn 0.000000 -1.000000 0.000000
vn 0.000000 -1.000000 0.000000
vn 0.000000 -1.000000 0.000000
vn 0.000000 -1.000000 0.000000
vn 0.000000 -1.000000 0.000000
vn 0.000000 -1.000000 0.000000
vn 0.000000 -1.000000 0.000000
vn 0.000000 -1.000000 0.000000
vn 0.000000 -1.000000 0.000000
vn 0.000000 -1.000000 0.000000
vn 0.000000 -1.000000 0.000000
vn 0.000000 -1.000000 0.000000
vn 0.000000 -1.000000 0.000000
vn 0.000000 -1.000000 0.000000
vn 0.000000 -1.000000 0.000000
vn 0.000000 -1.000000 0.000000
vn 0.000000 -1.000000 0.000000
vn 0.000000 -1.000000 0.000000
vn 0.000000 -1.000000 0.000000
vn 0.000000 -1.000000 0.000000
vn 0.000000 -1.000000 0.000000
vn 0.000000 -1.000000 0.000000
vn 0.000000 -1.000000 0.000000
vn 0.000000 -1.000000 0.000000
vn 0.000000 -1.000000 0.000000
vn 0.000000 -1.000000 0.000000
vn 0.000000 -1.000000 0.000000
vn 0.000000 -1.000000 0.000000
vn 0.000000 -1.000000 0.000000
vn 0.000000 -1.000000 0.000000
vn 0.000000 -1.000000 0.000000
vn 0.000000 -1.000000 0.000000
vn 0.000000 -1.000000 0.000000
vn 0.000000 -1.000000 0.000000
vn 0.000000 -1.000000 0.000000
vn 0.000000 -1.000000 0.000000
vn 0.000000 -1.000000 0.000000
vn 0.000000 -1.000000 0.000000
vn 0.000000 -1.000000 0.000000
vn 0.000000 -1.000000 0.000000
vn 0.000000 -1.000000 0.000000
vn 0.000000 -1.000000 0.000000
vn 0.000000 -1.000000 0.000000
vn 0.000000 -1.000000 0.000000
vn 0.000000 -1.000000 0.000000
vn 0.000000 -1.000000 0.000000
vn 0.000000 -1.000000 0.000000
vn 0.000000 -1.000000 0.000000
vn 0.000000 -1.000000 0.000000
vn 0.000000 -1.000000 0.000000
vn 0.000000 -1.000000 0.000000
vn 0.000000 -1.000000 0.000000
vn 0.000000 -1.000000 0.000000
vn 0.000000 -1.000000 0.000000
vn 0.000000 -1.000000 0.000000
vn 0.000000 -1.000000 0.000000
vn 0.000000 -1.000000 0.000000
vn 0.000000 -1.000000 0.000000
vn 0.000000 -1.000000 0.000000
vn 0.000000 -1.000000 0.000000
vn 0.000000 -1.000000 0.000000
vn 0.000000 -1.000000 0.000000
vn 0.000000 -1.000000 0.000000
vn 0.000000 -1.000000 0.000000
vn 0.000000 -1.000000 0.000000
vn 0.000000 -1.000000 0.000000
vn 0.000000 -1.000000 0.000000
vn 0.000000 -1.000000 0.000000
vn 0.000000 -1.000000 0.000000
vn 0.000000 -1.000000 0.000000
vn 0.000000 -1.000000 0.000000
vn 0.000000 -1.000000 0.000000
vn 0.000000 -1.000000 0.000000
vn 0.000000 -1.000000 0.000000
vn 0.000000 -1.000000 0.000000
vn 0.000000 -1.000000 0.000000
vn 0.000000 -1.000000 0.000000
vn 0.000000 -1.000000 0.000000
vn 0.000000 -1.000000 0.000000
vn 0.000000 -1.000000 0.000000
vn 0.000000 -1.000000 0.000000
vn 0.000000 -1.000000 0.000000
vn 0.000000 -1.000000 0.000000
vn 0.000000 -1.000000 0.000000
vn 0.706205 -0.706203 -0.050509
vn 0.706205 -0.706204 -0.050509
vn 0.691829 -0.706203 -0.150498
vn 0.691829 -0.706204 -0.150498
vn 0.663368 -0.706204 -0.247424
vn 0.663369 -0.706203 -0.247424
vn 0.621404 -0.706204 -0.339312
vn 0.621404 -0.706204 -0.339312
vn 0.566791 -0.706204 -0.424294
vn 0.566789 -0.706204 -0.424294
vn 0.500638 -0.706204 -0.500638
vn 0.500638 -0.706203 -0.500638
vn 0.424293 -0.706204 -0.566790
vn 0.424294 -0.706203 -0.566790
vn 0.339312 -0.706204 -0.621404
vn 0.339312 -0.706204 -0.621404
vn 0.247424 -0.706203 -0.663369
vn 0.247423 -0.706204 -0.663368
vn 0.150498 -0.706204 -0.691829
vn 0.150498 -0.706203 -0.691829
vn 0.050509 -0.706203 -0.706205
vn 0.050509 -0.706204 -0.706205
vn -0.050509 -0.706204 -0.706205
vn -0.050509 -0.706203 -0.706205
vn -0.150498 -0.706203 -0.691829
vn -0.150498 -0.706204 -0.691829
vn -0.247424 -0.706203 -0.663369
vn -0.247423 -0.706204 -0.663368
vn -0.339312 -0.706204 -0.621404
vn -0.339312 -0.706204 -0.621404
vn -0.424294 -0.706204 -0.566789
vn -0.424294 -0.706204 -0.566791
vn -0.500638 -0.706203 -0.500638
vn -0.500638 -0.706204 -0.500638
vn -0.566790 -0.706204 -0.424293
vn -0.566790 -0.706203 -0.424294
vn -0.621404 -0.706204 -0.339312
vn -0.621404 -0.706204 -0.339312
vn -0.663369 -0.706203 -0.247424
vn -0.663368 -0.706204 -0.247423
vn -0.691829 -0.706203 -0.150498
vn -0.691829 -0.706204 -0.150498
vn -0.706205 -0.706203 -0.050509
vn -0.706205 -0.706204 -0.050509
vn -0.997452 0.000000 -0.071339
vn -0.997452 0.000000 -0.071339
vn -0.977147 0.000000 -0.212565
vn -0.977147 0.000000 -0.212565
vn -0.936950 0.000000 -0.349464
vn -0.936950 0.000000 -0.349464
vn -0.877679 0.000000 -0.479249
vn -0.877679 0.000000 -0.479249
vn -0.800541 0.000000 -0.599278
vn -0.800541 0.000000 -0.599278
vn -0.707107 0.000000 -0.707107
vn -0.707107 0.000000 -0.707107
vn -0.479249 0.000000 -0.877679
vn -0.599278 0.000000 -0.800541
vn -0.599278 0.000000 -0.800541
vn -0.479249 0.000000 -0.877679
vn -0.349464 0.000000 -0.936950
vn -0.349464 0.000000 -0.936950
vn -0.212565 0.000000 -0.977147
vn -0.212565 0.000000 -0.977147
vn -0.071339 0.000000 -0.997452
vn -0.071339 0.000000 -0.997452
vn 0.071339 0.000000 -0.997452
vn 0.071339 0.000000 -0.997452
vn 0.212565 0.000000 -0.977147
vn 0.349464 0.000000 -0.936950
vn 0.212565 0.000000 -0.977147
vn 0.349464 0.000000 -0.936950
vn 0.479249 0.000000 -0.877679
vn 0.479249 0.000000 -0.877679
vn 0.599278 0.000000 -0.800541
vn 0.599278 0.000000 -0.800541
vn 0.707107 0.000000 -0.707107
vn 0.707107 0.000000 -0.707107
vn 0.877679 0.000000 -0.479249
vn 0.800541 0.000000 -0.599278
vn 0.800541 0.000000 -0.599278
vn 0.877679 0.000000 -0.479249
vn 0.977147 0.000000 -0.212565
vn 0.936950 0.000000 -0.349464
vn 0.936950 0.000000 -0.349464
vn 0.977147 0.000000 -0.212565
vn 0.997452 0.000000 -0.071339
vn 0.997452 0.000000 -0.071339
vn 0.997452 -0.000000 0.071339
vn 0.977147 -0.000000 0.212565
vn 0.997452 -0.000000 0.071339
vn 0.936950 -0.000000 0.349464
vn 0.977147 -0.000000 0.212565
vn 0.877679 -0.000000 0.479249
vn 0.936950 -0.000000 0.349464
vn 0.800541 -0.000000 0.599278
vn 0.877679 -0.000000 0.479249
vn 0.707107 -0.000000 0.707107
vn 0.800541 -0.000000 0.599278
vn 0.599278 -0.000000 0.800541
vn 0.707107 -0.000000 0.707107
vn 0.599278 -0.000000 0.800541
vn 0.479249 -0.000000 0.877679
vn 0.479249 0.000000 0.877679
vn 0.349464 -0.000000 0.936950
vn 0.349464 0.000000 0.936950
vn 0.212565 -0.000000 0.977147
vn 0.212565 0.000000 0.977147
vn 0.071339 -0.000000 0.997452
vn 0.071339 0.000000 0.997452
vn -0.071339 0.000000 0.997452
vn -0.071339 0.000000 0.997452
vn -0.212565 0.000000 0.977147
vn -0.212565 0.000000 0.977147
vn -0.349464 0.000000 0.936950
vn -0.349464 0.000000 0.936950
vn -0.479249 0.000000 0.877679
vn -0.479249 0.000000 0.877679
vn -0.599278 0.000000 0.800541
vn -0.599278 0.000000 0.800541
vn -0.707107 0.000000 0.707107
vn -0.707107 0.000000 0.707107
vn -0.800541 0.000000 0.599278
vn -0.800541 0.000000 0.599278
vn -0.877679 0.000000 0.479249
vn -0.936950 0.000000 0.349464
vn -0.877679 0.000000 0.479249
vn -0.977147 0.000000 0.212565
vn -0.936950 0.000000 0.349464
vn -0.977147 0.000000 0.212565
vn -0.997452 0.000000 0.071339
vn -0.997452 0.000000 0.071339
vn -0.706205 -0.706203 0.050509
vn -0.706205 -0.706204 0.050509
vn -0.691829 -0.706203 0.150498
vn -0.691829 -0.706204 0.150498
vn -0.663368 -0.706204 0.247424
vn -0.663369 -0.706203 0.247424
vn -0.621404 -0.706204 0.339312
vn -0.621404 -0.706204 0.339312
vn -0.566791 -0.706204 0.424294
vn -0.566789 -0.706204 0.424294
vn -0.500638 -0.706204 0.500638
vn -0.500638 -0.706203 0.500638
vn -0.424293 -0.706204 0.566790
vn -0.424294 -0.706203 0.566790
vn -0.339312 -0.706204 0.621404
vn -0.339312 -0.706204 0.621404
vn -0.247424 -0.706203 0.663369
vn -0.247423 -0.706204 0.663368
vn -0.150498 -0.706204 0.691829
vn -0.150498 -0.706203 0.691829
vn -0.050509 -0.706203 0.706205
vn -0.050509 -0.706204 0.706205
vn 0.050509 -0.706204 0.706205
vn 0.050509 -0.706203 0.706205
vn 0.150498 -0.706203 0.691829
vn 0.150498 -0.706204 0.691829
vn 0.247424 -0.706203 0.663369
vn 0.247423 -0.706204 0.663368
vn 0.339312 -0.706204 0.621404
vn 0.339312 -0.706204 0.621404
vn 0.424293 -0.706204 0.566790
vn 0.424294 -0.706204 0.566790
vn 0.500638 -0.706203 0.500638
vn 0.500638 -0.706204 0.500638
vn 0.566790 -0.706204 0.424293
vn 0.566790 -0.706203 0.424294
vn 0.621404 -0.706204 0.339312
vn 0.621404 -0.706204 0.339312
vn 0.663369 -0.706203 0.247424
vn 0.663368 -0.706204 0.247423
vn 0.691829 -0.706204 0.150498
vn 0.691829 -0.706203 0.150498
vn 0.706205 -0.706203 0.050509
vn 0.706205 -0.706204 0.050509
vn 0.000000 -1.000000 0.000000
vn 0.000000 -1.000000 0.000000
vn 0.000000 -1.000000 0.000000
vn 0.000000 -1.000000 0.000000
vn 0.000000 -1.000000 0.000000
vn 0.000000 -1.000000 0.000000
vn 0.000000 -1.000000 0.000000
vn 0.000000 -1.000000 0.000000
vn 0.000000 -1.000000 0.000000
vn 0.000000 -1.000000 0.000000
vn 0.000000 -1.000000 0.000000
vn 0.000000 -1.000000 0.000000
vn 0.000000 -1.000000 0.000000
vn 0.000000 -1.000000 0.000000
vn 0.000000 -1.000000 0.000000
vn 0.000000 -1.000000 0.000000
vn 0.000000 -1.000000 0.000000
vn 0.000000 -1.000000 0.000000
vn 0.000000 -1.000000 0.000000
vn 0.000000 -1.000000 0.000000
vn 0.000000 -1.000000 0.000000
vn 0.000000 -1.000000 0.000000
vn 0.000000 -1.000000 0.000000
vn 0.000000 -1.000000 0.000000
vn 0.000000 -1.000000 0.000000
vn 0.000000 -1.000000 0.000000
vn 0.000000 -1.000000 0.000000
vn 0.000000 -1.000000 0.000000
vn 0.000000 -1.000000 0.000000
vn 0.000000 -1.000000 0.000000
vn 0.000000 -1.000000 0.000000
vn 0.000000 -1.000000 0.000000
vn 0.000000 -1.000000 0.000000
vn 0.000000 -1.000000 0.000000
vn 0.000000 -1.000000 0.000000
vn 0.000000 -1.000000 0.000000
vn 0.000000 -1.000000 0.000000
vn 0.000000 -1.000000 0.000000
vn 0.000000 -1.000000 0.000000
vn 0.000000 -1.000000 0.000000
vn 0.000000 -1.000000 0.000000
vn 0.000000 -1.000000 0.000000
vn 0.000000 -1.000000 0.000000
vn 0.000000 -1.000000 0.000000
vn 0.000000 -1.000000 0.000000
vn 0.000000 -1.000000 0.000000
vn 0.000000 -1.000000 0.000000
vn 0.000000 -1.000000 0.000000
vn 0.000000 -1.000000 0.000000
vn 0.000000 -1.000000 0.000000
vn 0.000000 -1.000000 0.000000
vn 0.000000 -1.000000 0.000000
vn 0.000000 -1.000000 0.000000
vn 0.000000 -1.000000 0.000000
vn 0.000000 -1.000000 0.000000
vn 0.000000 -1.000000 0.000000
vn 0.000000 -1.000000 0.000000
vn 0.000000 -1.000000 0.000000
vn 0.000000 -1.000000 0.000000
vn 0.000000 -1.000000 0.000000
vn 0.000000 -1.000000 0.000000
vn 0.000000 -1.000000 0.000000
vn 0.000000 -1.000000 0.000000
vn 0.000000 -1.000000 0.000000
vn 0.000000 -1.000000 0.000000
vn 0.000000 -1.000000 0.000000
vn 0.000000 -1.000000 0.000000
vn 0.000000 -1.000000 0.000000
vn 0.000000 -1.000000 0.000000
vn 0.000000 -1.000000 0.000000
vn 0.000000 -1.000000 0.000000
vn 0.000000 -1.000000 0.000000
vn 0.000000 -1.000000 0.000000
vn 0.000000 -1.000000 0.000000
vn 0.000000 -1.000000 0.000000
vn 0.000000 -1.000000 0.000000
vn 0.000000 -1.000000 0.000000
vn 0.000000 -1.000000 0.000000
vn 0.000000 -1.000000 0.000000
vn 0.000000 -1.000000 0.000000
vn 0.000000 -1.000000 0.000000
vn 0.000000 -1.000000 0.000000
vn 0.000000 -1.000000 0.000000
vn 0.000000 -1.000000 0.000000
vn 0.000000 -1.000000 0.000000
vn 0.000000 -1.000000 0.000000
vn 0.000000 -1.000000 0.000000
vn 0.000000 -1.000000 0.000000
vn 0.000000 -1.000000 0.000000
vn 0.000000 -1.000000 0.000000
vn 0.000000 -1.000000 0.000000
vn 0.000000 -1.000000 0.000000
vn 0.000000 -1.000000 0.000000
vn 0.000000 -1.000000 0.000000
vn 0.000000 -1.000000 0.000000
vn 0.000000 -1.000000 0.000000
vn 0.000000 -1.000000 0.000000
vn 0.000000 -1.000000 0.000000
vn 0.000000 -1.000000 0.000000
vn 0.000000 -1.000000 0.000000
vn -0.998427 0.000000 -0.056071
vn -0.998427 0.000000 -0.056071
vn -0.985871 0.000000 -0.167506
vn -0.985871 0.000000 -0.167506
vn -0.960917 0.000000 -0.276835
vn -0.960917 0.000000 -0.276835
vn -0.923879 0.000000 -0.382684
vn -0.923879 0.000000 -0.382684
vn -0.815561 0.000000 -0.578671
vn -0.875224 0.000000 -0.483719
vn -0.875224 0.000000 -0.483719
vn -0.815561 0.000000 -0.578671
vn -0.745642 0.000000 -0.666347
vn -0.745642 0.000000 -0.666347
vn -0.666347 0.000000 -0.745642
vn -0.666347 0.000000 -0.745642
vn -0.578671 0.000000 -0.815561
vn -0.578671 0.000000 -0.815561
vn -0.483719 0.000000 -0.875224
vn -0.382684 0.000000 -0.923879
vn -0.483719 0.000000 -0.875224
vn -0.382684 0.000000 -0.923879
vn -0.276835 0.000000 -0.960917
vn -0.167506 0.000000 -0.985871
vn -0.276835 0.000000 -0.960917
vn -0.167506 0.000000 -0.985871
vn -0.056071 0.000000 -0.998427
vn -0.056071 0.000000 -0.998427
vn 0.056071 0.000000 -0.998427
vn 0.056071 0.000000 -0.998427
vn 0.167506 0.000000 -0.985871
vn 0.167506 0.000000 -0.985871
vn 0.276835 0.000000 -0.960917
vn 0.276835 0.000000 -0.960917
vn 0.382684 0.000000 -0.923879
vn 0.382684 0.000000 -0.923879
vn 0.483719 0.000000 -0.875224
vn 0.578671 0.000000 -0.815561
vn 0.483719 0.000000 -0.875224
vn 0.578671 0.000000 -0.815561
vn 0.745642 0.000000 -0.666347
vn 0.666347 0.000000 -0.745642
vn 0.666347 0.000000 -0.745642
vn 0.815561 0.000000 -0.578671
vn 0.745642 0.000000 -0.666347
vn 0.815561 0.000000 -0.578671
vn 0.923879 0.000000 -0.382684
vn 0.875224 0.000000 -0.483719
vn 0.875224 0.000000 -0.483719
vn 0.960917 0.000000 -0.276835
vn 0.923879 0.000000 -0.382684
vn 0.960917 0.000000 -0.276835
vn 0.985871 0.000000 -0.167506
vn 0.985871 0.000000 -0.167506
vn 0.998427 0.000000 -0.056071
vn 0.998427 0.000000 -0.056071
vn -0.706550 0.706550 -0.039679
vn -0.705685 0.707332 -0.041101
vn -0.695392 0.708093 -0.122616
vn -0.698370 0.705833 -0.118658
vn -0.675783 0.708791 -0.202317
vn -0.681328 0.705169 -0.196287
vn -0.647140 0.709426 -0.279149
vn -0.655626 0.704560 -0.271570
vn -0.609857 0.710000 -0.352101
vn -0.621581 0.704004 -0.343535
vn -0.564442 0.710512 -0.420212
vn -0.579614 0.703502 -0.411258
vn -0.511511 0.710963 -0.482586
vn -0.530252 0.703056 -0.473862
vn -0.451774 0.711353 -0.538403
vn -0.474120 0.702664 -0.530541
vn -0.386031 0.711682 -0.586932
vn -0.411929 0.702328 -0.580560
vn -0.315160 0.711951 -0.627535
vn -0.344471 0.702048 -0.623273
vn -0.240104 0.712161 -0.659680
vn -0.272605 0.701823 -0.658127
vn -0.197250 0.701654 -0.684670
vn -0.161861 0.712310 -0.682946
vn -0.119370 0.701542 -0.702560
vn -0.081471 0.712399 -0.697029
vn -0.039961 0.701486 -0.711562
vn 0.000000 0.712429 -0.701744
vn 0.039961 0.701486 -0.711562
vn 0.081471 0.712399 -0.697029
vn 0.119370 0.701542 -0.702560
vn 0.161861 0.712310 -0.682946
vn 0.197250 0.701654 -0.684670
vn 0.240104 0.712161 -0.659680
vn 0.272605 0.701823 -0.658127
vn 0.315160 0.711951 -0.627535
vn 0.344471 0.702047 -0.623273
vn 0.386031 0.711682 -0.586932
vn 0.451774 0.711353 -0.538403
vn 0.411929 0.702328 -0.580560
vn 0.511511 0.710963 -0.482586
vn 0.474120 0.702664 -0.530541
vn 0.564442 0.710512 -0.420212
vn 0.530252 0.703056 -0.473862
vn 0.609857 0.710000 -0.352101
vn 0.579614 0.703502 -0.411258
vn 0.647140 0.709426 -0.279149
vn 0.621581 0.704004 -0.343535
vn 0.675783 0.708791 -0.202317
vn 0.655626 0.704560 -0.271570
vn 0.695392 0.708093 -0.122616
vn 0.681328 0.705169 -0.196287
vn 0.705685 0.707332 -0.041101
vn 0.698370 0.705833 -0.118658
vn 0.706550 0.706550 -0.039679
vn 0.000000 1.000000 0.000000
vn 0.000000 1.000000 0.000000
vn 0.000000 1.000000 0.000000
vn 0.000000 1.000000 0.000000
vn 0.000000 1.000000 -0.000000
vn 0.000000 1.000000 0.000000
vn 0.000000 1.000000 0.000000
vn 0.000000 1.000000 0.000000
vn 0.000000 1.000000 -0.000000
vn 0.000000 1.000000 0.000000
vn 0.000000 1.000000 0.000000
vn 0.000000 1.000000 0.000000
vn 0.000000 1.000000 0.000000
vn 0.000000 1.000000 0.000000
vn 0.000000 1.000000 0.000000
vn 0.000000 1.000000 -0.000000
vn 0.000000 1.000000 0.000000
vn 0.000000 1.000000 0.000000
vn 0.000000 1.000000 -0.000000
vn 0.000000 1.000000 0.000000
vn 0.000000 1.000000 -0.000000
vn 0.000000 1.000000 0.000000
vn 0.000000 1.000000 0.000000
vn 0.000000 1.000000 0.000000
vn 0.000000 1.000000 0.000000
vn 0.000000 1.000000 -0.000000
vn 0.000000 1.000000 -0.000000
vn 0.000000 1.000000 0.000000
vn 0.000000 1.000000 0.000000
vn 0.000000 1.000000 0.000000
vn 0.000000 1.000000 -0.000000
vn 0.000000 1.000000 -0.000000
vn 0.000000 1.000000 0.000000
vn 0.000000 1.000000 0.000000
vn 0.000000 1.000000 0.000000
vn 0.000000 1.000000 0.000000
vn 0.000000 1.000000 -0.000000
vn 0.000000 1.000000 0.000000
vn 0.000000 1.000000 0.000000
vn 0.000000 1.000000 0.000000
vn 0.000000 1.000000 -0.000000
vn 0.000000 1.000000 0.000000
vn 0.000000 1.000000 0.000000
vn 0.000000 1.000000 0.000000
vn 0.000000 1.000000 0.000000
vn 0.000000 1.000000 0.000000
vn 0.000000 1.000000 -0.000000
vn 0.000000 1.000000 0.000000
vn 0.000000 1.000000 0.000000
vn 0.000000 1.000000 0.000000
vn 0.000000 1.000000 0.000000
vn 0.000000 1.000000 -0.000000
vn 0.000000 1.000000 0.000000
vn 0.000000 1.000000 0.000000
vn 0.000000 1.000000 -0.000000
vn 0.000000 1.000000 0.000000
vn 0.000000 1.000000 0.000000
vn 0.000000 1.000000 0.000000
vn 0.000000 1.000000 0.000000
vn 0.000000 1.000000 0.000000
vn 0.000000 1.000000 0.000000
vn 0.000000 1.000000 -0.000000
vn 0.000000 1.000000 0.000000
vn 0.000000 1.000000 0.000000
vn 0.000000 1.000000 0.000000
vn 0.000000 1.000000 -0.000000
vn 0.000000 1.000000 0.000000
vn 0.000000 1.000000 0.000000
vn 0.000000 1.000000 0.000000
vn 0.000000 1.000000 0.000000
vn 0.000000 1.000000 0.000000
vn 0.000000 1.000000 0.000000
vn 0.000000 1.000000 -0.000000
vn 0.000000 1.000000 0.000000
vn 0.000000 1.000000 0.000000
vn 0.000000 1.000000 0.000000
vn 0.000000 1.000000 -0.000000
vn 0.000000 1.000000 0.000000
vn 0.000000 1.000000 0.000000
vn 0.000000 1.000000 -0.000000
vn 0.000000 1.000000 0.000000
vn 0.000000 1.000000 0.000000
vn 0.000000 1.000000 -0.000000
vn 0.000000 1.000000 0.000000
vn 0.000000 1.000000 0.000000
vn 0.000000 1.000000 0.000000
vn 0.000000 1.000000 0.000000
vn 0.000000 1.000000 -0.000000
vn 0.000000 1.000000 0.000000
vn 0.000000 1.000000 0.000000
vn 0.000000 1.000000 0.000000
vn 0.000000 1.000000 -0.000000
vn -0.996584 0.000000 0.082580
vn -0.996584 0.000000 0.082580
vn -0.969400 0.000000 0.245486
vn -0.969400 0.000000 0.245486
vn -0.915773 0.000000 0.401695
vn -0.915773 0.000000 0.401695
vn -0.837166 0.000000 0.546948
vn -0.837166 0.000000 0.546948
vn -0.735724 0.000000 0.677282
vn -0.735724 0.000000 0.677282
vn -0.614213 0.000000 0.789140
vn -0.614213 0.000000 0.789140
vn -0.475948 0.000000 0.879474
vn -0.475948 0.000000 0.879474
vn -0.324699 0.000000 0.945817
vn -0.324699 0.000000 0.945817
vn -0.164594 0.000000 0.986361
vn 0.000000 -0.000000 1.000000
vn -0.164594 0.000000 0.986361
vn 0.000000 0.000000 1.000000
vn 0.164594 0.000000 0.986361
vn 0.164594 0.000000 0.986361
vn 0.324699 0.000000 0.945817
vn 0.475948 -0.000000 0.879474
vn 0.324699 0.000000 0.945817
vn 0.475948 0.000000 0.879474
vn 0.614213 0.000000 0.789140
vn 0.735724 -0.000000 0.677282
vn 0.614213 0.000000 0.789140
vn 0.735724 0.000000 0.677282
vn 0.837166 0.000000 0.546948
vn 0.837166 0.000000 0.546948
vn 0.915773 0.000000 0.401695
vn 0.915773 0.000000 0.401695
vn 0.969400 0.000000 0.245486
vn 0.969400 0.000000 0.245486
vn 0.996584 0.000000 0.082580
vn 0.996584 0.000000 0.082580
vn 0.699200 -0.696887 0.159588
vn 0.685458 -0.726298 0.051368
vn 0.705162 -0.705162 0.074115
vn 0.677984 -0.714745 0.171689
vn 0.721512 -0.689816 0.059786
vn 0.689819 -0.688414 0.224136
vn 0.664774 -0.700004 0.260904
vn 0.655617 -0.724422 0.213023
vn 0.638265 -0.717102 0.279969
vn 0.558337 -0.700003 0.445259
vn 0.605467 -0.714991 0.349567
vn 0.586854 -0.713160 0.383411
vn 0.627496 -0.689201 0.362285
vn 0.605467 -0.714991 0.349567
vn 0.487807 -0.696887 0.525731
vn 0.433304 -0.708747 0.556709
vn 0.523533 -0.702596 0.481946
vn 0.533485 -0.696172 0.480352
vn 0.512292 -0.724422 0.461270
vn 0.424357 -0.691935 0.584077
vn 0.307231 -0.706116 0.637973
vn 0.407100 -0.721322 0.560325
vn 0.398885 -0.706116 0.585056
vn 0.332295 -0.715926 0.614027
vn 0.211393 -0.696887 0.685319
vn 0.226436 -0.716711 0.659585
vn 0.295166 -0.688019 0.662953
vn 0.281706 -0.721322 0.632722
vn 0.106437 -0.700003 0.706163
vn 0.115714 -0.711165 0.693437
vn 0.150414 -0.690376 0.707641
vn 0.143325 -0.724422 0.674293
vn -0.106437 -0.700003 0.706163
vn 0.000000 -0.714991 0.699134
vn -0.115714 -0.711165 0.693437
vn 0.000000 -0.698829 0.715288
vn 0.000000 -0.714991 0.699134
vn 0.000000 -0.698829 0.715288
vn -0.211393 -0.696887 0.685319
vn -0.226436 -0.716711 0.659585
vn -0.150414 -0.690376 0.707641
vn -0.143325 -0.724422 0.674293
vn -0.398885 -0.706116 0.585057
vn -0.307231 -0.706116 0.637973
vn -0.332295 -0.715927 0.614027
vn -0.295166 -0.688019 0.662953
vn -0.281706 -0.721321 0.632722
vn -0.487807 -0.696887 0.525731
vn -0.424357 -0.691935 0.584077
vn -0.523533 -0.702596 0.481946
vn -0.433304 -0.708747 0.556709
vn -0.407100 -0.721322 0.560325
vn -0.558337 -0.700003 0.445259
vn -0.586854 -0.713160 0.383411
vn -0.533485 -0.696172 0.480352
vn -0.512292 -0.724422 0.461270
vn -0.664774 -0.700004 0.260904
vn -0.605467 -0.714991 0.349567
vn -0.638265 -0.717102 0.279969
vn -0.627496 -0.689201 0.362285
vn -0.605467 -0.714991 0.349567
vn -0.685458 -0.726298 0.051368
vn -0.699200 -0.696887 0.159588
vn -0.721512 -0.689816 0.059786
vn -0.677984 -0.714745 0.171689
vn -0.705162 -0.705162 0.074115
vn -0.689819 -0.688414 0.224136
vn -0.655617 -0.724422 0.213023
vn -0.699200 -0.696887 -0.159588
vn -0.685458 -0.726298 -0.051368
vn -0.705162 -0.705162 -0.074115
vn -0.677984 -0.714745 -0.171689
vn -0.721512 -0.689816 -0.059786
vn -0.689819 -0.688414 -0.224136
vn -0.664774 -0.700004 -0.260904
vn -0.655617 -0.724422 -0.213023
vn -0.638265 -0.717102 -0.279969
vn -0.558337 -0.700003 -0.445259
vn -0.605467 -0.714991 -0.349567
vn -0.586854 -0.713160 -0.383411
vn -0.627496 -0.689201 -0.362285
vn -0.605467 -0.714991 -0.349567
vn -0.487807 -0.696887 -0.525731
vn -0.433304 -0.708747 -0.556709
vn -0.523533 -0.702596 -0.481946
vn -0.533485 -0.696172 -0.480352
vn -0.512292 -0.724422 -0.461270
vn -0.424357 -0.691935 -0.584077
vn -0.307231 -0.706116 -0.637973
vn -0.407100 -0.721322 -0.560325
vn -0.398885 -0.706116 -0.585056
vn -0.332295 -0.715926 -0.614027
vn -0.211393 -0.696887 -0.685319
vn -0.226436 -0.716711 -0.659585
vn -0.295166 -0.688019 -0.662953
vn -0.281706 -0.721322 -0.632722
vn -0.106437 -0.700003 -0.706163
vn -0.115714 -0.711165 -0.693437
vn -0.150414 -0.690376 -0.707641
vn -0.143325 -0.724422 -0.674293
vn 0.106437 -0.700003 -0.706163
vn 0.000000 -0.714991 -0.699134
vn 0.115714 -0.711165 -0.693437
vn -0.000000 -0.698829 -0.715288
vn 0.000000 -0.714991 -0.699134
vn -0.000000 -0.698829 -0.715288
vn 0.211393 -0.696887 -0.685319
vn 0.226436 -0.716711 -0.659585
vn 0.150414 -0.690376 -0.707641
vn 0.143325 -0.724422 -0.674293
vn 0.398885 -0.706116 -0.585057
vn 0.307231 -0.706116 -0.637973
vn 0.332295 -0.715927 -0.614027
vn 0.295166 -0.688019 -0.662953
vn 0.281706 -0.721321 -0.632722
vn 0.487807 -0.696887 -0.525731
vn 0.424357 -0.691935 -0.584077
vn 0.523533 -0.702596 -0.481946
vn 0.433304 -0.708747 -0.556709
vn 0.407100 -0.721322 -0.560325
vn 0.558337 -0.700003 -0.445259
vn 0.586854 -0.713160 -0.383411
vn 0.533485 -0.696172 -0.480352
vn 0.512292 -0.724422 -0.461270
vn 0.664774 -0.700004 -0.260904
vn 0.605467 -0.714991 -0.349567
vn 0.638265 -0.717102 -0.279969
vn 0.627496 -0.689201 -0.362285
vn 0.605467 -0.714991 -0.349567
vn 0.685458 -0.726298 -0.051368
vn 0.699200 -0.696887 -0.159588
vn 0.721512 -0.689816 -0.059786
vn 0.677984 -0.714745 -0.171689
vn 0.705162 -0.705162 -0.074115
vn 0.689819 -0.688414 -0.224136
vn 0.655617 -0.724422 -0.213023
vn 0.996584 0.000000 -0.082580
vn 0.996584 0.000000 -0.082580
vn 0.969400 0.000000 -0.245486
vn 0.969400 0.000000 -0.245486
vn 0.915773 0.000000 -0.401695
vn 0.915773 0.000000 -0.401695
vn 0.837166 0.000000 -0.546948
vn 0.837166 0.000000 -0.546948
vn 0.735724 0.000000 -0.677282
vn 0.735724 0.000000 -0.677282
vn 0.614213 0.000000 -0.789140
vn 0.614213 0.000000 -0.789140
vn 0.475948 0.000000 -0.879474
vn 0.475948 0.000000 -0.879474
vn 0.324699 0.000000 -0.945817
vn 0.324699 0.000000 -0.945817
vn 0.164594 0.000000 -0.986361
vn 0.164594 0.000000 -0.986361
vn 0.000000 0.000000 -1.000000
vn 0.000000 0.000000 -1.000000
vn -0.164594 0.000000 -0.986361
vn -0.164594 -0.000000 -0.986361
vn -0.324699 0.000000 -0.945817
vn -0.475948 0.000000 -0.879474
vn -0.324699 -0.000000 -0.945817
vn -0.475948 0.000000 -0.879474
vn -0.614213 0.000000 -0.789140
vn -0.735724 0.000000 -0.677282
vn -0.614213 -0.000000 -0.789140
vn -0.735724 0.000000 -0.677282
vn -0.837166 -0.000000 -0.546948
vn -0.837166 0.000000 -0.546948
vn -0.915773 -0.000000 -0.401695
vn -0.915773 0.000000 -0.401695
vn -0.969400 -0.000000 -0.245486
vn -0.969400 0.000000 -0.245486
vn -0.996584 -0.000000 -0.082580
vn -0.996584 0.000000 -0.082580
vn 0.706550 0.706550 0.039679
vn 0.705685 0.707332 0.041101
vn 0.695392 0.708093 0.122616
vn 0.698370 0.705833 0.118658
vn 0.675783 0.708791 0.202317
vn 0.681328 0.705169 0.196287
vn 0.647140 0.709426 0.279149
vn 0.655626 0.704560 0.271570
vn 0.609857 0.710000 0.352101
vn 0.621581 0.704004 0.343535
vn 0.564442 0.710512 0.420212
vn 0.579614 0.703502 0.411258
vn 0.511511 0.710963 0.482586
vn 0.530252 0.703056 0.473862
vn 0.451774 0.711353 0.538403
vn 0.474120 0.702664 0.530541
vn 0.386031 0.711682 0.586932
vn 0.411929 0.702328 0.580560
vn 0.315160 0.711951 0.627535
vn 0.344471 0.702048 0.623273
vn 0.240104 0.712161 0.659680
vn 0.272605 0.701823 0.658127
vn 0.197250 0.701654 0.684670
vn 0.161861 0.712310 0.682946
vn 0.119370 0.701542 0.702560
vn 0.081471 0.712399 0.697029
vn 0.039961 0.701486 0.711562
vn 0.000000 0.712429 0.701744
vn -0.039961 0.701486 0.711562
vn -0.081471 0.712399 0.697029
vn -0.119370 0.701542 0.702560
vn -0.161861 0.712310 0.682946
vn -0.197250 0.701654 0.684670
vn -0.240104 0.712161 0.659680
vn -0.272605 0.701823 0.658127
vn -0.315160 0.711951 0.627535
vn -0.344471 0.702047 0.623273
vn -0.386031 0.711682 0.586932
vn -0.451774 0.711353 0.538403
vn -0.411929 0.702328 0.580560
vn -0.511511 0.710963 0.482586
vn -0.474120 0.702664 0.530541
vn -0.564442 0.710512 0.420212
vn -0.530252 0.703056 0.473862
vn -0.609857 0.710000 0.352101
vn -0.579614 0.703502 0.411258
vn -0.647140 0.709426 0.279149
vn -0.621581 0.704004 0.343535
vn -0.675783 0.708791 0.202317
vn -0.655626 0.704560 0.271570
vn -0.695392 0.708093 0.122616
vn -0.681328 0.705169 0.196287
vn -0.705685 0.707332 0.041101
vn -0.698370 0.705833 0.118658
vn -0.706550 0.706550 0.039679
vn 0.998427 0.000000 0.056071
vn 0.998427 -0.000000 0.056071
vn 0.985871 -0.000000 0.167506
vn 0.985871 0.000000 0.167506
vn 0.960917 -0.000000 0.276835
vn 0.960917 0.000000 0.276835
vn 0.923879 -0.000000 0.382684
vn 0.923879 0.000000 0.382684
vn 0.815561 -0.000000 0.578671
vn 0.875224 -0.000000 0.483719
vn 0.875224 0.000000 0.483719
vn 0.815561 -0.000000 0.578671
vn 0.745642 -0.000000 0.666347
vn 0.745642 0.000000 0.666347
vn 0.666347 -0.000000 0.745642
vn 0.666347 0.000000 0.745642
vn 0.578671 -0.000000 0.815561
vn 0.578671 0.000000 0.815561
vn 0.483719 0.000000 0.875224
vn 0.382684 -0.000000 0.923879
vn 0.483719 -0.000000 0.875224
vn 0.382684 -0.000000 0.923879
vn 0.276835 0.000000 0.960917
vn 0.167506 -0.000000 0.985871
vn 0.276835 -0.000000 0.960917
vn 0.167506 -0.000000 0.985871
vn 0.056071 0.000000 0.998427
vn 0.056071 0.000000 0.998427
vn -0.056071 0.000000 0.998427
vn -0.056071 0.000000 0.998427
vn -0.167506 0.000000 0.985871
vn -0.167506 0.000000 0.985871
vn -0.276835 0.000000 0.960917
vn -0.276835 0.000000 0.960917
vn -0.382684 0.000000 0.923879
vn -0.382684 0.000000 0.923879
vn -0.483719 0.000000 0.875224
vn -0.578671 0.000000 0.815561
vn -0.483719 0.000000 0.875224
vn -0.578671 0.000000 0.815561
vn -0.745642 0.000000 0.666347
vn -0.666347 0.000000 0.745642
vn -0.666347 0.000000 0.745642
vn -0.815561 0.000000 0.578671
vn -0.745642 0.000000 0.666347
vn -0.815561 0.000000 0.578671
vn -0.923879 0.000000 0.382684
vn -0.875224 0.000000 0.483719
vn -0.875224 0.000000 0.483719
vn -0.960917 0.000000 0.276835
vn -0.923879 0.000000 0.382684
vn -0.960917 0.000000 0.276835
vn -0.985871 0.000000 0.167506
vn -0.985871 0.000000 0.167506
vn -0.998427 0.000000 0.056071
vn -0.998427 0.000000 0.056071
f 1//1 2//1 3//1
f 4//2 3//2 5//2
f 4//3 1//3 3//3
f 6//4 2//4 1//4
f 6//5 7//5 2//5
f 8//6 4//6 5//6
f 8//7 5//7 9//7
f 10//8 7//8 6//8
f 10//9 11//9 7//9
f 12//10 8//10 9//10
f 12//11 9//11 13//11
f 14//12 11//12 10//12
f 14//13 15//13 11//13
f 16//14 12//14 13//14
f 16//15 13//15 17//15
f 18//16 15//16 14//16
f 18//17 19//17 15//17
f 20//18 17//18 21//18
f 20//19 16//19 17//19
f 22//20 19//20 18//20
f 22//21 23//21 19//21
f 24//22 23//22 22//22
f 25//23 21//23 26//23
f 25//24 20//24 21//24
f 27//25 24//25 22//25
f 28//26 24//26 27//26
f 29//27 25//27 26//27
f 29//28 26//28 30//28
f 31//29 28//29 27//29
f 32//30 29//30 30//30
f 33//31 28//31 31//31
f 34//32 32//32 30//32
f 35//33 33//33 31//33
f 36//34 32//34 34//34
f 37//35 36//35 34//35
f 38//36 33//36 35//36
f 39//37 38//37 35//37
f 40//38 36//38 37//38
f 41//39 40//39 37//39
f 42//40 38//40 39//40
f 43//41 42//41 39//41
f 44//42 40//42 41//42
f 45//43 44//43 41//43
f 46//44 42//44 43//44
f 47//45 46//45 43//45
f 48//46 44//46 45//46
f 49//47 48//47 45//47
f 50//48 46//48 47//48
f 51//49 50//49 47//49
f 52//50 48//50 49//50
f 53//51 50//51 51//51
f 54//52 52//52 49//52
f 55//53 53//53 51//53
f 56//54 52//54 54//54
f 57//55 55//55 58//55
f 57//56 53//56 55//56
f 59//57 56//57 54//57
f 60//58 56//58 59//58
f 61//59 57//59 58//59
f 61//60 58//60 62//60
f 63//61 60//61 59//61
f 64//62 60//62 63//62
f 65//63 61//63 62//63
f 65//64 62//64 66//64
f 67//65 64//65 63//65
f 68//66 65//66 66//66
f 68//67 66//67 69//67
f 70//68 71//68 64//68
f 70//69 64//69 67//69
f 72//70 68//70 69//70
f 72//71 69//71 73//71
f 74//72 71//72 70//72
f 74//73 75//73 71//73
f 76//74 72//74 73//74
f 76//75 73//75 77//75
f 78//76 75//76 74//76
f 78//77 79//77 75//77
f 80//78 76//78 77//78
f 80//79 77//79 81//79
f 82//80 79//80 78//80
f 82//81 83//81 79//81
f 84//82 80//82 81//82
f 84//83 81//83 85//83
f 86//84 83//84 82//84
f 86//85 84//85 85//85
f 86//86 85//86 83//86
f 87//87 88//87 23//87
f 87//88 23//88 24//88
f 89//89 24//89 28//89
f 89//90 87//90 24//90
f 90//91 28//91 33//91
f 90//92 89//92 28//92
f 91//93 33//93 38//93
f 91//94 90//94 33//94
f 92//95 38//95 42//95
f 92//96 91//96 38//96
f 93//97 42//97 46//97
f 93//98 92//98 42//98
f 94//99 46//99 50//99
f 94//100 93//100 46//100
f 95//101 50//101 53//101
f 95//102 94//102 50//102
f 96//103 53//103 57//103
f 96//104 95//104 53//104
f 97//105 57//105 61//105
f 97//106 96//106 57//106
f 98//107 61//107 65//107
f 98//108 97//108 61//108
f 99//109 65//109 68//109
f 99//110 98//110 65//110
f 100//111 68//111 72//111
f 100//112 99//112 68//112
f 76//113 100//113 72//113
f 101//114 100//114 76//114
f 102//115 101//115 76//115
f 102//116 76//116 80//116
f 103//117 102//117 80//117
f 103//118 80//118 84//118
f 104//119 103//119 84//119
f 104//120 84//120 86//120
f 105//121 86//121 82//121
f 105//122 104//122 86//122
f 106//123 82//123 78//123
f 106//124 105//124 82//124
f 107//125 78//125 74//125
f 107//126 106//126 78//126
f 70//127 107//127 74//127
f 108//128 107//128 70//128
f 109//129 70//129 67//129
f 109//130 108//130 70//130
f 108//131 109//131 110//131
f 108//132 110//132 111//132
f 107//133 111//133 112//133
f 107//134 108//134 111//134
f 106//135 112//135 113//135
f 106//136 107//136 112//136
f 105//137 113//137 114//137
f 105//138 106//138 113//138
f 104//139 114//139 115//139
f 104//140 105//140 114//140
f 103//141 115//141 116//141
f 103//142 104//142 115//142
f 102//143 117//143 118//143
f 102//144 116//144 117//144
f 102//145 103//145 116//145
f 101//146 102//146 118//146
f 100//147 118//147 119//147
f 100//148 101//148 118//148
f 99//149 119//149 120//149
f 99//150 100//150 119//150
f 98//151 120//151 121//151
f 98//152 99//152 120//152
f 97//153 121//153 122//153
f 97//154 98//154 121//154
f 96//155 97//155 122//155
f 96//156 123//156 124//156
f 96//157 122//157 123//157
f 95//158 96//158 124//158
f 94//159 95//159 124//159
f 94//160 124//160 125//160
f 93//161 125//161 126//161
f 93//162 94//162 125//162
f 92//163 126//163 127//163
f 92//164 93//164 126//164
f 91//165 128//165 129//165
f 91//166 127//166 128//166
f 91//167 92//167 127//167
f 90//168 91//168 129//168
f 89//169 130//169 131//169
f 89//170 129//170 130//170
f 89//171 90//171 129//171
f 87//172 89//172 131//172
f 88//173 131//173 132//173
f 88//174 87//174 131//174
f 88//175 132//175 133//175
f 134//176 133//176 135//176
f 134//177 88//177 133//177
f 136//178 135//178 137//178
f 136//179 134//179 135//179
f 138//180 137//180 139//180
f 138//181 136//181 137//181
f 140//182 139//182 141//182
f 140//183 138//183 139//183
f 142//184 141//184 143//184
f 142//185 140//185 141//185
f 144//186 143//186 145//186
f 144//187 142//187 143//187
f 146//188 144//188 145//188
f 147//189 145//189 148//189
f 147//190 146//190 145//190
f 149//191 148//191 150//191
f 149//192 147//192 148//192
f 151//193 150//193 152//193
f 151//194 149//194 150//194
f 153//195 152//195 154//195
f 153//196 151//196 152//196
f 155//197 154//197 156//197
f 155//198 153//198 154//198
f 157//199 155//199 156//199
f 157//200 156//200 158//200
f 157//201 158//201 159//201
f 160//202 157//202 159//202
f 161//203 160//203 159//203
f 161//204 159//204 162//204
f 161//205 162//205 163//205
f 164//206 161//206 163//206
f 165//207 164//207 163//207
f 165//208 163//208 166//208
f 165//209 166//209 167//209
f 168//210 165//210 167//210
f 169//211 167//211 170//211
f 169//212 170//212 171//212
f 169//213 168//213 167//213
f 172//214 171//214 173//214
f 172//215 169//215 171//215
f 174//216 172//216 173//216
f 109//217 173//217 110//217
f 109//218 174//218 173//218
f 174//219 109//219 67//219
f 174//220 67//220 63//220
f 172//221 63//221 59//221
f 172//222 174//222 63//222
f 169//223 59//223 54//223
f 169//224 172//224 59//224
f 168//225 54//225 49//225
f 168//226 169//226 54//226
f 165//227 49//227 45//227
f 165//228 168//228 49//228
f 164//229 45//229 41//229
f 164//230 165//230 45//230
f 161//231 41//231 37//231
f 161//232 164//232 41//232
f 160//233 37//233 34//233
f 160//234 161//234 37//234
f 157//235 34//235 30//235
f 157//236 160//236 34//236
f 155//237 30//237 26//237
f 155//238 157//238 30//238
f 153//239 26//239 21//239
f 153//240 155//240 26//240
f 151//241 21//241 17//241
f 151//242 153//242 21//242
f 149//243 17//243 13//243
f 149//244 151//244 17//244
f 9//245 149//245 13//245
f 147//246 149//246 9//246
f 146//247 147//247 9//247
f 146//248 9//248 5//248
f 3//249 146//249 5//249
f 144//250 146//250 3//250
f 142//251 144//251 3//251
f 142//252 3//252 2//252
f 140//253 2//253 7//253
f 140//254 142//254 2//254
f 138//255 7//255 11//255
f 138//256 140//256 7//256
f 136//257 11//257 15//257
f 136//258 138//258 11//258
f 134//259 15//259 19//259
f 134//260 136//260 15//260
f 88//261 19//261 23//261
f 88//262 134//262 19//262
f 143//263 175//263 176//263
f 141//264 177//264 175//264
f 141//265 175//265 143//265
f 139//266 178//266 179//266
f 139//267 179//267 177//267
f 139//268 177//268 141//268
f 145//269 176//269 180//269
f 145//270 180//270 181//270
f 145//271 143//271 176//271
f 148//272 181//272 182//272
f 148//273 145//273 181//273
f 137//274 183//274 178//274
f 137//275 178//275 139//275
f 135//276 184//276 183//276
f 135//277 183//277 137//277
f 150//278 182//278 185//278
f 150//279 148//279 182//279
f 152//280 185//280 186//280
f 152//281 150//281 185//281
f 133//282 187//282 184//282
f 133//283 184//283 135//283
f 154//284 186//284 188//284
f 154//285 188//285 189//285
f 154//286 152//286 186//286
f 132//287 190//287 187//287
f 132//288 187//288 133//288
f 132//289 191//289 190//289
f 156//290 189//290 192//290
f 156//291 154//291 189//291
f 131//292 191//292 132//292
f 131//293 193//293 191//293
f 158//294 192//294 194//294
f 158//295 156//295 192//295
f 130//296 195//296 193//296
f 130//297 193//297 131//297
f 159//298 158//298 194//298
f 159//299 194//299 196//299
f 129//300 197//300 195//300
f 129//301 195//301 130//301
f 162//302 196//302 198//302
f 162//303 159//303 196//303
f 128//304 199//304 197//304
f 128//305 197//305 129//305
f 200//306 199//306 128//306
f 201//307 162//307 198//307
f 163//308 162//308 201//308
f 127//309 200//309 128//309
f 202//310 200//310 127//310
f 203//311 163//311 201//311
f 166//312 163//312 203//312
f 126//313 202//313 127//313
f 204//314 202//314 126//314
f 205//315 166//315 203//315
f 167//316 166//316 205//316
f 125//317 204//317 126//317
f 206//318 204//318 125//318
f 207//319 167//319 205//319
f 208//320 206//320 125//320
f 208//321 125//321 124//321
f 209//322 167//322 207//322
f 209//323 170//323 167//323
f 210//324 208//324 124//324
f 210//325 124//325 123//325
f 211//326 170//326 209//326
f 211//327 171//327 170//327
f 212//328 210//328 123//328
f 212//329 123//329 122//329
f 213//330 171//330 211//330
f 213//331 173//331 171//331
f 214//332 212//332 122//332
f 214//333 122//333 121//333
f 215//334 173//334 213//334
f 215//335 110//335 173//335
f 216//336 214//336 121//336
f 217//337 110//337 215//337
f 218//338 121//338 120//338
f 218//339 216//339 121//339
f 219//340 110//340 217//340
f 219//341 111//341 110//341
f 220//342 218//342 120//342
f 220//343 120//343 119//343
f 221//344 112//344 111//344
f 221//345 111//345 219//345
f 222//346 220//346 119//346
f 222//347 119//347 118//347
f 223//348 113//348 112//348
f 223//349 112//349 221//349
f 224//350 118//350 117//350
f 224//351 222//351 118//351
f 225//352 114//352 113//352
f 225//353 113//353 223//353
f 226//354 224//354 117//354
f 227//355 114//355 225//355
f 228//356 117//356 116//356
f 228//357 226//357 117//357
f 229//358 115//358 114//358
f 229//359 114//359 227//359
f 230//360 228//360 116//360
f 230//361 116//361 115//361
f 230//362 115//362 229//362
f 219//363 217//363 231//363
f 219//364 231//364 232//364
f 221//365 232//365 233//365
f 221//366 219//366 232//366
f 223//367 233//367 234//367
f 223//368 221//368 233//368
f 225//369 234//369 235//369
f 225//370 223//370 234//370
f 227//371 236//371 237//371
f 227//372 235//372 236//372
f 227//373 225//373 235//373
f 229//374 227//374 237//374
f 230//375 237//375 238//375
f 230//376 229//376 237//376
f 228//377 238//377 239//377
f 228//378 230//378 238//378
f 226//379 239//379 240//379
f 226//380 228//380 239//380
f 224//381 226//381 240//381
f 224//382 241//382 242//382
f 224//383 240//383 241//383
f 222//384 224//384 242//384
f 220//385 222//385 242//385
f 220//386 243//386 244//386
f 220//387 242//387 243//387
f 218//388 220//388 244//388
f 216//389 218//389 244//389
f 216//390 244//390 245//390
f 214//391 216//391 245//391
f 214//392 245//392 246//392
f 212//393 214//393 246//393
f 212//394 246//394 247//394
f 210//395 212//395 247//395
f 210//396 247//396 248//396
f 208//397 210//397 248//397
f 208//398 248//398 249//398
f 206//399 208//399 249//399
f 206//400 250//400 251//400
f 206//401 249//401 250//401
f 204//402 206//402 251//402
f 202//403 252//403 253//403
f 202//404 251//404 252//404
f 202//405 204//405 251//405
f 200//406 253//406 254//406
f 200//407 202//407 253//407
f 199//408 200//408 254//408
f 197//409 255//409 256//409
f 197//410 254//410 255//410
f 197//411 199//411 254//411
f 195//412 256//412 257//412
f 195//413 197//413 256//413
f 193//414 195//414 257//414
f 191//415 257//415 258//415
f 191//416 193//416 257//416
f 190//417 258//417 259//417
f 190//418 191//418 258//418
f 232//419 231//419 260//419
f 232//420 260//420 261//420
f 233//421 261//421 262//421
f 233//422 232//422 261//422
f 234//423 262//423 263//423
f 234//424 233//424 262//424
f 235//425 263//425 264//425
f 235//426 234//426 263//426
f 236//427 264//427 265//427
f 236//428 235//428 264//428
f 237//429 265//429 266//429
f 237//430 236//430 265//430
f 238//431 266//431 267//431
f 238//432 237//432 266//432
f 239//433 267//433 268//433
f 239//434 238//434 267//434
f 240//435 268//435 269//435
f 240//436 239//436 268//436
f 241//437 269//437 270//437
f 241//438 240//438 269//438
f 242//439 270//439 271//439
f 242//440 241//440 270//440
f 243//441 242//441 271//441
f 243//442 271//442 272//442
f 244//443 243//443 272//443
f 244//444 272//444 273//444
f 245//445 244//445 273//445
f 245//446 273//446 274//446
f 246//447 245//447 274//447
f 246//448 274//448 275//448
f 247//449 246//449 275//449
f 247//450 275//450 276//450
f 248//451 247//451 276//451
f 248//452 276//452 277//452
f 249//453 248//453 277//453
f 249//454 277//454 278//454
f 250//455 249//455 278//455
f 250//456 278//456 279//456
f 251//457 279//457 280//457
f 251//458 250//458 279//458
f 252//459 280//459 281//459
f 252//460 251//460 280//460
f 253//461 281//461 282//461
f 253//462 252//462 281//462
f 254//463 282//463 283//463
f 254//464 253//464 282//464
f 255//465 283//465 284//465
f 255//466 254//466 283//466
f 256//467 284//467 285//467
f 256//468 255//468 284//468
f 257//469 285//469 286//469
f 257//470 256//470 285//470
f 258//471 286//471 287//471
f 258//472 257//472 286//472
f 259//473 258//473 287//473
f 288//474 289//474 290//474
f 291//475 289//475 288//475
f 291//476 292//476 289//476
f 293//477 292//477 291//477
f 289//478 294//478 290//478
f 290//479 294//479 295//479
f 293//480 296//480 292//480
f 297//481 296//481 293//481
f 294//482 298//482 295//482
f 299//483 298//483 300//483
f 295//484 298//484 299//484
f 297//485 301//485 296//485
f 302//486 301//486 297//486
f 303//487 301//487 302//487
f 300//488 304//488 305//488
f 298//489 304//489 300//489
f 303//490 306//490 301//490
f 307//491 306//491 303//491
f 304//492 308//492 305//492
f 305//493 308//493 309//493
f 286//494 310//494 287//494
f 307//495 310//495 306//495
f 287//496 310//496 307//496
f 311//497 312//497 313//497
f 309//498 312//498 311//498
f 308//499 312//499 309//499
f 285//500 314//500 286//500
f 286//501 314//501 310//501
f 312//502 315//502 313//502
f 313//503 315//503 316//503
f 284//504 317//504 285//504
f 283//505 317//505 284//505
f 285//506 317//506 314//506
f 318//507 319//507 320//507
f 316//508 319//508 318//508
f 315//509 319//509 316//509
f 282//510 321//510 283//510
f 283//511 321//511 317//511
f 319//512 322//512 320//512
f 320//513 322//513 323//513
f 281//514 324//514 282//514
f 282//515 324//515 321//515
f 323//516 325//516 326//516
f 322//517 325//517 323//517
f 281//518 327//518 324//518
f 281//519 280//519 327//519
f 328//520 329//520 325//520
f 325//521 329//521 326//521
f 327//522 279//522 330//522
f 280//523 279//523 327//523
f 328//524 331//524 329//524
f 332//525 331//525 328//525
f 279//526 278//526 330//526
f 330//527 278//527 333//527
f 334//528 335//528 332//528
f 332//529 335//529 331//529
f 278//530 277//530 333//530
f 334//531 336//531 335//531
f 333//532 276//532 337//532
f 277//533 276//533 333//533
f 334//534 338//534 336//534
f 339//535 338//535 334//535
f 276//536 275//536 337//536
f 337//537 275//537 340//537
f 339//538 341//538 338//538
f 342//539 341//539 339//539
f 275//540 274//540 340//540
f 342//541 260//541 341//541
f 274//542 273//542 340//542
f 340//543 273//543 343//543
f 342//544 261//544 260//544
f 344//545 261//545 342//545
f 273//546 272//546 343//546
f 343//547 272//547 345//547
f 344//548 262//548 261//548
f 346//549 262//549 344//549
f 272//550 271//550 345//550
f 345//551 271//551 347//551
f 346//552 263//552 262//552
f 271//553 270//553 347//553
f 346//554 264//554 263//554
f 348//555 264//555 346//555
f 270//556 269//556 347//556
f 347//557 269//557 349//557
f 348//558 265//558 264//558
f 350//559 265//559 348//559
f 349//560 268//560 351//560
f 269//561 268//561 349//561
f 351//562 266//562 350//562
f 350//563 266//563 265//563
f 351//564 267//564 266//564
f 268//565 267//565 351//565
f 352//566 314//566 353//566
f 310//567 314//567 352//567
f 353//568 317//568 354//568
f 314//569 317//569 353//569
f 354//570 321//570 355//570
f 317//571 321//571 354//571
f 355//572 324//572 356//572
f 321//573 324//573 355//573
f 356//574 327//574 357//574
f 324//575 327//575 356//575
f 357//576 330//576 358//576
f 327//577 330//577 357//577
f 358//578 333//578 359//578
f 330//579 333//579 358//579
f 359//580 337//580 360//580
f 333//581 337//581 359//581
f 360//582 340//582 361//582
f 361//583 340//583 362//583
f 337//584 340//584 360//584
f 340//585 343//585 362//585
f 362//586 345//586 363//586
f 343//587 345//587 362//587
f 363//588 347//588 364//588
f 364//589 347//589 365//589
f 345//590 347//590 363//590
f 347//591 349//591 365//591
f 365//592 351//592 366//592
f 366//593 351//593 367//593
f 349//594 351//594 365//594
f 351//595 350//595 367//595
f 350//596 348//596 367//596
f 367//597 348//597 368//597
f 348//598 346//598 368//598
f 368//599 346//599 369//599
f 346//600 344//600 369//600
f 369//601 344//601 370//601
f 344//602 342//602 370//602
f 370//603 342//603 371//603
f 75//604 372//604 71//604
f 71//605 372//605 64//605
f 64//606 372//606 371//606
f 370//607 372//607 369//607
f 371//608 372//608 370//608
f 372//609 373//609 369//609
f 79//610 373//610 75//610
f 75//611 373//611 372//611
f 369//612 373//612 368//612
f 85//613 374//613 83//613
f 83//614 374//614 79//614
f 368//615 374//615 367//615
f 373//616 374//616 368//616
f 79//617 374//617 373//617
f 81//618 375//618 85//618
f 366//619 375//619 365//619
f 367//620 375//620 366//620
f 374//621 375//621 367//621
f 85//622 375//622 374//622
f 375//623 376//623 365//623
f 73//624 376//624 77//624
f 81//625 376//625 375//625
f 77//626 376//626 81//626
f 365//627 376//627 364//627
f 69//628 377//628 73//628
f 364//629 377//629 363//629
f 376//630 377//630 364//630
f 73//631 377//631 376//631
f 66//632 378//632 69//632
f 363//633 378//633 362//633
f 377//634 378//634 363//634
f 69//635 378//635 377//635
f 58//636 379//636 62//636
f 62//637 379//637 66//637
f 361//638 379//638 360//638
f 362//639 379//639 361//639
f 66//640 379//640 378//640
f 378//641 379//641 362//641
f 55//642 380//642 58//642
f 360//643 380//643 359//643
f 379//644 380//644 360//644
f 58//645 380//645 379//645
f 47//646 381//646 51//646
f 51//647 381//647 55//647
f 359//648 381//648 358//648
f 380//649 381//649 359//649
f 55//650 381//650 380//650
f 43//651 382//651 47//651
f 381//652 382//652 358//652
f 357//653 382//653 356//653
f 358//654 382//654 357//654
f 47//655 382//655 381//655
f 39//656 383//656 43//656
f 356//657 383//657 355//657
f 382//658 383//658 356//658
f 43//659 383//659 382//659
f 31//660 384//660 35//660
f 35//661 384//661 39//661
f 355//662 384//662 354//662
f 383//663 384//663 355//663
f 39//664 384//664 383//664
f 22//665 385//665 27//665
f 27//666 385//666 31//666
f 353//667 385//667 352//667
f 354//668 385//668 353//668
f 352//669 385//669 22//669
f 384//670 385//670 354//670
f 31//671 385//671 384//671
f 14//672 386//672 18//672
f 18//673 386//673 22//673
f 22//674 386//674 352//674
f 387//675 386//675 388//675
f 352//676 386//676 387//676
f 386//677 389//677 388//677
f 10//678 389//678 14//678
f 14//679 389//679 386//679
f 388//680 389//680 390//680
f 1//681 391//681 6//681
f 6//682 391//682 10//682
f 390//683 391//683 392//683
f 389//684 391//684 390//684
f 10//685 391//685 389//685
f 4//686 393//686 1//686
f 394//687 393//687 395//687
f 392//688 393//688 394//688
f 391//689 393//689 392//689
f 1//690 393//690 391//690
f 393//691 396//691 395//691
f 12//692 396//692 8//692
f 4//693 396//693 393//693
f 8//694 396//694 4//694
f 395//695 396//695 397//695
f 16//696 398//696 12//696
f 397//697 398//697 399//697
f 396//698 398//698 397//698
f 12//699 398//699 396//699
f 20//700 400//700 16//700
f 399//701 400//701 401//701
f 398//702 400//702 399//702
f 16//703 400//703 398//703
f 29//704 402//704 25//704
f 25//705 402//705 20//705
f 403//706 402//706 404//706
f 401//707 402//707 403//707
f 20//708 402//708 400//708
f 400//709 402//709 401//709
f 32//710 405//710 29//710
f 404//711 405//711 406//711
f 402//712 405//712 404//712
f 29//713 405//713 402//713
f 40//714 407//714 36//714
f 36//715 407//715 32//715
f 406//716 407//716 408//716
f 405//717 407//717 406//717
f 32//718 407//718 405//718
f 44//719 409//719 40//719
f 407//720 409//720 408//720
f 410//721 409//721 411//721
f 408//722 409//722 410//722
f 40//723 409//723 407//723
f 48//724 412//724 44//724
f 411//725 412//725 413//725
f 409//726 412//726 411//726
f 44//727 412//727 409//727
f 56//728 414//728 52//728
f 52//729 414//729 48//729
f 413//730 414//730 415//730
f 412//731 414//731 413//731
f 48//732 414//732 412//732
f 64//733 416//733 60//733
f 60//734 416//734 56//734
f 417//735 416//735 371//735
f 415//736 416//736 417//736
f 371//737 416//737 64//737
f 414//738 416//738 415//738
f 56//739 416//739 414//739
f 371//740 339//740 417//740
f 342//741 339//741 371//741
f 417//742 334//742 415//742
f 339//743 334//743 417//743
f 415//744 332//744 413//744
f 334//745 332//745 415//745
f 413//746 328//746 411//746
f 332//747 328//747 413//747
f 411//748 325//748 410//748
f 328//749 325//749 411//749
f 410//750 322//750 408//750
f 325//751 322//751 410//751
f 408//752 319//752 406//752
f 322//753 319//753 408//753
f 406//754 315//754 404//754
f 319//755 315//755 406//755
f 404//756 312//756 403//756
f 315//757 312//757 404//757
f 403//758 308//758 401//758
f 312//759 308//759 403//759
f 401//760 304//760 399//760
f 308//761 304//761 401//761
f 399//762 298//762 397//762
f 397//763 298//763 395//763
f 304//764 298//764 399//764
f 298//765 294//765 395//765
f 395//766 289//766 394//766
f 394//767 289//767 392//767
f 294//768 289//768 395//768
f 289//769 292//769 392//769
f 292//770 296//770 392//770
f 392//771 296//771 390//771
f 296//772 301//772 390//772
f 390//773 301//773 388//773
f 301//774 306//774 388//774
f 388//775 306//775 387//775
f 306//776 310//776 387//776
f 387//777 310//777 352//777
f 418//778 259//778 287//778
f 418//779 287//779 307//779
f 419//780 307//780 303//780
f 419//781 418//781 307//781
f 420//782 303//782 302//782
f 420//783 419//783 303//783
f 421//784 302//784 297//784
f 421//785 420//785 302//785
f 422//786 297//786 293//786
f 422//787 421//787 297//787
f 423//788 293//788 291//788
f 423//789 422//789 293//789
f 424//790 291//790 288//790
f 424//791 423//791 291//791
f 425//792 288//792 290//792
f 425//793 424//793 288//793
f 426//794 290//794 295//794
f 426//795 425//795 290//795
f 427//796 295//796 299//796
f 427//797 426//797 295//797
f 428//798 299//798 300//798
f 428//799 427//799 299//799
f 429//800 428//800 300//800
f 429//801 300//801 305//801
f 430//802 429//802 305//802
f 430//803 305//803 309//803
f 431//804 430//804 309//804
f 431//805 309//805 311//805
f 432//806 431//806 311//806
f 432//807 311//807 313//807
f 433//808 432//808 313//808
f 433//809 313//809 316//809
f 434//810 433//810 316//810
f 434//811 316//811 318//811
f 435//812 434//812 318//812
f 435//813 318//813 320//813
f 436//814 435//814 320//814
f 436//815 320//815 323//815
f 437//816 323//816 326//816
f 437//817 436//817 323//817
f 438//818 326//818 329//818
f 438//819 437//819 326//819
f 439//820 329//820 331//820
f 439//821 438//821 329//821
f 440//822 331//822 335//822
f 440//823 439//823 331//823
f 441//824 335//824 336//824
f 441//825 440//825 335//825
f 442//826 336//826 338//826
f 442//827 441//827 336//827
f 443//828 338//828 341//828
f 443//829 442//829 338//829
f 444//830 341//830 260//830
f 444//831 443//831 341//831
f 231//832 444//832 260//832
f 187//833 190//833 259//833
f 187//834 259//834 418//834
f 184//835 418//835 419//835
f 184//836 187//836 418//836
f 183//837 419//837 420//837
f 183//838 184//838 419//838
f 178//839 420//839 421//839
f 178//840 183//840 420//840
f 179//841 422//841 423//841
f 179//842 421//842 422//842
f 179//843 178//843 421//843
f 177//844 179//844 423//844
f 175//845 423//845 424//845
f 175//846 177//846 423//846
f 176//847 424//847 425//847
f 176//848 175//848 424//848
f 180//849 425//849 426//849
f 180//850 176//850 425//850
f 181//851 180//851 426//851
f 181//852 427//852 428//852
f 181//853 426//853 427//853
f 182//854 181//854 428//854
f 185//855 182//855 428//855
f 185//856 429//856 430//856
f 185//857 428//857 429//857
f 186//858 185//858 430//858
f 188//859 186//859 430//859
f 188//860 430//860 431//860
f 189//861 188//861 431//861
f 189//862 431//862 432//862
f 192//863 189//863 432//863
f 192//864 432//864 433//864
f 194//865 192//865 433//865
f 194//866 433//866 434//866
f 196//867 194//867 434//867
f 196//868 434//868 435//868
f 198//869 196//869 435//869
f 198//870 436//870 437//870
f 198//871 435//871 436//871
f 201//872 198//872 437//872
f 203//873 438//873 439//873
f 203//874 437//874 438//874
f 203//875 201//875 437//875
f 205//876 439//876 440//876
f 205//877 203//877 439//877
f 207//878 205//878 440//878
f 209//879 441//879 442//879
f 209//880 440//880 441//880
f 209//881 207//881 440//881
f 211//882 442//882 443//882
f 211//883 209//883 442//883
f 213//884 211//884 443//884
f 215//885 443//885 444//885
f 215//886 213//886 443//886
f 217//887 444//887 231//887
f 217//888 215//888 444//888
