                                                                        S0000001
,,31HOpen CASCADE IGES processor 7.7,13HFilename.iges,                  G0000001
16HOpen CASCADE 7.7,31HOpen CASCADE IGES processor 7.7,32,308,15,308,15,G0000002
,1.,2,2HMM,1,0.01,15H20260408.143538,1E-07,0.521,6HSYSTEM,,11,0,        G0000003
15H20260408.143538,;                                                    G0000004
     402       1       0       0       0       0       0       000000000D0000001
     402       0       0       1       1                    part        D0000002
     402       2       0       0       0       0       0       000020000D0000003
     402       0       0       1       1                               0D0000004
     144       3       0       0       0       0       0       000020000D0000005
     144       0    -297       1       0                               0D0000006
     108       4       0       0       0       0       0       000010000D0000007
     108       0       0       1       0                               0D0000008
     142       5       0       0       0       0       0       000010500D0000009
     142       0       0       1       0                               0D0000010
     102       6       0       0       0       0       0       000010000D0000011
     102       0       0       1       0                               0D0000012
     110       7       0       0       0       0       0       000010000D0000013
     110       0       0       1       0                               0D0000014
     110       8       0       0       0       0       0       000010000D0000015
     110       0       0       1       0                               0D0000016
     110       9       0       0       0       0       0       000010000D0000017
     110       0       0       1       0                               0D0000018
     110      10       0       0       0       0       0       000010000D0000019
     110       0       0       1       0                               0D0000020
     144      11       0       0       0       0       0       000020000D0000021
     144       0    -297       1       0                               0D0000022
     108      12       0       0       0       0       0       000010000D0000023
     108       0       0       1       0                               0D0000024
     142      13       0       0       0       0       0       000010500D0000025
     142       0       0       1       0                               0D0000026
     102      14       0       0       0       0       0       000010000D0000027
     102       0       0       1       0                               0D0000028
     110      15       0       0       0       0       0       000010000D0000029
     110       0       0       1       0                               0D0000030
     110      16       0       0       0       0       0       000010000D0000031
     110       0       0       1       0                               0D0000032
     110      17       0       0       0       0       0       000010000D0000033
     110       0       0       1       0                               0D0000034
     110      18       0       0       0       0       0       000010000D0000035
     110       0    -297       1       0                               0D0000036
     144      19       0       0       0       0       0       000020000D0000037
     144       0    -297       1       0                               0D0000038
     108      20       0       0       0       0       0       000010000D0000039
     108       0       0       1       0                               0D0000040
     142      21       0       0       0       0       0       000010500D0000041
     142       0       0       1       0                               0D0000042
     102      22       0       0       0       0       0       000010000D0000043
     102       0       0       1       0                               0D0000044
     110      23       0       0       0       0       0       000010000D0000045
     110       0       0       1       0                               0D0000046
     110      24       0       0       0       0       0       000010000D0000047
     110       0       0       1       0                               0D0000048
     110      25       0       0       0       0       0       000010000D0000049
     110       0       0       1       0                               0D0000050
     110      26       0       0       0       0       0       000010000D0000051
     110       0    -297       1       0                               0D0000052
     144      27       0       0       0       0       0       000020000D0000053
     144       0    -297       1       0                               0D0000054
     108      28       0       0       0       0       0       000010000D0000055
     108       0       0       1       0                               0D0000056
     142      29       0       0       0       0       0       000010500D0000057
     142       0       0       1       0                               0D0000058
     102      30       0       0       0       0       0       000010000D0000059
     102       0       0       1       0                               0D0000060
     110      31       0       0       0       0       0       000010000D0000061
     110       0       0       1       0                               0D0000062
     110      32       0       0       0       0       0       000010000D0000063
     110       0    -297       1       0                               0D0000064
     110      33       0       0       0       0       0       000010000D0000065
     110       0       0       1       0                               0D0000066
     110      34       0       0       0       0       0       000010000D0000067
     110       0    -297       1       0                               0D0000068
     144      35       0       0       0       0       0       000020000D0000069
     144       0    -297       1       0                               0D0000070
     108      36       0       0       0       0       0       000010000D0000071
     108       0       0       1       0                               0D0000072
     142      37       0       0       0       0       0       000010500D0000073
     142       0       0       1       0                               0D0000074
     102      38       0       0       0       0       0       000010000D0000075
     102       0       0       1       0                               0D0000076
     110      39       0       0       0       0       0       000010000D0000077
     110       0    -297       1       0                               0D0000078
     110      40       0       0       0       0       0       000010000D0000079
     110       0    -297       1       0                               0D0000080
     110      41       0       0       0       0       0       000010000D0000081
     110       0    -297       1       0                               0D0000082
     110      42       0       0       0       0       0       000010000D0000083
     110       0    -297       1       0                               0D0000084
     144      43       0       0       0       0       0       000020000D0000085
     144       0    -297       1       0                               0D0000086
     108      44       0       0       0       0       0       000010000D0000087
     108       0       0       1       0                               0D0000088
     142      45       0       0       0       0       0       000010500D0000089
     142       0       0       1       0                               0D0000090
     102      46       0       0       0       0       0       000010000D0000091
     102       0       0       1       0                               0D0000092
     110      47       0       0       0       0       0       000010000D0000093
     110       0    -297       1       0                               0D0000094
     110      48       0       0       0       0       0       000010000D0000095
     110       0    -297       1       0                               0D0000096
     110      49       0       0       0       0       0       000010000D0000097
     110       0    -297       1       0                               0D0000098
     110      50       0       0       0       0       0       000010000D0000099
     110       0    -297       1       0                               0D0000100
     402      51       0       0       0       0       0       000020000D0000101
     402       0       0       1       1                               0D0000102
     144      52       0       0       0       0       0       000020000D0000103
     144       0    -299       1       0                               0D0000104
     108      53       0       0       0       0       0       000010000D0000105
     108       0       0       1       0                               0D0000106
     142      54       0       0       0       0       0       000010500D0000107
     142       0       0       1       0                               0D0000108
     102      55       0       0       0       0       0       000010000D0000109
     102       0       0       1       0                               0D0000110
     110      56       0       0       0       0       0       000010000D0000111
     110       0       0       1       0                               0D0000112
     110      57       0       0       0       0       0       000010000D0000113
     110       0       0       1       0                               0D0000114
     110      58       0       0       0       0       0       000010000D0000115
     110       0       0       1       0                               0D0000116
     110      59       0       0       0       0       0       000010000D0000117
     110       0       0       1       0                               0D0000118
     144      60       0       0       0       0       0       000020000D0000119
     144       0    -299       1       0                               0D0000120
     108      61       0       0       0       0       0       000010000D0000121
     108       0       0       1       0                               0D0000122
     142      62       0       0       0       0       0       000010500D0000123
     142       0       0       1       0                               0D0000124
     102      63       0       0       0       0       0       000010000D0000125
     102       0       0       1       0                               0D0000126
     110      64       0       0       0       0       0       000010000D0000127
     110       0       0       1       0                               0D0000128
     110      65       0       0       0       0       0       000010000D0000129
     110       0       0       1       0                               0D0000130
     110      66       0       0       0       0       0       000010000D0000131
     110       0       0       1       0                               0D0000132
     110      67       0       0       0       0       0       000010000D0000133
     110       0    -299       1       0                               0D0000134
     144      68       0       0       0       0       0       000020000D0000135
     144       0    -299       1       0                               0D0000136
     108      69       0       0       0       0       0       000010000D0000137
     108       0       0       1       0                               0D0000138
     142      70       0       0       0       0       0       000010500D0000139
     142       0       0       1       0                               0D0000140
     102      71       0       0       0       0       0       000010000D0000141
     102       0       0       1       0                               0D0000142
     110      72       0       0       0       0       0       000010000D0000143
     110       0       0       1       0                               0D0000144
     110      73       0       0       0       0       0       000010000D0000145
     110       0       0       1       0                               0D0000146
     110      74       0       0       0       0       0       000010000D0000147
     110       0       0       1       0                               0D0000148
     110      75       0       0       0       0       0       000010000D0000149
     110       0    -299       1       0                               0D0000150
     144      76       0       0       0       0       0       000020000D0000151
     144       0    -299       1       0                               0D0000152
     108      77       0       0       0       0       0       000010000D0000153
     108       0       0       1       0                               0D0000154
     142      78       0       0       0       0       0       000010500D0000155
     142       0       0       1       0                               0D0000156
     102      79       0       0       0       0       0       000010000D0000157
     102       0       0       1       0                               0D0000158
     110      80       0       0       0       0       0       000010000D0000159
     110       0       0       1       0                               0D0000160
     110      81       0       0       0       0       0       000010000D0000161
     110       0    -299       1       0                               0D0000162
     110      82       0       0       0       0       0       000010000D0000163
     110       0       0       1       0                               0D0000164
     110      83       0       0       0       0       0       000010000D0000165
     110       0    -299       1       0                               0D0000166
     144      84       0       0       0       0       0       000020000D0000167
     144       0    -299       1       0                               0D0000168
     108      85       0       0       0       0       0       000010000D0000169
     108       0       0       1       0                               0D0000170
     142      86       0       0       0       0       0       000010500D0000171
     142       0       0       1       0                               0D0000172
     102      87       0       0       0       0       0       000010000D0000173
     102       0       0       1       0                               0D0000174
     110      88       0       0       0       0       0       000010000D0000175
     110       0    -299       1       0                               0D0000176
     110      89       0       0       0       0       0       000010000D0000177
     110       0    -299       1       0                               0D0000178
     110      90       0       0       0       0       0       000010000D0000179
     110       0    -299       1       0                               0D0000180
     110      91       0       0       0       0       0       000010000D0000181
     110       0    -299       1       0                               0D0000182
     144      92       0       0       0       0       0       000020000D0000183
     144       0    -299       1       0                               0D0000184
     108      93       0       0       0       0       0       000010000D0000185
     108       0       0       1       0                               0D0000186
     142      94       0       0       0       0       0       000010500D0000187
     142       0       0       1       0                               0D0000188
     102      95       0       0       0       0       0       000010000D0000189
     102       0       0       1       0                               0D0000190
     110      96       0       0       0       0       0       000010000D0000191
     110       0    -299       1       0                               0D0000192
     110      97       0       0       0       0       0       000010000D0000193
     110       0    -299       1       0                               0D0000194
     110      98       0       0       0       0       0       000010000D0000195
     110       0    -299       1       0                               0D0000196
     110      99       0       0       0       0       0       000010000D0000197
     110       0    -299       1       0                               0D0000198
     402     100       0       0       0       0       0       000020000D0000199
     402       0       0       1       1                               0D0000200
     144     101       0       0       0       0       0       000020000D0000201
     144       0    -299       1       0                               0D0000202
     108     102       0       0       0       0       0       000010000D0000203
     108       0       0       1       0                               0D0000204
     142     103       0       0       0       0       0       000010500D0000205
     142       0       0       1       0                               0D0000206
     102     104       0       0       0       0       0       000010000D0000207
     102       0       0       1       0                               0D0000208
     110     105       0       0       0       0       0       000010000D0000209
     110       0       0       1       0                               0D0000210
     110     106       0       0       0       0       0       000010000D0000211
     110       0       0       1       0                               0D0000212
     110     107       0       0       0       0       0       000010000D0000213
     110       0       0       1       0                               0D0000214
     110     108       0       0       0       0       0       000010000D0000215
     110       0       0       1       0                               0D0000216
     144     109       0       0       0       0       0       000020000D0000217
     144       0    -299       1       0                               0D0000218
     108     110       0       0       0       0       0       000010000D0000219
     108       0       0       1       0                               0D0000220
     142     111       0       0       0       0       0       000010500D0000221
     142       0       0       1       0                               0D0000222
     102     112       0       0       0       0       0       000010000D0000223
     102       0       0       1       0                               0D0000224
     110     113       0       0       0       0       0       000010000D0000225
     110       0       0       1       0                               0D0000226
     110     114       0       0       0       0       0       000010000D0000227
     110       0       0       1       0                               0D0000228
     110     115       0       0       0       0       0       000010000D0000229
     110       0       0       1       0                               0D0000230
     110     116       0       0       0       0       0       000010000D0000231
     110       0    -299       1       0                               0D0000232
     144     117       0       0       0       0       0       000020000D0000233
     144       0    -299       1       0                               0D0000234
     108     118       0       0       0       0       0       000010000D0000235
     108       0       0       1       0                               0D0000236
     142     119       0       0       0       0       0       000010500D0000237
     142       0       0       1       0                               0D0000238
     102     120       0       0       0       0       0       000010000D0000239
     102       0       0       1       0                               0D0000240
     110     121       0       0       0       0       0       000010000D0000241
     110       0       0       1       0                               0D0000242
     110     122       0       0       0       0       0       000010000D0000243
     110       0       0       1       0                               0D0000244
     110     123       0       0       0       0       0       000010000D0000245
     110       0       0       1       0                               0D0000246
     110     124       0       0       0       0       0       000010000D0000247
     110       0    -299       1       0                               0D0000248
     144     125       0       0       0       0       0       000020000D0000249
     144       0    -299       1       0                               0D0000250
     108     126       0       0       0       0       0       000010000D0000251
     108       0       0       1       0                               0D0000252
     142     127       0       0       0       0       0       000010500D0000253
     142       0       0       1       0                               0D0000254
     102     128       0       0       0       0       0       000010000D0000255
     102       0       0       1       0                               0D0000256
     110     129       0       0       0       0       0       000010000D0000257
     110       0       0       1       0                               0D0000258
     110     130       0       0       0       0       0       000010000D0000259
     110       0    -299       1       0                               0D0000260
     110     131       0       0       0       0       0       000010000D0000261
     110       0       0       1       0                               0D0000262
     110     132       0       0       0       0       0       000010000D0000263
     110       0    -299       1       0                               0D0000264
     144     133       0       0       0       0       0       000020000D0000265
     144       0    -299       1       0                               0D0000266
     108     134       0       0       0       0       0       000010000D0000267
     108       0       0       1       0                               0D0000268
     142     135       0       0       0       0       0       000010500D0000269
     142       0       0       1       0                               0D0000270
     102     136       0       0       0       0       0       000010000D0000271
     102       0       0       1       0                               0D0000272
     110     137       0       0       0       0       0       000010000D0000273
     110       0    -299       1       0                               0D0000274
     110     138       0       0       0       0       0       000010000D0000275
     110       0    -299       1       0                               0D0000276
     110     139       0       0       0       0       0       000010000D0000277
     110       0    -299       1       0                               0D0000278
     110     140       0       0       0       0       0       000010000D0000279
     110       0    -299       1       0                               0D0000280
     144     141       0       0       0       0       0       000020000D0000281
     144       0    -299       1       0                               0D0000282
     108     142       0       0       0       0       0       000010000D0000283
     108       0       0       1       0                               0D0000284
     142     143       0       0       0       0       0       000010500D0000285
     142       0       0       1       0                               0D0000286
     102     144       0       0       0       0       0       000010000D0000287
     102       0       0       1       0                               0D0000288
     110     145       0       0       0       0       0       000010000D0000289
     110       0    -299       1       0                               0D0000290
     110     146       0       0       0       0       0       000010000D0000291
     110       0    -299       1       0                               0D0000292
     110     147       0       0       0       0       0       000010000D0000293
     110       0    -299       1       0                               0D0000294
     110     148       0       0       0       0       0       000010000D0000295
     110       0    -299       1       0                               0D0000296
     314     149       0       0       0       0       0       000000200D0000297
     314       0       0       1       0                               0D0000298
     314     150       0       0       0       0       0       000000200D0000299
     314       0       0       1       0                               0D0000300
     406     151       0       0       0       0       0       000000000D0000301
     406       0       0       1      15                               0D0000302
402,3,3,101,199,0,1,301;                                         0000001P0000001
402,6,5,21,37,53,69,85;                                          0000003P0000002
144,7,1,0,9;                                                     0000005P0000003
108,0.,-1.,0.,0.271,0,-0.216,-0.271,8.E-03,0.;                   0000007P0000004
142,0,7,0,11,2;                                                  0000009P0000005
102,4,13,15,17,19;                                               0000011P0000006
110,-0.216,-0.271,8.E-03,0.216,-0.271,8.E-03;                    0000013P0000007
110,0.216,-0.271,8.E-03,0.216,-0.271,0.398;                      0000015P0000008
110,0.216,-0.271,0.398,-0.216,-0.271,0.398;                      0000017P0000009
110,-0.216,-0.271,0.398,-0.216,-0.271,8.E-03;                    0000019P0000010
144,23,1,0,25;                                                   0000021P0000011
108,1.,0.,0.,0.216,0,0.216,-0.271,8.E-03,0.;                     0000023P0000012
142,0,23,0,27,2;                                                 0000025P0000013
102,4,29,31,33,35;                                               0000027P0000014
110,0.216,-0.271,8.E-03,0.216,0.271,8.E-03;                      0000029P0000015
110,0.216,0.271,8.E-03,0.216,0.271,0.398;                        0000031P0000016
110,0.216,0.271,0.398,0.216,-0.271,0.398;                        0000033P0000017
110,0.216,-0.271,0.398,0.216,-0.271,8.E-03;                      0000035P0000018
144,39,1,0,41;                                                   0000037P0000019
108,0.,1.,0.,0.271,0,0.216,0.271,8.E-03,0.;                      0000039P0000020
142,0,39,0,43,2;                                                 0000041P0000021
102,4,45,47,49,51;                                               0000043P0000022
110,0.216,0.271,8.E-03,-0.216,0.271,8.E-03;                      0000045P0000023
110,-0.216,0.271,8.E-03,-0.216,0.271,0.398;                      0000047P0000024
110,-0.216,0.271,0.398,0.216,0.271,0.398;                        0000049P0000025
110,0.216,0.271,0.398,0.216,0.271,8.E-03;                        0000051P0000026
144,55,1,0,57;                                                   0000053P0000027
108,-1.,0.,0.,0.216,0,-0.216,0.271,8.E-03,0.;                    0000055P0000028
142,0,55,0,59,2;                                                 0000057P0000029
102,4,61,63,65,67;                                               0000059P0000030
110,-0.216,0.271,8.E-03,-0.216,-0.271,8.E-03;                    0000061P0000031
110,-0.216,-0.271,8.E-03,-0.216,-0.271,0.398;                    0000063P0000032
110,-0.216,-0.271,0.398,-0.216,0.271,0.398;                      0000065P0000033
110,-0.216,0.271,0.398,-0.216,0.271,8.E-03;                      0000067P0000034
144,71,1,0,73;                                                   0000069P0000035
108,0.,0.,-1.,-8.E-03,0,-0.216,0.271,8.E-03,0.;                  0000071P0000036
142,0,71,0,75,2;                                                 0000073P0000037
102,4,77,79,81,83;                                               0000075P0000038
110,-0.216,0.271,8.E-03,0.216,0.271,8.E-03;                      0000077P0000039
110,0.216,0.271,8.E-03,0.216,-0.271,8.E-03;                      0000079P0000040
110,0.216,-0.271,8.E-03,-0.216,-0.271,8.E-03;                    0000081P0000041
110,-0.216,-0.271,8.E-03,-0.216,0.271,8.E-03;                    0000083P0000042
144,87,1,0,89;                                                   0000085P0000043
108,0.,0.,1.,0.398,0,-0.216,-0.271,0.398,0.;                     0000087P0000044
142,0,87,0,91,2;                                                 0000089P0000045
102,4,93,95,97,99;                                               0000091P0000046
110,-0.216,-0.271,0.398,0.216,-0.271,0.398;                      0000093P0000047
110,0.216,-0.271,0.398,0.216,0.271,0.398;                        0000095P0000048
110,0.216,0.271,0.398,-0.216,0.271,0.398;                        0000097P0000049
110,-0.216,0.271,0.398,-0.216,-0.271,0.398;                      0000099P0000050
402,6,103,119,135,151,167,183;                                   0000101P0000051
144,105,1,0,107;                                                 0000103P0000052
108,0.,-1.,0.,0.279,0,0.216,-0.279,0.,0.;                        0000105P0000053
142,0,105,0,109,2;                                               0000107P0000054
102,4,111,113,115,117;                                           0000109P0000055
110,0.216,-0.279,0.,0.521,-0.279,0.;                             0000111P0000056
110,0.521,-0.279,0.,0.521,-0.279,0.406;                          0000113P0000057
110,0.521,-0.279,0.406,0.216,-0.279,0.406;                       0000115P0000058
110,0.216,-0.279,0.406,0.216,-0.279,0.;                          0000117P0000059
144,121,1,0,123;                                                 0000119P0000060
108,1.,0.,0.,0.521,0,0.521,-0.279,0.,0.;                         0000121P0000061
142,0,121,0,125,2;                                               0000123P0000062
102,4,127,129,131,133;                                           0000125P0000063
110,0.521,-0.279,0.,0.521,0.279,0.;                              0000127P0000064
110,0.521,0.279,0.,0.521,0.279,0.406;                            0000129P0000065
110,0.521,0.279,0.406,0.521,-0.279,0.406;                        0000131P0000066
110,0.521,-0.279,0.406,0.521,-0.279,0.;                          0000133P0000067
144,137,1,0,139;                                                 0000135P0000068
108,0.,1.,0.,0.279,0,0.521,0.279,0.,0.;                          0000137P0000069
142,0,137,0,141,2;                                               0000139P0000070
102,4,143,145,147,149;                                           0000141P0000071
110,0.521,0.279,0.,0.216,0.279,0.;                               0000143P0000072
110,0.216,0.279,0.,0.216,0.279,0.406;                            0000145P0000073
110,0.216,0.279,0.406,0.521,0.279,0.406;                         0000147P0000074
110,0.521,0.279,0.406,0.521,0.279,0.;                            0000149P0000075
144,153,1,0,155;                                                 0000151P0000076
108,-1.,0.,0.,-0.216,0,0.216,0.279,0.,0.;                        0000153P0000077
142,0,153,0,157,2;                                               0000155P0000078
102,4,159,161,163,165;                                           0000157P0000079
110,0.216,0.279,0.,0.216,-0.279,0.;                              0000159P0000080
110,0.216,-0.279,0.,0.216,-0.279,0.406;                          0000161P0000081
110,0.216,-0.279,0.406,0.216,0.279,0.406;                        0000163P0000082
110,0.216,0.279,0.406,0.216,0.279,0.;                            0000165P0000083
144,169,1,0,171;                                                 0000167P0000084
108,0.,0.,-1.,0.,0,0.216,0.279,0.,0.;                            0000169P0000085
142,0,169,0,173,2;                                               0000171P0000086
102,4,175,177,179,181;                                           0000173P0000087
110,0.216,0.279,0.,0.521,0.279,0.;                               0000175P0000088
110,0.521,0.279,0.,0.521,-0.279,0.;                              0000177P0000089
110,0.521,-0.279,0.,0.216,-0.279,0.;                             0000179P0000090
110,0.216,-0.279,0.,0.216,0.279,0.;                              0000181P0000091
144,185,1,0,187;                                                 0000183P0000092
108,0.,0.,1.,0.406,0,0.216,-0.279,0.406,0.;                      0000185P0000093
142,0,185,0,189,2;                                               0000187P0000094
102,4,191,193,195,197;                                           0000189P0000095
110,0.216,-0.279,0.406,0.521,-0.279,0.406;                       0000191P0000096
110,0.521,-0.279,0.406,0.521,0.279,0.406;                        0000193P0000097
110,0.521,0.279,0.406,0.216,0.279,0.406;                         0000195P0000098
110,0.216,0.279,0.406,0.216,-0.279,0.406;                        0000197P0000099
402,6,201,217,233,249,265,281;                                   0000199P0000100
144,203,1,0,205;                                                 0000201P0000101
108,0.,-1.,0.,0.279,0,-0.521,-0.279,0.,0.;                       0000203P0000102
142,0,203,0,207,2;                                               0000205P0000103
102,4,209,211,213,215;                                           0000207P0000104
110,-0.521,-0.279,0.,-0.216,-0.279,0.;                           0000209P0000105
110,-0.216,-0.279,0.,-0.216,-0.279,0.406;                        0000211P0000106
110,-0.216,-0.279,0.406,-0.521,-0.279,0.406;                     0000213P0000107
110,-0.521,-0.279,0.406,-0.521,-0.279,0.;                        0000215P0000108
144,219,1,0,221;                                                 0000217P0000109
108,1.,0.,0.,-0.216,0,-0.216,-0.279,0.,0.;                       0000219P0000110
142,0,219,0,223,2;                                               0000221P0000111
102,4,225,227,229,231;                                           0000223P0000112
110,-0.216,-0.279,0.,-0.216,0.279,0.;                            0000225P0000113
110,-0.216,0.279,0.,-0.216,0.279,0.406;                          0000227P0000114
110,-0.216,0.279,0.406,-0.216,-0.279,0.406;                      0000229P0000115
110,-0.216,-0.279,0.406,-0.216,-0.279,0.;                        0000231P0000116
144,235,1,0,237;                                                 0000233P0000117
108,0.,1.,0.,0.279,0,-0.216,0.279,0.,0.;                         0000235P0000118
142,0,235,0,239,2;                                               0000237P0000119
102,4,241,243,245,247;                                           0000239P0000120
110,-0.216,0.279,0.,-0.521,0.279,0.;                             0000241P0000121
110,-0.521,0.279,0.,-0.521,0.279,0.406;                          0000243P0000122
110,-0.521,0.279,0.406,-0.216,0.279,0.406;                       0000245P0000123
110,-0.216,0.279,0.406,-0.216,0.279,0.;                          0000247P0000124
144,251,1,0,253;                                                 0000249P0000125
108,-1.,0.,0.,0.521,0,-0.521,0.279,0.,0.;                        0000251P0000126
142,0,251,0,255,2;                                               0000253P0000127
102,4,257,259,261,263;                                           0000255P0000128
110,-0.521,0.279,0.,-0.521,-0.279,0.;                            0000257P0000129
110,-0.521,-0.279,0.,-0.521,-0.279,0.406;                        0000259P0000130
110,-0.521,-0.279,0.406,-0.521,0.279,0.406;                      0000261P0000131
110,-0.521,0.279,0.406,-0.521,0.279,0.;                          0000263P0000132
144,267,1,0,269;                                                 0000265P0000133
108,0.,0.,-1.,0.,0,-0.521,0.279,0.,0.;                           0000267P0000134
142,0,267,0,271,2;                                               0000269P0000135
102,4,273,275,277,279;                                           0000271P0000136
110,-0.521,0.279,0.,-0.216,0.279,0.;                             0000273P0000137
110,-0.216,0.279,0.,-0.216,-0.279,0.;                            0000275P0000138
110,-0.216,-0.279,0.,-0.521,-0.279,0.;                           0000277P0000139
110,-0.521,-0.279,0.,-0.521,0.279,0.;                            0000279P0000140
144,283,1,0,285;                                                 0000281P0000141
108,0.,0.,1.,0.406,0,-0.521,-0.279,0.406,0.;                     0000283P0000142
142,0,283,0,287,2;                                               0000285P0000143
102,4,289,291,293,295;                                           0000287P0000144
110,-0.521,-0.279,0.406,-0.216,-0.279,0.406;                     0000289P0000145
110,-0.216,-0.279,0.406,-0.216,0.279,0.406;                      0000291P0000146
110,-0.216,0.279,0.406,-0.521,0.279,0.406;                       0000293P0000147
110,-0.521,0.279,0.406,-0.521,-0.279,0.406;                      0000295P0000148
314,19.600000521,19.600000521,19.600000521,6HGRAY20;             0000297P0000149
314,72.499999117,72.499999117,72.499999117,6HGRAY72;             0000299P0000150
406,1,4Hpart;                                                    0000301P0000151
S      1G      4D    302P    151                                        T0000001
